<?xml version="1.0" encoding="utf-8"?>
<!-- Generator: Adobe Illustrator 24.0.2, SVG Export Plug-In . SVG Version: 6.00 Build 0)  -->
<svg version="1.0" id="Layer_1" xmlns="http://www.w3.org/2000/svg" xmlns:xlink="http://www.w3.org/1999/xlink" x="0px" y="0px"
	 viewBox="0 0 1366 768" enable-background="new 0 0 1366 768" xml:space="preserve">
<g>
	<path fill="#F7F7F7" d="M579,767.5c-53.26,0-104.92-10.14-153.56-30.14c-46.98-19.32-89.17-46.97-125.4-82.19
		c-36.23-35.22-64.67-76.23-84.54-121.9c-20.57-47.28-31-97.5-31-149.27s10.43-101.99,31-149.27
		c19.87-45.67,48.31-86.68,84.54-121.9c36.23-35.22,78.42-62.87,125.4-82.19C474.08,10.64,525.74,0.5,579,0.5
		s104.92,10.14,153.56,30.14c46.98,19.32,89.17,46.97,125.4,82.19c36.23,35.22,64.67,76.23,84.54,121.9
		c20.57,47.28,31,97.5,31,149.27s-10.43,101.99-31,149.27c-19.87,45.67-48.31,86.68-84.54,121.9
		c-36.23,35.22-78.42,62.88-125.4,82.19C683.92,757.36,632.26,767.5,579,767.5z"/>
	<path fill="#F7F7F7" d="M579,1c53.19,0,104.8,10.13,153.37,30.1c46.92,19.29,89.05,46.91,125.24,82.09
		c36.18,35.17,64.59,76.13,84.43,121.74C962.58,282.14,973,332.3,973,384s-10.42,101.86-30.96,149.07
		c-19.84,45.61-48.25,86.57-84.43,121.74c-36.18,35.18-78.32,62.79-125.24,82.09C683.8,756.87,632.19,767,579,767
		s-104.8-10.13-153.37-30.1c-46.92-19.29-89.05-46.91-125.24-82.09c-36.18-35.17-64.59-76.13-84.43-121.74
		C195.42,485.86,185,435.7,185,384s10.42-101.86,30.96-149.07c19.84-45.61,48.25-86.57,84.43-121.74
		c36.18-35.18,78.32-62.79,125.24-82.09C474.2,11.13,525.81,1,579,1 M579,0C360.85,0,184,171.92,184,384s176.85,384,395,384
		s395-171.92,395-384S797.15,0,579,0L579,0z"/>
</g>
<rect x="447" y="301" fill="none" width="273" height="78"/>
<text transform="matrix(1.0136 0 0 1 447 352.1191)" fill="#E74700" font-family="'MyriadPro-Regular'" font-size="72px">30% OFF</text>
<g>
	<g>
		<path stroke="#DDFF45" stroke-miterlimit="10" d="M382.83,223.04v-37.27h6.61l0.84,7.88v29.39H382.83z M396.82,223.04v-29.18
			c0-2.11-0.98-3.16-2.95-3.16c-2.39,0-3.59,1.69-3.59,5.06l-2.18-5.34h2.39c0.28-3.56,2.41-5.34,6.4-5.34c1.95,0,3.47,0.67,4.59,2
			c1.11,1.34,1.67,3.36,1.67,6.08v29.88H396.82z M409.69,223.04v-28.48c0-2.58-0.96-3.87-2.88-3.87c-2.44,0-3.66,1.69-3.66,5.06
			l-2.53-5.34h2.88c0.12-1.45,0.7-2.71,1.74-3.76c1.04-1.05,2.55-1.58,4.52-1.58c2.58,0,4.45,0.69,5.63,2.07
			c1.17,1.38,1.76,3.62,1.76,6.71v29.18H409.69z"/>
		<path stroke="#DDFF45" stroke-miterlimit="10" d="M442.17,223.74c-5.16,0-9.16-1.69-12.02-5.06c-2.86-3.38-4.29-8.13-4.29-14.27
			c0-6.16,1.43-10.93,4.29-14.29c2.86-3.36,6.87-5.04,12.02-5.04c5.18,0,9.19,1.68,12.04,5.04c2.85,3.36,4.27,8.13,4.27,14.29
			c0,6.14-1.42,10.9-4.27,14.27S447.35,223.74,442.17,223.74z M442.17,217.06c2.74,0,4.86-1.1,6.35-3.3
			c1.49-2.2,2.23-5.32,2.23-9.35c0-4.05-0.74-7.18-2.23-9.37c-1.49-2.19-3.6-3.29-6.35-3.29s-4.86,1.1-6.35,3.29
			c-1.49,2.19-2.23,5.31-2.23,9.37c0,4.03,0.74,7.15,2.23,9.35C437.31,215.96,439.43,217.06,442.17,217.06z"/>
		<path stroke="#DDFF45" stroke-miterlimit="10" d="M466.08,223.04v-6.12h24.89v6.12H466.08z M467.48,191.89v-6.12h12.45l0.7,6.12
			H467.48z M474.37,223.04v-37.27h6.05l1.41,10.69v26.58H474.37z M481.83,207.01l-2.18-11.67h2.88c0.42-6.84,3.84-10.27,10.27-10.27
			c3.84,0,6.63,1.1,8.37,3.3c1.73,2.2,2.6,5.77,2.6,10.69h-7.38c0-2.72-0.4-4.68-1.21-5.87s-2.12-1.79-3.92-1.79
			c-3.16,0-5.53,1.35-7.08,4.06C482.6,198.16,481.83,202.01,481.83,207.01z"/>
		<path stroke="#DDFF45" stroke-miterlimit="10" d="M530.13,223.74c-6.35,0-11.26-1.67-14.71-5.01c-3.46-3.34-5.19-8.14-5.19-14.4
			c0-6.09,1.46-10.83,4.39-14.2c2.93-3.38,7.07-5.06,12.41-5.06c5.04,0,8.94,1.52,11.69,4.57c2.75,3.05,4.13,7.48,4.13,13.29
			c0,1.71-0.07,3.3-0.21,4.78h-26.16v-5.7h19.62c0-3.35-0.8-5.92-2.39-7.72c-1.59-1.79-3.8-2.69-6.61-2.69
			c-3.16,0-5.62,1.08-7.37,3.23c-1.75,2.16-2.62,5.2-2.62,9.14c0,4.31,1.2,7.59,3.6,9.84c2.4,2.25,5.82,3.38,10.25,3.38
			c1.55,0,3.07-0.09,4.57-0.26c1.5-0.18,3.02-0.42,4.57-0.72l0.91,6.54c-2.2,0.42-4.22,0.69-6.05,0.81
			C533.15,223.68,531.54,223.74,530.13,223.74z"/>
		<path stroke="#DDFF45" stroke-miterlimit="10" d="M596.51,223.04l-4.22-37.27h7.03l2.81,31.64h0.63l4.39-31.64h6.82l-3.13,7.66
			h-0.49l-4.36,29.6H596.51z M615.14,223.04l-4.36-29.6h-0.56l-3.06-7.66h6.82l4.39,31.64h0.63l3.16-31.64h7.38l-5.27,37.27H615.14z
			"/>
		<path stroke="#DDFF45" stroke-miterlimit="10" d="M653.11,223.74c-5.16,0-9.16-1.69-12.02-5.06c-2.86-3.38-4.29-8.13-4.29-14.27
			c0-6.16,1.43-10.93,4.29-14.29c2.86-3.36,6.87-5.04,12.02-5.04c5.18,0,9.19,1.68,12.04,5.04c2.85,3.36,4.27,8.13,4.27,14.29
			c0,6.14-1.42,10.9-4.27,14.27S658.29,223.74,653.11,223.74z M653.11,217.06c2.74,0,4.86-1.1,6.35-3.3
			c1.49-2.2,2.23-5.32,2.23-9.35c0-4.05-0.74-7.18-2.23-9.37c-1.49-2.19-3.6-3.29-6.35-3.29s-4.86,1.1-6.35,3.29
			c-1.49,2.19-2.23,5.31-2.23,9.37c0,4.03,0.74,7.15,2.23,9.35C648.25,215.96,650.37,217.06,653.11,217.06z"/>
		<path stroke="#DDFF45" stroke-miterlimit="10" d="M677.01,223.04v-6.12h24.89v6.12H677.01z M678.42,191.89v-6.12h12.45l0.7,6.12
			H678.42z M685.31,223.04v-37.27h6.05l1.41,10.69v26.58H685.31z M692.76,207.01l-2.18-11.67h2.88c0.42-6.84,3.84-10.27,10.27-10.27
			c3.84,0,6.63,1.1,8.37,3.3c1.73,2.2,2.6,5.77,2.6,10.69h-7.38c0-2.72-0.4-4.68-1.21-5.87s-2.12-1.79-3.92-1.79
			c-3.16,0-5.53,1.35-7.08,4.06S692.76,202.01,692.76,207.01z"/>
		<path stroke="#DDFF45" stroke-miterlimit="10" d="M722.01,223.04V170.3h7.45v52.73H722.01z M727.29,208.9v-6.68h4.22
			c3.09,0,5.64-0.53,7.63-1.6c1.99-1.07,3.56-2.81,4.69-5.22c1.14-2.41,1.97-5.63,2.51-9.63h7.73c-0.98,7.76-3.19,13.55-6.63,17.38
			s-8.16,5.75-14.19,5.75H727.29z M747.26,223.04l-10.62-18.14l7.03-2.88l12.8,21.02H747.26z"/>
	</g>
</g>
<g>
	<g>
		<path stroke="#DDFF45" stroke-miterlimit="10" d="M452.8,107.48l-13.32-37.27h7.95l10.02,30.94h0.63l10.02-30.94h7.95
			l-13.32,37.27H452.8z"/>
		<path stroke="#DDFF45" stroke-miterlimit="10" d="M503.53,108.18c-6.35,0-11.26-1.67-14.71-5.01c-3.46-3.34-5.19-8.14-5.19-14.4
			c0-6.09,1.46-10.83,4.39-14.2c2.93-3.38,7.07-5.06,12.41-5.06c5.04,0,8.94,1.52,11.69,4.57c2.75,3.05,4.13,7.48,4.13,13.29
			c0,1.71-0.07,3.3-0.21,4.78h-26.16v-5.7h19.62c0-3.35-0.8-5.92-2.39-7.72c-1.59-1.79-3.8-2.69-6.61-2.69
			c-3.16,0-5.62,1.08-7.37,3.23c-1.75,2.16-2.62,5.2-2.62,9.14c0,4.31,1.2,7.59,3.6,9.84c2.4,2.25,5.82,3.38,10.25,3.38
			c1.55,0,3.07-0.09,4.57-0.26c1.5-0.18,3.02-0.42,4.57-0.72l0.91,6.54c-2.2,0.42-4.22,0.69-6.05,0.81
			C506.56,108.13,504.94,108.18,503.53,108.18z"/>
		<path stroke="#DDFF45" stroke-miterlimit="10" d="M539.25,108.18c-2.81,0-5.22-0.08-7.22-0.25c-2-0.16-3.84-0.43-5.5-0.81
			l0.84-6.75c2.46,0.38,4.63,0.66,6.52,0.84c1.89,0.19,3.67,0.28,5.36,0.28c3.77,0,6.51-0.37,8.21-1.11
			c1.7-0.74,2.55-1.92,2.55-3.53c0-1.13-0.3-1.96-0.9-2.51c-0.6-0.55-1.52-0.98-2.76-1.28l-8.58-2.18c-3.68-0.94-6.38-2.1-8.1-3.48
			c-1.72-1.38-2.58-3.48-2.58-6.29c0-4.08,1.56-7.03,4.69-8.86s8.17-2.74,15.13-2.74c1.8,0,3.49,0.05,5.04,0.16
			c1.56,0.11,3.16,0.29,4.8,0.54l-0.77,6.47c-1.9-0.19-3.57-0.32-5.03-0.39c-1.45-0.07-2.87-0.11-4.25-0.11
			c-4.17,0-7.2,0.36-9.07,1.07c-1.88,0.72-2.81,1.88-2.81,3.5c0,1.08,0.39,1.86,1.16,2.34c0.77,0.48,1.96,0.92,3.55,1.32l6.89,1.69
			c3.91,0.94,6.78,2.19,8.6,3.76c1.82,1.57,2.72,3.86,2.72,6.86c0,4.01-1.46,6.92-4.39,8.74
			C550.42,107.28,545.72,108.18,539.25,108.18z"/>
		<path stroke="#DDFF45" stroke-miterlimit="10" d="M569.14,123.65V70.22h6.75l0.7,7.88v45.56H569.14z M587.17,108.18
			c-2.86,0-5.16-0.66-6.91-1.97c-1.75-1.31-2.74-3.14-2.97-5.48h-3.23l2.53-10.62c0,3.84,0.76,6.76,2.27,8.75
			c1.51,1.99,3.73,2.99,6.66,2.99c3,0,5.27-1.07,6.82-3.2c1.55-2.13,2.32-5.29,2.32-9.46c0-4.41-0.77-7.73-2.32-9.98
			s-3.82-3.38-6.82-3.38c-2.93,0-5.15,1-6.66,2.99c-1.51,1.99-2.27,4.91-2.27,8.75l-2.53-10.62h2.88c0.33-2.34,1.39-4.17,3.18-5.48
			c1.79-1.31,4.14-1.97,7.05-1.97c4.9,0,8.6,1.66,11.11,4.99c2.51,3.33,3.76,8.23,3.76,14.7c0,6.23-1.25,10.96-3.76,14.17
			C595.77,106.58,592.07,108.18,587.17,108.18z"/>
		<path stroke="#DDFF45" stroke-miterlimit="10" d="M630.1,108.18c-6.35,0-11.26-1.67-14.71-5.01c-3.46-3.34-5.19-8.14-5.19-14.4
			c0-6.09,1.46-10.83,4.39-14.2c2.93-3.38,7.07-5.06,12.41-5.06c5.04,0,8.94,1.52,11.69,4.57c2.75,3.05,4.13,7.48,4.13,13.29
			c0,1.71-0.07,3.3-0.21,4.78h-26.16v-5.7h19.62c0-3.35-0.8-5.92-2.39-7.72c-1.59-1.79-3.8-2.69-6.61-2.69
			c-3.16,0-5.62,1.08-7.37,3.23c-1.75,2.16-2.62,5.2-2.62,9.14c0,4.31,1.2,7.59,3.6,9.84c2.4,2.25,5.82,3.38,10.25,3.38
			c1.55,0,3.07-0.09,4.57-0.26c1.5-0.18,3.02-0.42,4.57-0.72l0.91,6.54c-2.2,0.42-4.22,0.69-6.05,0.81
			C633.12,108.13,631.5,108.18,630.1,108.18z"/>
		<path stroke="#DDFF45" stroke-miterlimit="10" d="M650.42,107.48v-6.12h24.89v6.12H650.42z M651.82,76.33v-6.12h12.45l0.7,6.12
			H651.82z M658.71,107.48V70.22h6.05l1.41,10.69v26.58H658.71z M666.17,91.45l-2.18-11.67h2.88c0.42-6.84,3.84-10.27,10.27-10.27
			c3.84,0,6.63,1.1,8.37,3.3c1.73,2.2,2.6,5.77,2.6,10.69h-7.38c0-2.72-0.4-4.68-1.21-5.87s-2.12-1.79-3.92-1.79
			c-3.16,0-5.53,1.35-7.08,4.06C666.95,82.61,666.17,86.46,666.17,91.45z"/>
	</g>
</g>
<circle fill="#F37600" stroke="#F37600" stroke-miterlimit="10" cx="794.5" cy="339.5" r="68"/>
<g>
	<g>
		<path fill="#FCFFFF" d="M755.77,332.59c-1.41,0-2.61-0.04-3.61-0.12s-1.92-0.22-2.75-0.4l0.42-3.38c1.23,0.19,2.32,0.33,3.26,0.42
			s1.84,0.14,2.68,0.14c1.89,0,3.25-0.18,4.1-0.55s1.27-0.96,1.27-1.77c0-0.56-0.15-0.98-0.45-1.26s-0.76-0.49-1.38-0.64l-4.29-1.09
			c-1.84-0.47-3.19-1.05-4.05-1.74s-1.29-1.74-1.29-3.15c0-2.04,0.78-3.52,2.35-4.43s4.09-1.37,7.57-1.37c0.9,0,1.74,0.03,2.52,0.08
			s1.58,0.14,2.4,0.27l-0.39,3.23c-0.95-0.09-1.79-0.16-2.51-0.19s-1.44-0.05-2.13-0.05c-2.09,0-3.6,0.18-4.54,0.54
			s-1.41,0.94-1.41,1.75c0,0.54,0.19,0.93,0.58,1.17s0.98,0.46,1.78,0.66l3.45,0.84c1.96,0.47,3.39,1.1,4.3,1.88
			s1.36,1.93,1.36,3.43c0,2-0.73,3.46-2.2,4.37S759.01,332.59,755.77,332.59z"/>
		<path fill="#FCFFFF" d="M775.57,332.59c-1.95,0-3.45-0.47-4.52-1.41s-1.6-2.26-1.6-3.97c0-1.97,0.74-3.48,2.21-4.54
			s3.55-1.58,6.23-1.58c1.11,0,2.11,0.07,2.98,0.2s1.65,0.34,2.33,0.61l-0.77,2.53c-0.79-0.18-1.55-0.28-2.3-0.31
			s-1.52-0.04-2.3-0.04c-3.23,0-4.85,0.98-4.85,2.95c0,0.82,0.28,1.45,0.83,1.9s1.34,0.67,2.36,0.67c1.16,0,2.13-0.2,2.91-0.6
			s1.36-0.91,1.75-1.53s0.58-1.26,0.58-1.92v-2.04l1.09,4.78h-1.48l0.6-0.56c0,1.08-0.25,1.98-0.75,2.7s-1.2,1.26-2.1,1.62
			S776.8,332.59,775.57,332.59z M782.14,332.42l-0.25-5.52l-0.49-1.55v-4.82c0-1.24-0.44-2.15-1.31-2.73s-2.17-0.89-3.89-0.94
			l-4.46-0.12l0.35-3.3l3.76,0.05c3.08,0.05,5.37,0.71,6.86,2s2.24,3.16,2.24,5.62v7.77l3.16,0.39v2.99L782.14,332.42z"/>
		<path fill="#FCFFFF" d="M796.92,332.24l-6.66-18.63h3.97l5.01,15.47h0.32l5.01-15.47h3.97l-6.66,18.63H796.92z"/>
		<path fill="#FCFFFF" d="M822.29,332.59c-3.18,0-5.63-0.83-7.36-2.5s-2.59-4.07-2.59-7.2c0-3.05,0.73-5.41,2.2-7.1
			s3.53-2.53,6.21-2.53c2.52,0,4.47,0.76,5.84,2.29s2.07,3.74,2.07,6.64c0,0.86-0.04,1.65-0.11,2.39h-13.08v-2.85h9.81
			c0-1.68-0.4-2.96-1.2-3.86s-1.9-1.34-3.3-1.34c-1.58,0-2.81,0.54-3.68,1.62s-1.31,2.6-1.31,4.57c0,2.16,0.6,3.8,1.8,4.92
			s2.91,1.69,5.12,1.69c0.77,0,1.54-0.04,2.29-0.13s1.51-0.21,2.29-0.36l0.46,3.27c-1.1,0.21-2.11,0.35-3.02,0.4
			S822.99,332.59,822.29,332.59z"/>
	</g>
</g>
<g>
	<g>
		<path fill="#170B00" d="M310.03,438.8c-1.72,0-3.05-0.56-4.01-1.69s-1.43-2.71-1.43-4.76c0-2.05,0.48-3.64,1.43-4.76
			s2.29-1.68,4.01-1.68c1.73,0,3.06,0.56,4.01,1.68s1.42,2.71,1.42,4.76c0,2.05-0.47,3.63-1.42,4.76S311.76,438.8,310.03,438.8z
			 M310.03,436.58c0.91,0,1.62-0.37,2.12-1.1s0.74-1.77,0.74-3.12c0-1.35-0.25-2.39-0.74-3.12s-1.2-1.1-2.12-1.1
			s-1.62,0.37-2.12,1.1s-0.74,1.77-0.74,3.12c0,1.34,0.25,2.38,0.74,3.12S309.12,436.58,310.03,436.58z"/>
		<path fill="#170B00" d="M322.88,438.8c-1.3,0-2.31-0.39-3.03-1.17s-1.07-1.87-1.07-3.29v-8.2h2.48v8.2c0,0.71,0.2,1.26,0.61,1.65
			s0.98,0.58,1.71,0.58c0.91,0,1.59-0.29,2.05-0.86s0.69-1.54,0.69-2.89l0.63,3.35h-0.82c-0.2,0.84-0.58,1.49-1.15,1.95
			S323.71,438.8,322.88,438.8z M326.32,435.05v-8.91h2.48v8.2L326.32,435.05z M326.53,438.69l-0.21-2.98v-2.18h2.48v2.79l1.71,0.26
			v1.99L326.53,438.69z"/>
		<path fill="#170B00" d="M332.06,438.57v-2.04h8.3v2.04H332.06z M332.53,428.19v-2.04h4.15l0.23,2.04H332.53z M334.83,438.57
			v-12.42h2.02l0.47,3.56v8.86H334.83z M337.31,433.22l-0.73-3.89h0.96c0.14-2.28,1.28-3.42,3.42-3.42c1.28,0,2.21,0.37,2.79,1.1
			s0.87,1.92,0.87,3.56h-2.46c0-0.91-0.13-1.56-0.4-1.96s-0.71-0.6-1.31-0.6c-1.05,0-1.84,0.45-2.36,1.35
			S337.31,431.56,337.31,433.22z"/>
		<path fill="#170B00" d="M361.13,438.57v-2.04h4.97v2.04H361.13z M361.83,428.19v-2.04h6.52v2.04H361.83z M367.02,424.18
			c-0.48,0-0.88-0.17-1.22-0.51s-0.51-0.75-0.51-1.22c0-0.48,0.17-0.89,0.51-1.23s0.75-0.5,1.22-0.5c0.48,0,0.89,0.17,1.23,0.5
			s0.5,0.75,0.5,1.23c0,0.48-0.17,0.88-0.5,1.22S367.5,424.18,367.02,424.18z M365.86,438.57v-11.72h2.48v11.72H365.86z
			 M368.11,438.57v-2.04h4.05v2.04H368.11z"/>
		<path fill="#170B00" d="M375.28,438.57v-12.42h2.25l0.23,2.63v9.8H375.28z M382.92,438.57v-8.09c0-0.75-0.2-1.33-0.59-1.73
			s-0.94-0.61-1.64-0.61c-1.95,0-2.93,1.15-2.93,3.45l-0.73-3.19H378c0.07-0.84,0.38-1.46,0.91-1.87s1.33-0.62,2.37-0.62
			c1.31,0,2.33,0.4,3.05,1.2s1.08,1.92,1.08,3.38v8.09H382.92z"/>
		<path fill="#170B00" d="M389.34,438.57v-12.42h2.25l0.23,2.63v9.8H389.34z M396.98,438.57v-8.09c0-0.75-0.2-1.33-0.59-1.73
			s-0.94-0.61-1.64-0.61c-1.95,0-2.93,1.15-2.93,3.45l-0.73-3.19h0.96c0.07-0.84,0.38-1.46,0.91-1.87s1.33-0.62,2.37-0.62
			c1.31,0,2.33,0.4,3.05,1.2s1.08,1.92,1.08,3.38v8.09H396.98z"/>
		<path fill="#170B00" d="M408.47,438.8c-1.72,0-3.05-0.56-4.01-1.69s-1.43-2.71-1.43-4.76c0-2.05,0.48-3.64,1.43-4.76
			s2.29-1.68,4.01-1.68c1.73,0,3.06,0.56,4.01,1.68s1.42,2.71,1.42,4.76c0,2.05-0.47,3.63-1.42,4.76S410.2,438.8,408.47,438.8z
			 M408.47,436.58c0.91,0,1.62-0.37,2.12-1.1s0.74-1.77,0.74-3.12c0-1.35-0.25-2.39-0.74-3.12s-1.2-1.1-2.12-1.1
			s-1.62,0.37-2.12,1.1s-0.74,1.77-0.74,3.12c0,1.34,0.25,2.38,0.74,3.12S407.55,436.58,408.47,436.58z"/>
		<path fill="#170B00" d="M420.88,438.57l-4.44-12.42h2.65l3.34,10.31h0.21l3.34-10.31h2.65l-4.44,12.42H420.88z"/>
		<path fill="#170B00" d="M434.77,438.8c-1.3,0-2.3-0.31-3.01-0.94s-1.07-1.51-1.07-2.65c0-1.31,0.49-2.32,1.47-3.02
			s2.37-1.05,4.15-1.05c0.74,0,1.4,0.04,1.99,0.13s1.1,0.22,1.55,0.4l-0.52,1.69c-0.52-0.12-1.04-0.19-1.54-0.21
			s-1.01-0.03-1.54-0.03c-2.16,0-3.23,0.66-3.23,1.97c0,0.55,0.19,0.97,0.56,1.27s0.9,0.45,1.58,0.45c0.77,0,1.42-0.13,1.94-0.4
			s0.91-0.61,1.17-1.02s0.39-0.84,0.39-1.28v-1.36l0.73,3.19h-0.98l0.4-0.38c0,0.72-0.17,1.32-0.5,1.8s-0.8,0.84-1.4,1.08
			S435.59,438.8,434.77,438.8z M439.15,438.69l-0.16-3.68l-0.33-1.03v-3.21c0-0.83-0.29-1.44-0.87-1.82s-1.45-0.6-2.6-0.63
			l-2.98-0.08l0.23-2.2l2.51,0.04c2.05,0.03,3.58,0.47,4.58,1.33s1.49,2.1,1.49,3.74v5.18l2.11,0.26v1.99L439.15,438.69z"/>
		<path fill="#170B00" d="M444.45,428.19v-2.04h11.25v2.04H444.45z M447.56,432.71V422.4h2.48v10.31H447.56z M452.91,438.8
			c-1.88,0-3.24-0.39-4.08-1.17s-1.26-2.03-1.26-3.75v-2.11h2.48v1.99c0,0.98,0.24,1.7,0.72,2.14s1.27,0.67,2.37,0.67
			c0.39,0,0.8-0.02,1.24-0.06s0.94-0.1,1.5-0.17l0.28,2.18c-0.55,0.09-1.08,0.16-1.6,0.21S453.49,438.8,452.91,438.8z"/>
		<path fill="#170B00" d="M459.56,438.57v-2.04h4.97v2.04H459.56z M460.27,428.19v-2.04h6.52v2.04H460.27z M465.46,424.18
			c-0.48,0-0.88-0.17-1.22-0.51s-0.51-0.75-0.51-1.22c0-0.48,0.17-0.89,0.51-1.23s0.75-0.5,1.22-0.5c0.48,0,0.89,0.17,1.23,0.5
			s0.5,0.75,0.5,1.23c0,0.48-0.17,0.88-0.5,1.22S465.94,424.18,465.46,424.18z M464.3,438.57v-11.72h2.48v11.72H464.3z
			 M466.55,438.57v-2.04h4.05v2.04H466.55z"/>
		<path fill="#170B00" d="M478.78,438.8c-1.72,0-3.05-0.56-4.01-1.69s-1.43-2.71-1.43-4.76c0-2.05,0.48-3.64,1.43-4.76
			s2.29-1.68,4.01-1.68c1.73,0,3.06,0.56,4.01,1.68s1.42,2.71,1.42,4.76c0,2.05-0.47,3.63-1.42,4.76S480.51,438.8,478.78,438.8z
			 M478.78,436.58c0.91,0,1.62-0.37,2.12-1.1s0.74-1.77,0.74-3.12c0-1.35-0.25-2.39-0.74-3.12s-1.2-1.1-2.12-1.1
			s-1.62,0.37-2.12,1.1s-0.74,1.77-0.74,3.12c0,1.34,0.25,2.38,0.74,3.12S477.87,436.58,478.78,436.58z"/>
		<path fill="#170B00" d="M487.78,438.57v-12.42h2.25l0.23,2.63v9.8H487.78z M495.42,438.57v-8.09c0-0.75-0.2-1.33-0.59-1.73
			s-0.94-0.61-1.64-0.61c-1.95,0-2.93,1.15-2.93,3.45l-0.73-3.19h0.96c0.07-0.84,0.38-1.46,0.91-1.87s1.33-0.62,2.37-0.62
			c1.31,0,2.33,0.4,3.05,1.2s1.08,1.92,1.08,3.38v8.09H495.42z"/>
		<path fill="#170B00" d="M515.91,443.96v-17.81h2.25l0.23,2.63v15.19H515.91z M521.92,438.8c-0.95,0-1.72-0.22-2.3-0.66
			s-0.91-1.05-0.99-1.83h-1.08l0.84-3.54c0,1.28,0.25,2.25,0.76,2.92s1.24,1,2.22,1c1,0,1.76-0.36,2.27-1.07s0.77-1.76,0.77-3.15
			c0-1.47-0.26-2.58-0.77-3.33s-1.27-1.13-2.27-1.13c-0.98,0-1.72,0.33-2.22,1s-0.76,1.64-0.76,2.92l-0.84-3.54h0.96
			c0.11-0.78,0.46-1.39,1.06-1.83s1.38-0.66,2.35-0.66c1.63,0,2.87,0.55,3.7,1.66s1.25,2.74,1.25,4.9c0,2.08-0.42,3.65-1.25,4.72
			S523.55,438.8,521.92,438.8z"/>
		<path fill="#170B00" d="M528.94,438.57v-2.04h8.3v2.04H528.94z M529.41,428.19v-2.04h4.15l0.23,2.04H529.41z M531.7,438.57v-12.42
			h2.02l0.47,3.56v8.86H531.7z M534.19,433.22l-0.73-3.89h0.96c0.14-2.28,1.28-3.42,3.42-3.42c1.28,0,2.21,0.37,2.79,1.1
			s0.87,1.92,0.87,3.56h-2.46c0-0.91-0.13-1.56-0.4-1.96s-0.71-0.6-1.31-0.6c-1.05,0-1.84,0.45-2.36,1.35
			S534.19,431.56,534.19,433.22z"/>
		<path fill="#170B00" d="M549.09,438.8c-1.72,0-3.05-0.56-4.01-1.69s-1.43-2.71-1.43-4.76c0-2.05,0.48-3.64,1.43-4.76
			s2.29-1.68,4.01-1.68c1.73,0,3.06,0.56,4.01,1.68s1.42,2.71,1.42,4.76c0,2.05-0.47,3.63-1.42,4.76S550.82,438.8,549.09,438.8z
			 M549.09,436.58c0.91,0,1.62-0.37,2.12-1.1s0.74-1.77,0.74-3.12c0-1.35-0.25-2.39-0.74-3.12s-1.2-1.1-2.12-1.1
			s-1.62,0.37-2.12,1.1s-0.74,1.77-0.74,3.12c0,1.34,0.25,2.38,0.74,3.12S548.18,436.58,549.09,436.58z"/>
		<path fill="#170B00" d="M562.21,438.8c-1.63,0-2.86-0.54-3.7-1.61s-1.26-2.64-1.26-4.72c0-2.16,0.42-3.79,1.26-4.9
			s2.07-1.66,3.7-1.66c0.93,0,1.69,0.22,2.27,0.66s0.92,1.05,1.03,1.83h0.96l-0.73,3.54c0-1.28-0.25-2.25-0.76-2.92s-1.24-1-2.22-1
			c-1,0-1.76,0.38-2.27,1.13s-0.77,1.86-0.77,3.33c0,1.39,0.26,2.44,0.77,3.15s1.27,1.07,2.27,1.07c0.98,0,1.72-0.33,2.22-1
			s0.76-1.64,0.76-2.92l0.84,3.54h-1.08c-0.08,0.78-0.41,1.39-0.99,1.83S563.16,438.8,562.21,438.8z M565.99,438.69l-0.26-2.44
			v-15.26h2.48v17.58L565.99,438.69z"/>
		<path fill="#170B00" d="M576,438.8c-1.3,0-2.31-0.39-3.03-1.17s-1.07-1.87-1.07-3.29v-8.2h2.48v8.2c0,0.71,0.2,1.26,0.61,1.65
			s0.98,0.58,1.71,0.58c0.91,0,1.59-0.29,2.05-0.86s0.69-1.54,0.69-2.89l0.63,3.35h-0.82c-0.2,0.84-0.58,1.49-1.15,1.95
			S576.84,438.8,576,438.8z M579.45,435.05v-8.91h2.48v8.2L579.45,435.05z M579.66,438.69l-0.21-2.98v-2.18h2.48v2.79l1.71,0.26
			v1.99L579.66,438.69z"/>
		<path fill="#170B00" d="M592.48,438.8c-2.12,0-3.75-0.56-4.9-1.67s-1.73-2.71-1.73-4.8c0-2.03,0.54-3.61,1.63-4.73
			s2.65-1.69,4.67-1.69c1.21,0,2.25,0.22,3.11,0.67s1.48,1.08,1.85,1.9l-1.91,1.44c-0.35-0.57-0.8-1.01-1.35-1.32
			s-1.14-0.47-1.79-0.47c-1.17,0-2.08,0.35-2.73,1.06s-0.97,1.71-0.97,3.02c0,1.41,0.38,2.49,1.14,3.24s1.85,1.12,3.26,1.12
			c0.58,0,1.16-0.03,1.73-0.08s1.14-0.13,1.69-0.22l0.28,2.18c-0.64,0.14-1.3,0.23-1.99,0.28S593.13,438.8,592.48,438.8z"/>
		<path fill="#170B00" d="M599.13,428.19v-2.04h11.25v2.04H599.13z M602.25,432.71V422.4h2.48v10.31H602.25z M607.59,438.8
			c-1.88,0-3.24-0.39-4.08-1.17s-1.26-2.03-1.26-3.75v-2.11h2.48v1.99c0,0.98,0.24,1.7,0.72,2.14s1.27,0.67,2.37,0.67
			c0.39,0,0.8-0.02,1.24-0.06s0.94-0.1,1.5-0.17l0.28,2.18c-0.55,0.09-1.08,0.16-1.6,0.21S608.18,438.8,607.59,438.8z"/>
		<path fill="#170B00" d="M618.45,438.8c-0.94,0-1.74-0.03-2.41-0.08s-1.28-0.14-1.83-0.27l0.28-2.25c0.82,0.13,1.54,0.22,2.17,0.28
			s1.22,0.09,1.79,0.09c1.26,0,2.17-0.12,2.74-0.37s0.85-0.64,0.85-1.18c0-0.38-0.1-0.65-0.3-0.84s-0.51-0.33-0.92-0.43l-2.86-0.73
			c-1.23-0.31-2.13-0.7-2.7-1.16s-0.86-1.16-0.86-2.1c0-1.36,0.52-2.34,1.56-2.95s2.72-0.91,5.04-0.91c0.6,0,1.16,0.02,1.68,0.05
			s1.05,0.1,1.6,0.18l-0.26,2.16c-0.63-0.06-1.19-0.11-1.68-0.13s-0.96-0.04-1.42-0.04c-1.39,0-2.4,0.12-3.02,0.36
			s-0.94,0.63-0.94,1.17c0,0.36,0.13,0.62,0.39,0.78s0.65,0.31,1.18,0.44l2.3,0.56c1.3,0.31,2.26,0.73,2.87,1.25
			s0.91,1.29,0.91,2.29c0,1.34-0.49,2.31-1.46,2.91S620.6,438.8,618.45,438.8z"/>
		<path fill="#170B00" d="M645.7,438.8c-1.3,0-2.3-0.31-3.01-0.94s-1.07-1.51-1.07-2.65c0-1.31,0.49-2.32,1.47-3.02
			s2.37-1.05,4.15-1.05c0.74,0,1.4,0.04,1.99,0.13s1.1,0.22,1.55,0.4l-0.52,1.69c-0.52-0.12-1.04-0.19-1.54-0.21
			s-1.01-0.03-1.54-0.03c-2.16,0-3.23,0.66-3.23,1.97c0,0.55,0.19,0.97,0.56,1.27s0.9,0.45,1.58,0.45c0.77,0,1.42-0.13,1.94-0.4
			s0.91-0.61,1.17-1.02s0.39-0.84,0.39-1.28v-1.36l0.73,3.19h-0.98l0.4-0.38c0,0.72-0.17,1.32-0.5,1.8s-0.8,0.84-1.4,1.08
			S646.52,438.8,645.7,438.8z M650.09,438.69l-0.16-3.68l-0.33-1.03v-3.21c0-0.83-0.29-1.44-0.87-1.82s-1.45-0.6-2.6-0.63
			l-2.98-0.08l0.23-2.2l2.51,0.04c2.05,0.03,3.58,0.47,4.58,1.33s1.49,2.1,1.49,3.74v5.18l2.11,0.26v1.99L650.09,438.69z"/>
		<path fill="#170B00" d="M655.5,438.57v-2.04h8.3v2.04H655.5z M655.97,428.19v-2.04h4.15l0.23,2.04H655.97z M658.27,438.57v-12.42
			h2.02l0.47,3.56v8.86H658.27z M660.75,433.22l-0.73-3.89h0.96c0.14-2.28,1.28-3.42,3.42-3.42c1.28,0,2.21,0.37,2.79,1.1
			s0.87,1.92,0.87,3.56h-2.46c0-0.91-0.13-1.56-0.4-1.96s-0.71-0.6-1.31-0.6c-1.05,0-1.84,0.45-2.36,1.35
			S660.75,431.56,660.75,433.22z"/>
		<path fill="#170B00" d="M676.85,438.8c-2.12,0-3.75-0.56-4.9-1.67s-1.73-2.71-1.73-4.8c0-2.03,0.49-3.61,1.46-4.73
			s2.36-1.69,4.14-1.69c1.68,0,2.98,0.51,3.9,1.52s1.38,2.49,1.38,4.43c0,0.57-0.02,1.1-0.07,1.59h-8.72v-1.9h6.54
			c0-1.12-0.27-1.97-0.8-2.57s-1.27-0.9-2.2-0.9c-1.05,0-1.87,0.36-2.46,1.08s-0.87,1.73-0.87,3.05c0,1.44,0.4,2.53,1.2,3.28
			s1.94,1.13,3.42,1.13c0.52,0,1.02-0.03,1.52-0.09s1.01-0.14,1.52-0.24l0.3,2.18c-0.73,0.14-1.41,0.23-2.02,0.27
			S677.32,438.8,676.85,438.8z"/>
		<path fill="#170B00" d="M702.83,438.8c-1.63,0-2.86-0.54-3.7-1.61s-1.26-2.64-1.26-4.72c0-2.16,0.42-3.79,1.26-4.9
			s2.07-1.66,3.7-1.66c0.93,0,1.69,0.22,2.27,0.66s0.92,1.05,1.03,1.83h0.96l-0.73,3.54c0-1.28-0.25-2.25-0.76-2.92s-1.24-1-2.22-1
			c-1,0-1.76,0.38-2.27,1.13s-0.77,1.86-0.77,3.33c0,1.39,0.26,2.44,0.77,3.15s1.27,1.07,2.27,1.07c0.98,0,1.72-0.33,2.22-1
			s0.76-1.64,0.76-2.92l0.84,3.54h-1.08c-0.08,0.78-0.41,1.39-0.99,1.83S703.79,438.8,702.83,438.8z M706.62,438.69l-0.26-2.44
			v-15.26h2.48v17.58L706.62,438.69z"/>
		<path fill="#170B00" d="M719.04,438.8c-2.12,0-3.75-0.56-4.9-1.67s-1.73-2.71-1.73-4.8c0-2.03,0.49-3.61,1.46-4.73
			s2.36-1.69,4.14-1.69c1.68,0,2.98,0.51,3.9,1.52s1.38,2.49,1.38,4.43c0,0.57-0.02,1.1-0.07,1.59h-8.72v-1.9h6.54
			c0-1.12-0.27-1.97-0.8-2.57s-1.27-0.9-2.2-0.9c-1.05,0-1.87,0.36-2.46,1.08s-0.87,1.73-0.87,3.05c0,1.44,0.4,2.53,1.2,3.28
			s1.94,1.13,3.42,1.13c0.52,0,1.02-0.03,1.52-0.09s1.01-0.14,1.52-0.24l0.3,2.18c-0.73,0.14-1.41,0.23-2.02,0.27
			S719.51,438.8,719.04,438.8z"/>
		<path fill="#170B00" d="M730.95,438.8c-0.94,0-1.74-0.03-2.41-0.08s-1.28-0.14-1.83-0.27l0.28-2.25c0.82,0.13,1.54,0.22,2.17,0.28
			s1.22,0.09,1.79,0.09c1.26,0,2.17-0.12,2.74-0.37s0.85-0.64,0.85-1.18c0-0.38-0.1-0.65-0.3-0.84s-0.51-0.33-0.92-0.43l-2.86-0.73
			c-1.23-0.31-2.13-0.7-2.7-1.16s-0.86-1.16-0.86-2.1c0-1.36,0.52-2.34,1.56-2.95s2.72-0.91,5.04-0.91c0.6,0,1.16,0.02,1.68,0.05
			s1.05,0.1,1.6,0.18l-0.26,2.16c-0.63-0.06-1.19-0.11-1.68-0.13s-0.96-0.04-1.42-0.04c-1.39,0-2.4,0.12-3.02,0.36
			s-0.94,0.63-0.94,1.17c0,0.36,0.13,0.62,0.39,0.78s0.65,0.31,1.18,0.44l2.3,0.56c1.3,0.31,2.26,0.73,2.87,1.25
			s0.91,1.29,0.91,2.29c0,1.34-0.49,2.31-1.46,2.91S733.1,438.8,730.95,438.8z"/>
		<path fill="#170B00" d="M740.81,438.57v-2.04h4.97v2.04H740.81z M741.52,428.19v-2.04h6.52v2.04H741.52z M746.71,424.18
			c-0.48,0-0.88-0.17-1.22-0.51s-0.51-0.75-0.51-1.22c0-0.48,0.17-0.89,0.51-1.23s0.75-0.5,1.22-0.5c0.48,0,0.89,0.17,1.23,0.5
			s0.5,0.75,0.5,1.23c0,0.48-0.17,0.88-0.5,1.22S747.19,424.18,746.71,424.18z M745.55,438.57v-11.72h2.48v11.72H745.55z
			 M747.8,438.57v-2.04h4.05v2.04H747.8z"/>
		<path fill="#170B00" d="M759.08,438.8c-1.63,0-2.86-0.54-3.7-1.61s-1.26-2.64-1.26-4.72c0-2.16,0.42-3.79,1.26-4.9
			s2.07-1.66,3.7-1.66c0.97,0,1.75,0.22,2.36,0.66s0.95,1.05,1.05,1.83h0.96l-0.84,3.54c0-1.28-0.25-2.25-0.76-2.92s-1.24-1-2.22-1
			c-1,0-1.76,0.38-2.27,1.13s-0.77,1.86-0.77,3.33c0,1.39,0.26,2.44,0.77,3.15s1.27,1.07,2.27,1.07c0.98,0,1.72-0.33,2.22-1
			s0.76-1.64,0.76-2.92l0.84,3.54h-1.08c-0.08,0.78-0.41,1.39-0.99,1.83S760.04,438.8,759.08,438.8z M755.13,444.17l-0.12-2.27
			l3.98-0.12c1.26-0.04,2.17-0.39,2.74-1.04s0.86-1.62,0.87-2.89v-9.07l0.23-2.63h2.25v11.32c0,2.21-0.5,3.84-1.51,4.9
			s-2.61,1.62-4.82,1.69L755.13,444.17z"/>
		<path fill="#170B00" d="M769.03,438.57v-12.42h2.25l0.23,2.63v9.8H769.03z M776.67,438.57v-8.09c0-0.75-0.2-1.33-0.59-1.73
			s-0.94-0.61-1.64-0.61c-1.95,0-2.93,1.15-2.93,3.45l-0.73-3.19h0.96c0.07-0.84,0.38-1.46,0.91-1.87s1.33-0.62,2.37-0.62
			c1.31,0,2.33,0.4,3.05,1.2s1.08,1.92,1.08,3.38v8.09H776.67z"/>
		<path fill="#170B00" d="M789.35,438.8c-2.12,0-3.75-0.56-4.9-1.67s-1.73-2.71-1.73-4.8c0-2.03,0.49-3.61,1.46-4.73
			s2.36-1.69,4.14-1.69c1.68,0,2.98,0.51,3.9,1.52s1.38,2.49,1.38,4.43c0,0.57-0.02,1.1-0.07,1.59h-8.72v-1.9h6.54
			c0-1.12-0.27-1.97-0.8-2.57s-1.27-0.9-2.2-0.9c-1.05,0-1.87,0.36-2.46,1.08s-0.87,1.73-0.87,3.05c0,1.44,0.4,2.53,1.2,3.28
			s1.94,1.13,3.42,1.13c0.52,0,1.02-0.03,1.52-0.09s1.01-0.14,1.52-0.24l0.3,2.18c-0.73,0.14-1.41,0.23-2.02,0.27
			S789.82,438.8,789.35,438.8z"/>
		<path fill="#170B00" d="M801.27,438.8c-1.63,0-2.86-0.54-3.7-1.61s-1.26-2.64-1.26-4.72c0-2.16,0.42-3.79,1.26-4.9
			s2.07-1.66,3.7-1.66c0.93,0,1.69,0.22,2.27,0.66s0.92,1.05,1.03,1.83h0.96l-0.73,3.54c0-1.28-0.25-2.25-0.76-2.92s-1.24-1-2.22-1
			c-1,0-1.76,0.38-2.27,1.13s-0.77,1.86-0.77,3.33c0,1.39,0.26,2.44,0.77,3.15s1.27,1.07,2.27,1.07c0.98,0,1.72-0.33,2.22-1
			s0.76-1.64,0.76-2.92l0.84,3.54h-1.08c-0.08,0.78-0.41,1.39-0.99,1.83S802.22,438.8,801.27,438.8z M805.05,438.69l-0.26-2.44
			v-15.26h2.48v17.58L805.05,438.69z"/>
		<path fill="#170B00" d="M824.13,428.19v-2.04h11.25v2.04H824.13z M827.25,432.71V422.4h2.48v10.31H827.25z M832.59,438.8
			c-1.88,0-3.24-0.39-4.08-1.17s-1.26-2.03-1.26-3.75v-2.11h2.48v1.99c0,0.98,0.24,1.7,0.72,2.14s1.27,0.67,2.37,0.67
			c0.39,0,0.8-0.02,1.24-0.06s0.94-0.1,1.5-0.17l0.28,2.18c-0.55,0.09-1.08,0.16-1.6,0.21S833.18,438.8,832.59,438.8z"/>
		<path fill="#170B00" d="M844.41,438.8c-1.72,0-3.05-0.56-4.01-1.69s-1.43-2.71-1.43-4.76c0-2.05,0.48-3.64,1.43-4.76
			s2.29-1.68,4.01-1.68c1.73,0,3.06,0.56,4.01,1.68s1.42,2.71,1.42,4.76c0,2.05-0.47,3.63-1.42,4.76S846.13,438.8,844.41,438.8z
			 M844.41,436.58c0.91,0,1.62-0.37,2.12-1.1s0.74-1.77,0.74-3.12c0-1.35-0.25-2.39-0.74-3.12s-1.2-1.1-2.12-1.1
			s-1.62,0.37-2.12,1.1s-0.74,1.77-0.74,3.12c0,1.34,0.25,2.38,0.74,3.12S843.49,436.58,844.41,436.58z"/>
		<path fill="#170B00" d="M852.61,431.35v-2.18h11.72v2.18H852.61z"/>
		<path fill="#170B00" d="M309.07,467.6c-0.94,0-1.74-0.03-2.41-0.08s-1.28-0.14-1.83-0.27l0.28-2.25c0.82,0.13,1.54,0.22,2.17,0.28
			s1.22,0.09,1.79,0.09c1.26,0,2.17-0.12,2.74-0.37s0.85-0.64,0.85-1.18c0-0.38-0.1-0.65-0.3-0.84s-0.51-0.33-0.92-0.43l-2.86-0.73
			c-1.23-0.31-2.13-0.7-2.7-1.16s-0.86-1.16-0.86-2.1c0-1.36,0.52-2.34,1.56-2.95s2.72-0.91,5.04-0.91c0.6,0,1.16,0.02,1.68,0.05
			s1.05,0.1,1.6,0.18l-0.26,2.16c-0.63-0.06-1.19-0.11-1.68-0.13s-0.96-0.04-1.42-0.04c-1.39,0-2.4,0.12-3.02,0.36
			s-0.94,0.63-0.94,1.17c0,0.36,0.13,0.62,0.39,0.78s0.65,0.31,1.18,0.44l2.3,0.56c1.3,0.31,2.26,0.73,2.87,1.25
			s0.91,1.29,0.91,2.29c0,1.34-0.49,2.31-1.46,2.91S311.23,467.6,309.07,467.6z"/>
		<path fill="#170B00" d="M318.94,467.37v-2.04h4.97v2.04H318.94z M319.64,456.99v-2.04h6.52v2.04H319.64z M324.83,452.98
			c-0.48,0-0.88-0.17-1.22-0.51s-0.51-0.75-0.51-1.22c0-0.48,0.17-0.89,0.51-1.23s0.75-0.5,1.22-0.5c0.48,0,0.89,0.17,1.23,0.5
			s0.5,0.75,0.5,1.23c0,0.48-0.17,0.88-0.5,1.22S325.32,452.98,324.83,452.98z M323.67,467.37v-11.72h2.48v11.72H323.67z
			 M325.92,467.37v-2.04h4.05v2.04H325.92z"/>
		<path fill="#170B00" d="M332.44,467.37v-12.42h2.2l0.28,2.63v9.8H332.44z M337.1,467.37v-9.73c0-0.7-0.33-1.05-0.98-1.05
			c-0.8,0-1.2,0.56-1.2,1.69l-0.73-1.78h0.8c0.09-1.19,0.8-1.78,2.13-1.78c0.65,0,1.16,0.22,1.53,0.67s0.56,1.12,0.56,2.03v9.96
			H337.1z M341.39,467.37v-9.49c0-0.86-0.32-1.29-0.96-1.29c-0.81,0-1.22,0.56-1.22,1.69l-0.84-1.78h0.96
			c0.04-0.48,0.23-0.9,0.58-1.25s0.85-0.53,1.51-0.53c0.86,0,1.48,0.23,1.88,0.69s0.59,1.21,0.59,2.24v9.73H341.39z"/>
		<path fill="#170B00" d="M347.16,472.76v-17.81h2.25l0.23,2.63v15.19H347.16z M353.17,467.6c-0.95,0-1.72-0.22-2.3-0.66
			s-0.91-1.05-0.99-1.83h-1.08l0.84-3.54c0,1.28,0.25,2.25,0.76,2.92s1.24,1,2.22,1c1,0,1.76-0.36,2.27-1.07s0.77-1.76,0.77-3.15
			c0-1.47-0.26-2.58-0.77-3.33s-1.27-1.13-2.27-1.13c-0.98,0-1.72,0.33-2.22,1s-0.76,1.64-0.76,2.92l-0.84-3.54h0.96
			c0.11-0.78,0.46-1.39,1.06-1.83s1.38-0.66,2.35-0.66c1.63,0,2.87,0.55,3.7,1.66s1.25,2.74,1.25,4.9c0,2.08-0.42,3.65-1.25,4.72
			S354.8,467.6,353.17,467.6z"/>
		<path fill="#170B00" d="M360.4,451.83v-2.04h3.87v2.04H360.4z M368.13,467.6c-1.44,0-2.48-0.39-3.12-1.17s-0.96-2.03-0.96-3.75
			v-12.89h2.48v12.77c0,0.66,0.06,1.19,0.19,1.61s0.37,0.72,0.73,0.91s0.9,0.29,1.61,0.29c0.65,0,1.48-0.15,2.48-0.45l0.28,2.18
			c-0.63,0.17-1.24,0.3-1.82,0.38S368.8,467.6,368.13,467.6z"/>
		<path fill="#170B00" d="M375.19,467.37v-2.04h4.97v2.04H375.19z M375.89,456.99v-2.04h6.52v2.04H375.89z M381.08,452.98
			c-0.48,0-0.88-0.17-1.22-0.51s-0.51-0.75-0.51-1.22c0-0.48,0.17-0.89,0.51-1.23s0.75-0.5,1.22-0.5c0.48,0,0.89,0.17,1.23,0.5
			s0.5,0.75,0.5,1.23c0,0.48-0.17,0.88-0.5,1.22S381.57,452.98,381.08,452.98z M379.92,467.37v-11.72h2.48v11.72H379.92z
			 M382.17,467.37v-2.04h4.05v2.04H382.17z"/>
		<path fill="#170B00" d="M388.17,459.8v-2.04h11.48v2.04H388.17z M392.09,467.37V456c0-4.3,1.96-6.45,5.88-6.45
			c0.89,0,1.75,0.08,2.58,0.23l-0.26,2.16c-0.49-0.06-0.93-0.11-1.3-0.13s-0.74-0.04-1.09-0.04c-2.22,0-3.33,1.37-3.33,4.1v11.48
			H392.09z"/>
		<path fill="#170B00" d="M407.03,467.37l-4.95-12.42h2.58l4.05,10.55h0.38v1.88H407.03z M402.32,472.99l-0.12-2.23l1.95-0.23
			c0.82-0.1,1.52-0.32,2.1-0.67s1.08-0.85,1.49-1.53s0.78-1.56,1.09-2.65l3.09-10.73h2.58l-3.59,11.32
			c-0.47,1.48-0.99,2.68-1.58,3.59s-1.27,1.59-2.06,2.04s-1.74,0.74-2.85,0.87L402.32,472.99z"/>
		<path fill="#170B00" d="M435.15,467.37l-4.95-12.42h2.58l4.05,10.55h0.38v1.88H435.15z M430.44,472.99l-0.12-2.23l1.95-0.23
			c0.82-0.1,1.52-0.32,2.1-0.67s1.08-0.85,1.49-1.53s0.78-1.56,1.09-2.65l3.09-10.73h2.58l-3.59,11.32
			c-0.47,1.48-0.99,2.68-1.58,3.59s-1.27,1.59-2.06,2.04s-1.74,0.74-2.85,0.87L430.44,472.99z"/>
		<path fill="#170B00" d="M450.66,467.6c-1.72,0-3.05-0.56-4.01-1.69s-1.43-2.71-1.43-4.76c0-2.05,0.48-3.64,1.43-4.76
			s2.29-1.68,4.01-1.68c1.73,0,3.06,0.56,4.01,1.68s1.42,2.71,1.42,4.76c0,2.05-0.47,3.63-1.42,4.76S452.38,467.6,450.66,467.6z
			 M450.66,465.38c0.91,0,1.62-0.37,2.12-1.1s0.74-1.77,0.74-3.12c0-1.35-0.25-2.39-0.74-3.12s-1.2-1.1-2.12-1.1
			s-1.62,0.37-2.12,1.1s-0.74,1.77-0.74,3.12c0,1.34,0.25,2.38,0.74,3.12S449.74,465.38,450.66,465.38z"/>
		<path fill="#170B00" d="M463.5,467.6c-1.3,0-2.31-0.39-3.03-1.17s-1.07-1.87-1.07-3.29v-8.2h2.48v8.2c0,0.71,0.2,1.26,0.61,1.65
			s0.98,0.58,1.71,0.58c0.91,0,1.59-0.29,2.05-0.86s0.69-1.54,0.69-2.89l0.63,3.35h-0.82c-0.2,0.84-0.58,1.49-1.15,1.95
			S464.34,467.6,463.5,467.6z M466.95,463.85v-8.91h2.48v8.2L466.95,463.85z M467.16,467.49l-0.21-2.98v-2.18h2.48v2.79l1.71,0.26
			v1.99L467.16,467.49z"/>
		<path fill="#170B00" d="M472.69,467.37v-2.04h8.3v2.04H472.69z M473.16,456.99v-2.04h4.15l0.23,2.04H473.16z M475.45,467.37
			v-12.42h2.02l0.47,3.56v8.86H475.45z M477.94,462.02l-0.73-3.89h0.96c0.14-2.28,1.28-3.42,3.42-3.42c1.28,0,2.21,0.37,2.79,1.1
			s0.87,1.92,0.87,3.56h-2.46c0-0.91-0.13-1.56-0.4-1.96s-0.71-0.6-1.31-0.6c-1.05,0-1.84,0.45-2.36,1.35
			S477.94,460.36,477.94,462.02z"/>
		<path fill="#170B00" d="M501.02,451.83v-2.04h3.87v2.04H501.02z M508.76,467.6c-1.44,0-2.48-0.39-3.12-1.17s-0.96-2.03-0.96-3.75
			v-12.89h2.48v12.77c0,0.66,0.06,1.19,0.19,1.61s0.37,0.72,0.73,0.91s0.9,0.29,1.61,0.29c0.65,0,1.48-0.15,2.48-0.45l0.28,2.18
			c-0.63,0.17-1.24,0.3-1.82,0.38S509.43,467.6,508.76,467.6z"/>
		<path fill="#170B00" d="M515.81,467.37v-2.04h4.97v2.04H515.81z M516.52,456.99v-2.04h6.52v2.04H516.52z M521.71,452.98
			c-0.48,0-0.88-0.17-1.22-0.51s-0.51-0.75-0.51-1.22c0-0.48,0.17-0.89,0.51-1.23s0.75-0.5,1.22-0.5c0.48,0,0.89,0.17,1.23,0.5
			s0.5,0.75,0.5,1.23c0,0.48-0.17,0.88-0.5,1.22S522.19,452.98,521.71,452.98z M520.55,467.37v-11.72h2.48v11.72H520.55z
			 M522.8,467.37v-2.04h4.05v2.04H522.8z"/>
		<path fill="#170B00" d="M528.8,459.8v-2.04h11.48v2.04H528.8z M532.71,467.37V456c0-4.3,1.96-6.45,5.88-6.45
			c0.89,0,1.75,0.08,2.58,0.23l-0.26,2.16c-0.49-0.06-0.93-0.11-1.3-0.13s-0.74-0.04-1.09-0.04c-2.22,0-3.33,1.37-3.33,4.1v11.48
			H532.71z"/>
		<path fill="#170B00" d="M550.29,467.6c-2.12,0-3.75-0.56-4.9-1.67s-1.73-2.71-1.73-4.8c0-2.03,0.49-3.61,1.46-4.73
			s2.36-1.69,4.14-1.69c1.68,0,2.98,0.51,3.9,1.52s1.38,2.49,1.38,4.43c0,0.57-0.02,1.1-0.07,1.59h-8.72v-1.9h6.54
			c0-1.12-0.27-1.97-0.8-2.57s-1.27-0.9-2.2-0.9c-1.05,0-1.87,0.36-2.46,1.08s-0.87,1.73-0.87,3.05c0,1.44,0.4,2.53,1.2,3.28
			s1.94,1.13,3.42,1.13c0.52,0,1.02-0.03,1.52-0.09s1.01-0.14,1.52-0.24l0.3,2.18c-0.73,0.14-1.41,0.23-2.02,0.27
			S550.76,467.6,550.29,467.6z"/>
		<path fill="#170B00" d="M575.39,467.6c-1.3,0-2.3-0.31-3.01-0.94s-1.07-1.51-1.07-2.65c0-1.31,0.49-2.32,1.47-3.02
			s2.37-1.05,4.15-1.05c0.74,0,1.4,0.04,1.99,0.13s1.1,0.22,1.55,0.4l-0.52,1.69c-0.52-0.12-1.04-0.19-1.54-0.21
			s-1.01-0.03-1.54-0.03c-2.16,0-3.23,0.66-3.23,1.97c0,0.55,0.19,0.97,0.56,1.27s0.9,0.45,1.58,0.45c0.77,0,1.42-0.13,1.94-0.4
			s0.91-0.61,1.17-1.02s0.39-0.84,0.39-1.28v-1.36l0.73,3.19h-0.98l0.4-0.38c0,0.72-0.17,1.32-0.5,1.8s-0.8,0.84-1.4,1.08
			S576.21,467.6,575.39,467.6z M579.77,467.49l-0.16-3.68l-0.33-1.03v-3.21c0-0.83-0.29-1.44-0.87-1.82s-1.45-0.6-2.6-0.63
			l-2.98-0.08l0.23-2.2l2.51,0.04c2.05,0.03,3.58,0.47,4.58,1.33s1.49,2.1,1.49,3.74v5.18l2.11,0.26v1.99L579.77,467.49z"/>
		<path fill="#170B00" d="M606.54,467.6c-2.12,0-3.75-0.56-4.9-1.67s-1.73-2.71-1.73-4.8c0-2.03,0.54-3.61,1.63-4.73
			s2.65-1.69,4.67-1.69c1.21,0,2.25,0.22,3.11,0.67s1.48,1.08,1.85,1.9l-1.91,1.44c-0.35-0.57-0.8-1.01-1.35-1.32
			s-1.14-0.47-1.79-0.47c-1.17,0-2.08,0.35-2.73,1.06s-0.97,1.71-0.97,3.02c0,1.41,0.38,2.49,1.14,3.24s1.85,1.12,3.26,1.12
			c0.58,0,1.16-0.03,1.73-0.08s1.14-0.13,1.69-0.22l0.28,2.18c-0.64,0.14-1.3,0.23-1.99,0.28S607.19,467.6,606.54,467.6z"/>
		<path fill="#170B00" d="M618.19,467.6c-1.3,0-2.31-0.39-3.03-1.17s-1.07-1.87-1.07-3.29v-8.2h2.48v8.2c0,0.71,0.2,1.26,0.61,1.65
			s0.98,0.58,1.71,0.58c0.91,0,1.59-0.29,2.05-0.86s0.69-1.54,0.69-2.89l0.63,3.35h-0.82c-0.2,0.84-0.58,1.49-1.15,1.95
			S619.02,467.6,618.19,467.6z M621.63,463.85v-8.91h2.48v8.2L621.63,463.85z M621.84,467.49l-0.21-2.98v-2.18h2.48v2.79l1.71,0.26
			v1.99L621.84,467.49z"/>
		<path fill="#170B00" d="M627.38,467.37v-2.04h8.3v2.04H627.38z M627.84,456.99v-2.04h4.15l0.23,2.04H627.84z M630.14,467.37
			v-12.42h2.02l0.47,3.56v8.86H630.14z M632.63,462.02l-0.73-3.89h0.96c0.14-2.28,1.28-3.42,3.42-3.42c1.28,0,2.21,0.37,2.79,1.1
			s0.87,1.92,0.87,3.56h-2.46c0-0.91-0.13-1.56-0.4-1.96s-0.71-0.6-1.31-0.6c-1.05,0-1.84,0.45-2.36,1.35
			S632.63,460.36,632.63,462.02z"/>
		<path fill="#170B00" d="M645.7,467.6c-1.3,0-2.3-0.31-3.01-0.94s-1.07-1.51-1.07-2.65c0-1.31,0.49-2.32,1.47-3.02
			s2.37-1.05,4.15-1.05c0.74,0,1.4,0.04,1.99,0.13s1.1,0.22,1.55,0.4l-0.52,1.69c-0.52-0.12-1.04-0.19-1.54-0.21
			s-1.01-0.03-1.54-0.03c-2.16,0-3.23,0.66-3.23,1.97c0,0.55,0.19,0.97,0.56,1.27s0.9,0.45,1.58,0.45c0.77,0,1.42-0.13,1.94-0.4
			s0.91-0.61,1.17-1.02s0.39-0.84,0.39-1.28v-1.36l0.73,3.19h-0.98l0.4-0.38c0,0.72-0.17,1.32-0.5,1.8s-0.8,0.84-1.4,1.08
			S646.52,467.6,645.7,467.6z M650.09,467.49l-0.16-3.68l-0.33-1.03v-3.21c0-0.83-0.29-1.44-0.87-1.82s-1.45-0.6-2.6-0.63
			l-2.98-0.08l0.23-2.2l2.51,0.04c2.05,0.03,3.58,0.47,4.58,1.33s1.49,2.1,1.49,3.74v5.18l2.11,0.26v1.99L650.09,467.49z"/>
		<path fill="#170B00" d="M655.38,456.99v-2.04h11.25v2.04H655.38z M658.5,461.51V451.2h2.48v10.31H658.5z M663.84,467.6
			c-1.88,0-3.24-0.39-4.08-1.17s-1.26-2.03-1.26-3.75v-2.11h2.48v1.99c0,0.98,0.24,1.7,0.72,2.14s1.27,0.67,2.37,0.67
			c0.39,0,0.8-0.02,1.24-0.06s0.94-0.1,1.5-0.17l0.28,2.18c-0.55,0.09-1.08,0.16-1.6,0.21S664.43,467.6,663.84,467.6z"/>
		<path fill="#170B00" d="M676.85,467.6c-2.12,0-3.75-0.56-4.9-1.67s-1.73-2.71-1.73-4.8c0-2.03,0.49-3.61,1.46-4.73
			s2.36-1.69,4.14-1.69c1.68,0,2.98,0.51,3.9,1.52s1.38,2.49,1.38,4.43c0,0.57-0.02,1.1-0.07,1.59h-8.72v-1.9h6.54
			c0-1.12-0.27-1.97-0.8-2.57s-1.27-0.9-2.2-0.9c-1.05,0-1.87,0.36-2.46,1.08s-0.87,1.73-0.87,3.05c0,1.44,0.4,2.53,1.2,3.28
			s1.94,1.13,3.42,1.13c0.52,0,1.02-0.03,1.52-0.09s1.01-0.14,1.52-0.24l0.3,2.18c-0.73,0.14-1.41,0.23-2.02,0.27
			S677.32,467.6,676.85,467.6z"/>
		<path fill="#170B00" d="M688.77,467.6c-1.63,0-2.86-0.54-3.7-1.61s-1.26-2.64-1.26-4.72c0-2.16,0.42-3.79,1.26-4.9
			s2.07-1.66,3.7-1.66c0.93,0,1.69,0.22,2.27,0.66s0.92,1.05,1.03,1.83h0.96l-0.73,3.54c0-1.28-0.25-2.25-0.76-2.92s-1.24-1-2.22-1
			c-1,0-1.76,0.38-2.27,1.13s-0.77,1.86-0.77,3.33c0,1.39,0.26,2.44,0.77,3.15s1.27,1.07,2.27,1.07c0.98,0,1.72-0.33,2.22-1
			s0.76-1.64,0.76-2.92l0.84,3.54h-1.08c-0.08,0.78-0.41,1.39-0.99,1.83S689.72,467.6,688.77,467.6z M692.55,467.49l-0.26-2.44
			v-15.26h2.48v17.58L692.55,467.49z"/>
		<path fill="#170B00" d="M697.9,451.83v-2.04h3.87v2.04H697.9z M705.63,467.6c-1.44,0-2.48-0.39-3.12-1.17s-0.96-2.03-0.96-3.75
			v-12.89h2.48v12.77c0,0.66,0.06,1.19,0.19,1.61s0.37,0.72,0.73,0.91s0.9,0.29,1.61,0.29c0.65,0,1.48-0.15,2.48-0.45l0.28,2.18
			c-0.63,0.17-1.24,0.3-1.82,0.38S706.3,467.6,705.63,467.6z"/>
		<path fill="#170B00" d="M712.69,467.37v-2.04h4.97v2.04H712.69z M713.39,456.99v-2.04h6.52v2.04H713.39z M718.58,452.98
			c-0.48,0-0.88-0.17-1.22-0.51s-0.51-0.75-0.51-1.22c0-0.48,0.17-0.89,0.51-1.23s0.75-0.5,1.22-0.5c0.48,0,0.89,0.17,1.23,0.5
			s0.5,0.75,0.5,1.23c0,0.48-0.17,0.88-0.5,1.22S719.07,452.98,718.58,452.98z M717.42,467.37v-11.72h2.48v11.72H717.42z
			 M719.67,467.37v-2.04h4.05v2.04H719.67z"/>
		<path fill="#170B00" d="M726.84,467.37v-12.42h2.25l0.23,2.63v9.8H726.84z M734.48,467.37v-8.09c0-0.75-0.2-1.33-0.59-1.73
			s-0.94-0.61-1.64-0.61c-1.95,0-2.93,1.15-2.93,3.45l-0.73-3.19h0.96c0.07-0.84,0.38-1.46,0.91-1.87s1.33-0.62,2.37-0.62
			c1.31,0,2.33,0.4,3.05,1.2s1.08,1.92,1.08,3.38v8.09H734.48z"/>
		<path fill="#170B00" d="M747.16,467.6c-2.12,0-3.75-0.56-4.9-1.67s-1.73-2.71-1.73-4.8c0-2.03,0.49-3.61,1.46-4.73
			s2.36-1.69,4.14-1.69c1.68,0,2.98,0.51,3.9,1.52s1.38,2.49,1.38,4.43c0,0.57-0.02,1.1-0.07,1.59h-8.72v-1.9h6.54
			c0-1.12-0.27-1.97-0.8-2.57s-1.27-0.9-2.2-0.9c-1.05,0-1.87,0.36-2.46,1.08s-0.87,1.73-0.87,3.05c0,1.44,0.4,2.53,1.2,3.28
			s1.94,1.13,3.42,1.13c0.52,0,1.02-0.03,1.52-0.09s1.01-0.14,1.52-0.24l0.3,2.18c-0.73,0.14-1.41,0.23-2.02,0.27
			S747.63,467.6,747.16,467.6z"/>
		<path fill="#170B00" d="M774.09,467.6c-1.72,0-3.05-0.56-4.01-1.69s-1.43-2.71-1.43-4.76c0-2.05,0.48-3.64,1.43-4.76
			s2.29-1.68,4.01-1.68c1.73,0,3.06,0.56,4.01,1.68s1.42,2.71,1.42,4.76c0,2.05-0.47,3.63-1.42,4.76S775.82,467.6,774.09,467.6z
			 M774.09,465.38c0.91,0,1.62-0.37,2.12-1.1s0.74-1.77,0.74-3.12c0-1.35-0.25-2.39-0.74-3.12s-1.2-1.1-2.12-1.1
			s-1.62,0.37-2.12,1.1s-0.74,1.77-0.74,3.12c0,1.34,0.25,2.38,0.74,3.12S773.18,465.38,774.09,465.38z"/>
		<path fill="#170B00" d="M781.92,459.8v-2.04h11.48v2.04H781.92z M785.84,467.37V456c0-4.3,1.96-6.45,5.88-6.45
			c0.89,0,1.75,0.08,2.58,0.23l-0.26,2.16c-0.49-0.06-0.93-0.11-1.3-0.13s-0.74-0.04-1.09-0.04c-2.22,0-3.33,1.37-3.33,4.1v11.48
			H785.84z"/>
		<path fill="#170B00" d="M815.32,467.6c-0.94,0-1.74-0.03-2.41-0.08s-1.28-0.14-1.83-0.27l0.28-2.25c0.82,0.13,1.54,0.22,2.17,0.28
			s1.22,0.09,1.79,0.09c1.26,0,2.17-0.12,2.74-0.37s0.85-0.64,0.85-1.18c0-0.38-0.1-0.65-0.3-0.84s-0.51-0.33-0.92-0.43l-2.86-0.73
			c-1.23-0.31-2.13-0.7-2.7-1.16s-0.86-1.16-0.86-2.1c0-1.36,0.52-2.34,1.56-2.95s2.72-0.91,5.04-0.91c0.6,0,1.16,0.02,1.68,0.05
			s1.05,0.1,1.6,0.18l-0.26,2.16c-0.63-0.06-1.19-0.11-1.68-0.13s-0.96-0.04-1.42-0.04c-1.39,0-2.4,0.12-3.02,0.36
			s-0.94,0.63-0.94,1.17c0,0.36,0.13,0.62,0.39,0.78s0.65,0.31,1.18,0.44l2.3,0.56c1.3,0.31,2.26,0.73,2.87,1.25
			s0.91,1.29,0.91,2.29c0,1.34-0.49,2.31-1.46,2.91S817.48,467.6,815.32,467.6z"/>
		<path fill="#170B00" d="M830.34,467.6c-1.72,0-3.05-0.56-4.01-1.69s-1.43-2.71-1.43-4.76c0-2.05,0.48-3.64,1.43-4.76
			s2.29-1.68,4.01-1.68c1.73,0,3.06,0.56,4.01,1.68s1.42,2.71,1.42,4.76c0,2.05-0.47,3.63-1.42,4.76S832.07,467.6,830.34,467.6z
			 M830.34,465.38c0.91,0,1.62-0.37,2.12-1.1s0.74-1.77,0.74-3.12c0-1.35-0.25-2.39-0.74-3.12s-1.2-1.1-2.12-1.1
			s-1.62,0.37-2.12,1.1s-0.74,1.77-0.74,3.12c0,1.34,0.25,2.38,0.74,3.12S829.43,465.38,830.34,465.38z"/>
		<path fill="#170B00" d="M838.52,451.83v-2.04h3.87v2.04H838.52z M846.26,467.6c-1.44,0-2.48-0.39-3.12-1.17s-0.96-2.03-0.96-3.75
			v-12.89h2.48v12.77c0,0.66,0.06,1.19,0.19,1.61s0.37,0.72,0.73,0.91s0.9,0.29,1.61,0.29c0.65,0,1.48-0.15,2.48-0.45l0.28,2.18
			c-0.63,0.17-1.24,0.3-1.82,0.38S846.93,467.6,846.26,467.6z"/>
		<path fill="#170B00" d="M853.31,467.37v-2.04h4.97v2.04H853.31z M854.02,456.99v-2.04h6.52v2.04H854.02z M859.21,452.98
			c-0.48,0-0.88-0.17-1.22-0.51s-0.51-0.75-0.51-1.22c0-0.48,0.17-0.89,0.51-1.23s0.75-0.5,1.22-0.5c0.48,0,0.89,0.17,1.23,0.5
			s0.5,0.75,0.5,1.23c0,0.48-0.17,0.88-0.5,1.22S859.69,452.98,859.21,452.98z M858.05,467.37v-11.72h2.48v11.72H858.05z
			 M860.3,467.37v-2.04h4.05v2.04H860.3z"/>
		<path fill="#170B00" d="M866.67,460.15v-2.18h11.72v2.18H866.67z"/>
		<path fill="#170B00" d="M303.82,485.79v-2.04h11.25v2.04H303.82z M306.94,490.31V480h2.48v10.31H306.94z M312.28,496.4
			c-1.88,0-3.24-0.39-4.08-1.17s-1.26-2.03-1.26-3.75v-2.11h2.48v1.99c0,0.98,0.24,1.7,0.72,2.14s1.27,0.67,2.37,0.67
			c0.39,0,0.8-0.02,1.24-0.06s0.94-0.1,1.5-0.17l0.28,2.18c-0.55,0.09-1.08,0.16-1.6,0.21S312.87,496.4,312.28,496.4z"/>
		<path fill="#170B00" d="M318.94,496.17v-2.04h4.97v2.04H318.94z M319.64,485.79v-2.04h6.52v2.04H319.64z M324.83,481.78
			c-0.48,0-0.88-0.17-1.22-0.51s-0.51-0.75-0.51-1.22c0-0.48,0.17-0.89,0.51-1.23s0.75-0.5,1.22-0.5c0.48,0,0.89,0.17,1.23,0.5
			s0.5,0.75,0.5,1.23c0,0.48-0.17,0.88-0.5,1.22S325.32,481.78,324.83,481.78z M323.67,496.17v-11.72h2.48v11.72H323.67z
			 M325.92,496.17v-2.04h4.05v2.04H325.92z"/>
		<path fill="#170B00" d="M338.16,496.4c-1.72,0-3.05-0.56-4.01-1.69s-1.43-2.71-1.43-4.76c0-2.05,0.48-3.64,1.43-4.76
			s2.29-1.68,4.01-1.68c1.73,0,3.06,0.56,4.01,1.68s1.42,2.71,1.42,4.76c0,2.05-0.47,3.63-1.42,4.76S339.88,496.4,338.16,496.4z
			 M338.16,494.18c0.91,0,1.62-0.37,2.12-1.1s0.74-1.77,0.74-3.12c0-1.35-0.25-2.39-0.74-3.12s-1.2-1.1-2.12-1.1
			s-1.62,0.37-2.12,1.1s-0.74,1.77-0.74,3.12c0,1.34,0.25,2.38,0.74,3.12S337.24,494.18,338.16,494.18z"/>
		<path fill="#170B00" d="M347.16,496.17v-12.42h2.25l0.23,2.63v9.8H347.16z M354.8,496.17v-8.09c0-0.75-0.2-1.33-0.59-1.73
			s-0.94-0.61-1.64-0.61c-1.95,0-2.93,1.15-2.93,3.45l-0.73-3.19h0.96c0.07-0.84,0.38-1.46,0.91-1.87s1.33-0.62,2.37-0.62
			c1.31,0,2.33,0.4,3.05,1.2s1.08,1.92,1.08,3.38v8.09H354.8z"/>
		<path fill="#170B00" d="M365.32,496.4c-0.94,0-1.74-0.03-2.41-0.08s-1.28-0.14-1.83-0.27l0.28-2.25c0.82,0.13,1.54,0.22,2.17,0.28
			s1.22,0.09,1.79,0.09c1.26,0,2.17-0.12,2.74-0.37s0.85-0.64,0.85-1.18c0-0.38-0.1-0.65-0.3-0.84s-0.51-0.33-0.92-0.43l-2.86-0.73
			c-1.23-0.31-2.13-0.7-2.7-1.16s-0.86-1.16-0.86-2.1c0-1.36,0.52-2.34,1.56-2.95s2.72-0.91,5.04-0.91c0.6,0,1.16,0.02,1.68,0.05
			s1.05,0.1,1.6,0.18l-0.26,2.16c-0.63-0.06-1.19-0.11-1.68-0.13s-0.96-0.04-1.42-0.04c-1.39,0-2.4,0.12-3.02,0.36
			s-0.94,0.63-0.94,1.17c0,0.36,0.13,0.62,0.39,0.78s0.65,0.31,1.18,0.44l2.3,0.56c1.3,0.31,2.26,0.73,2.87,1.25
			s0.91,1.29,0.91,2.29c0,1.34-0.49,2.31-1.46,2.91S367.48,496.4,365.32,496.4z"/>
		<path fill="#170B00" d="M389.6,496.17l-1.41-12.42h2.34l0.94,10.55h0.21l1.46-10.55h2.27l-1.04,2.55h-0.16l-1.45,9.87H389.6z
			 M395.81,496.17l-1.45-9.87h-0.19l-1.02-2.55h2.27l1.46,10.55h0.21l1.05-10.55h2.46l-1.76,12.42H395.81z"/>
		<path fill="#170B00" d="M403.31,496.17v-2.04h4.97v2.04H403.31z M404.02,485.79v-2.04h6.52v2.04H404.02z M409.21,481.78
			c-0.48,0-0.88-0.17-1.22-0.51s-0.51-0.75-0.51-1.22c0-0.48,0.17-0.89,0.51-1.23s0.75-0.5,1.22-0.5c0.48,0,0.89,0.17,1.23,0.5
			s0.5,0.75,0.5,1.23c0,0.48-0.17,0.88-0.5,1.22S409.69,481.78,409.21,481.78z M408.05,496.17v-11.72h2.48v11.72H408.05z
			 M410.3,496.17v-2.04h4.05v2.04H410.3z"/>
		<path fill="#170B00" d="M416.32,485.79v-2.04h11.25v2.04H416.32z M419.44,490.31V480h2.48v10.31H419.44z M424.78,496.4
			c-1.88,0-3.24-0.39-4.08-1.17s-1.26-2.03-1.26-3.75v-2.11h2.48v1.99c0,0.98,0.24,1.7,0.72,2.14s1.27,0.67,2.37,0.67
			c0.39,0,0.8-0.02,1.24-0.06s0.94-0.1,1.5-0.17l0.28,2.18c-0.55,0.09-1.08,0.16-1.6,0.21S425.37,496.4,424.78,496.4z"/>
		<path fill="#170B00" d="M431.53,496.17v-17.58h2.48v17.58H431.53z M439.17,496.17v-8.09c0-0.79-0.2-1.4-0.59-1.82
			s-0.94-0.64-1.64-0.64c-1.95,0-2.93,1.19-2.93,3.56l-0.73-3.19h0.96c0.07-0.84,0.38-1.46,0.91-1.87s1.33-0.62,2.37-0.62
			c1.31,0,2.33,0.4,3.05,1.2s1.08,1.92,1.08,3.38v8.09H439.17z"/>
		<path fill="#170B00" d="M445.5,496.17v-2.04h4.97v2.04H445.5z M446.2,485.79v-2.04h6.52v2.04H446.2z M451.39,481.78
			c-0.48,0-0.88-0.17-1.22-0.51s-0.51-0.75-0.51-1.22c0-0.48,0.17-0.89,0.51-1.23s0.75-0.5,1.22-0.5c0.48,0,0.89,0.17,1.23,0.5
			s0.5,0.75,0.5,1.23c0,0.48-0.17,0.88-0.5,1.22S451.88,481.78,451.39,481.78z M450.23,496.17v-11.72h2.48v11.72H450.23z
			 M452.48,496.17v-2.04h4.05v2.04H452.48z"/>
		<path fill="#170B00" d="M459.66,496.17v-12.42h2.25l0.23,2.63v9.8H459.66z M467.3,496.17v-8.09c0-0.75-0.2-1.33-0.59-1.73
			s-0.94-0.61-1.64-0.61c-1.95,0-2.93,1.15-2.93,3.45l-0.73-3.19h0.96c0.07-0.84,0.38-1.46,0.91-1.87s1.33-0.62,2.37-0.62
			c1.31,0,2.33,0.4,3.05,1.2s1.08,1.92,1.08,3.38v8.09H467.3z"/>
		<path fill="#170B00" d="M472.57,485.79v-2.04h11.25v2.04H472.57z M475.69,490.31V480h2.48v10.31H475.69z M481.03,496.4
			c-1.88,0-3.24-0.39-4.08-1.17s-1.26-2.03-1.26-3.75v-2.11h2.48v1.99c0,0.98,0.24,1.7,0.72,2.14s1.27,0.67,2.37,0.67
			c0.39,0,0.8-0.02,1.24-0.06s0.94-0.1,1.5-0.17l0.28,2.18c-0.55,0.09-1.08,0.16-1.6,0.21S481.62,496.4,481.03,496.4z"/>
		<path fill="#170B00" d="M491.63,496.4c-1.3,0-2.31-0.39-3.03-1.17s-1.07-1.87-1.07-3.29v-8.2h2.48v8.2c0,0.71,0.2,1.26,0.61,1.65
			s0.98,0.58,1.71,0.58c0.91,0,1.59-0.29,2.05-0.86s0.69-1.54,0.69-2.89l0.63,3.35h-0.82c-0.2,0.84-0.58,1.49-1.15,1.95
			S492.46,496.4,491.63,496.4z M495.07,492.65v-8.91h2.48v8.2L495.07,492.65z M495.28,496.29l-0.21-2.98v-2.18h2.48v2.79l1.71,0.26
			v1.99L495.28,496.29z"/>
		<path fill="#170B00" d="M500.7,485.79v-2.04h11.25v2.04H500.7z M503.81,490.31V480h2.48v10.31H503.81z M509.16,496.4
			c-1.88,0-3.24-0.39-4.08-1.17s-1.26-2.03-1.26-3.75v-2.11h2.48v1.99c0,0.98,0.24,1.7,0.72,2.14s1.27,0.67,2.37,0.67
			c0.39,0,0.8-0.02,1.24-0.06s0.94-0.1,1.5-0.17l0.28,2.18c-0.55,0.09-1.08,0.16-1.6,0.21S509.74,496.4,509.16,496.4z"/>
		<path fill="#170B00" d="M515.81,496.17v-2.04h4.97v2.04H515.81z M516.52,485.79v-2.04h6.52v2.04H516.52z M521.71,481.78
			c-0.48,0-0.88-0.17-1.22-0.51s-0.51-0.75-0.51-1.22c0-0.48,0.17-0.89,0.51-1.23s0.75-0.5,1.22-0.5c0.48,0,0.89,0.17,1.23,0.5
			s0.5,0.75,0.5,1.23c0,0.48-0.17,0.88-0.5,1.22S522.19,481.78,521.71,481.78z M520.55,496.17v-11.72h2.48v11.72H520.55z
			 M522.8,496.17v-2.04h4.05v2.04H522.8z"/>
		<path fill="#170B00" d="M533.38,496.17l-4.44-12.42h2.65l3.34,10.31h0.21l3.34-10.31h2.65l-4.44,12.42H533.38z"/>
		<path fill="#170B00" d="M550.29,496.4c-2.12,0-3.75-0.56-4.9-1.67s-1.73-2.71-1.73-4.8c0-2.03,0.49-3.61,1.46-4.73
			s2.36-1.69,4.14-1.69c1.68,0,2.98,0.51,3.9,1.52s1.38,2.49,1.38,4.43c0,0.57-0.02,1.1-0.07,1.59h-8.72v-1.9h6.54
			c0-1.12-0.27-1.97-0.8-2.57s-1.27-0.9-2.2-0.9c-1.05,0-1.87,0.36-2.46,1.08s-0.87,1.73-0.87,3.05c0,1.44,0.4,2.53,1.2,3.28
			s1.94,1.13,3.42,1.13c0.52,0,1.02-0.03,1.52-0.09s1.01-0.14,1.52-0.24l0.3,2.18c-0.73,0.14-1.41,0.23-2.02,0.27
			S550.76,496.4,550.29,496.4z"/>
		<path fill="#170B00" d="M576.27,496.4c-1.63,0-2.86-0.54-3.7-1.61s-1.26-2.64-1.26-4.72c0-2.16,0.42-3.79,1.26-4.9
			s2.07-1.66,3.7-1.66c0.93,0,1.69,0.22,2.27,0.66s0.92,1.05,1.03,1.83h0.96l-0.73,3.54c0-1.28-0.25-2.25-0.76-2.92s-1.24-1-2.22-1
			c-1,0-1.76,0.38-2.27,1.13s-0.77,1.86-0.77,3.33c0,1.39,0.26,2.44,0.77,3.15s1.27,1.07,2.27,1.07c0.98,0,1.72-0.33,2.22-1
			s0.76-1.64,0.76-2.92l0.84,3.54h-1.08c-0.08,0.78-0.41,1.39-0.99,1.83S577.22,496.4,576.27,496.4z M580.05,496.29l-0.26-2.44
			v-15.26h2.48v17.58L580.05,496.29z"/>
		<path fill="#170B00" d="M592.48,496.4c-2.12,0-3.75-0.56-4.9-1.67s-1.73-2.71-1.73-4.8c0-2.03,0.49-3.61,1.46-4.73
			s2.36-1.69,4.14-1.69c1.68,0,2.98,0.51,3.9,1.52s1.38,2.49,1.38,4.43c0,0.57-0.02,1.1-0.07,1.59h-8.72v-1.9h6.54
			c0-1.12-0.27-1.97-0.8-2.57s-1.27-0.9-2.2-0.9c-1.05,0-1.87,0.36-2.46,1.08s-0.87,1.73-0.87,3.05c0,1.44,0.4,2.53,1.2,3.28
			s1.94,1.13,3.42,1.13c0.52,0,1.02-0.03,1.52-0.09s1.01-0.14,1.52-0.24l0.3,2.18c-0.73,0.14-1.41,0.23-2.02,0.27
			S592.95,496.4,592.48,496.4z"/>
		<path fill="#170B00" d="M604.38,496.4c-0.94,0-1.74-0.03-2.41-0.08s-1.28-0.14-1.83-0.27l0.28-2.25c0.82,0.13,1.54,0.22,2.17,0.28
			s1.22,0.09,1.79,0.09c1.26,0,2.17-0.12,2.74-0.37s0.85-0.64,0.85-1.18c0-0.38-0.1-0.65-0.3-0.84s-0.51-0.33-0.92-0.43l-2.86-0.73
			c-1.23-0.31-2.13-0.7-2.7-1.16s-0.86-1.16-0.86-2.1c0-1.36,0.52-2.34,1.56-2.95s2.72-0.91,5.04-0.91c0.6,0,1.16,0.02,1.68,0.05
			s1.05,0.1,1.6,0.18l-0.26,2.16c-0.63-0.06-1.19-0.11-1.68-0.13s-0.96-0.04-1.42-0.04c-1.39,0-2.4,0.12-3.02,0.36
			s-0.94,0.63-0.94,1.17c0,0.36,0.13,0.62,0.39,0.78s0.65,0.31,1.18,0.44l2.3,0.56c1.3,0.31,2.26,0.73,2.87,1.25
			s0.91,1.29,0.91,2.29c0,1.34-0.49,2.31-1.46,2.91S606.54,496.4,604.38,496.4z"/>
		<path fill="#170B00" d="M614.25,496.17v-2.04h4.97v2.04H614.25z M614.95,485.79v-2.04h6.52v2.04H614.95z M620.14,481.78
			c-0.48,0-0.88-0.17-1.22-0.51s-0.51-0.75-0.51-1.22c0-0.48,0.17-0.89,0.51-1.23s0.75-0.5,1.22-0.5c0.48,0,0.89,0.17,1.23,0.5
			s0.5,0.75,0.5,1.23c0,0.48-0.17,0.88-0.5,1.22S620.63,481.78,620.14,481.78z M618.98,496.17v-11.72h2.48v11.72H618.98z
			 M621.23,496.17v-2.04h4.05v2.04H621.23z"/>
		<path fill="#170B00" d="M632.52,496.4c-1.63,0-2.86-0.54-3.7-1.61s-1.26-2.64-1.26-4.72c0-2.16,0.42-3.79,1.26-4.9
			s2.07-1.66,3.7-1.66c0.97,0,1.75,0.22,2.36,0.66s0.95,1.05,1.05,1.83h0.96l-0.84,3.54c0-1.28-0.25-2.25-0.76-2.92s-1.24-1-2.22-1
			c-1,0-1.76,0.38-2.27,1.13s-0.77,1.86-0.77,3.33c0,1.39,0.26,2.44,0.77,3.15s1.27,1.07,2.27,1.07c0.98,0,1.72-0.33,2.22-1
			s0.76-1.64,0.76-2.92l0.84,3.54h-1.08c-0.08,0.78-0.41,1.39-0.99,1.83S633.47,496.4,632.52,496.4z M628.57,501.77l-0.12-2.27
			l3.98-0.12c1.26-0.04,2.17-0.39,2.74-1.04s0.86-1.62,0.87-2.89v-9.07l0.23-2.63h2.25v11.32c0,2.21-0.5,3.84-1.51,4.9
			s-2.61,1.62-4.82,1.69L628.57,501.77z"/>
		<path fill="#170B00" d="M642.47,496.17v-12.42h2.25l0.23,2.63v9.8H642.47z M650.11,496.17v-8.09c0-0.75-0.2-1.33-0.59-1.73
			s-0.94-0.61-1.64-0.61c-1.95,0-2.93,1.15-2.93,3.45l-0.73-3.19h0.96c0.07-0.84,0.38-1.46,0.91-1.87s1.33-0.62,2.37-0.62
			c1.31,0,2.33,0.4,3.05,1.2s1.08,1.92,1.08,3.38v8.09H650.11z"/>
		<path fill="#170B00" d="M673.83,496.4c-1.3,0-2.3-0.31-3.01-0.94s-1.07-1.51-1.07-2.65c0-1.31,0.49-2.32,1.47-3.02
			s2.37-1.05,4.15-1.05c0.74,0,1.4,0.04,1.99,0.13s1.1,0.22,1.55,0.4l-0.52,1.69c-0.52-0.12-1.04-0.19-1.54-0.21
			s-1.01-0.03-1.54-0.03c-2.16,0-3.23,0.66-3.23,1.97c0,0.55,0.19,0.97,0.56,1.27s0.9,0.45,1.58,0.45c0.77,0,1.42-0.13,1.94-0.4
			s0.91-0.61,1.17-1.02s0.39-0.84,0.39-1.28v-1.36l0.73,3.19h-0.98l0.4-0.38c0,0.72-0.17,1.32-0.5,1.8s-0.8,0.84-1.4,1.08
			S674.65,496.4,673.83,496.4z M678.21,496.29l-0.16-3.68l-0.33-1.03v-3.21c0-0.83-0.29-1.44-0.87-1.82s-1.45-0.6-2.6-0.63
			l-2.98-0.08l0.23-2.2l2.51,0.04c2.05,0.03,3.58,0.47,4.58,1.33s1.49,2.1,1.49,3.74v5.18l2.11,0.26v1.99L678.21,496.29z"/>
		<path fill="#170B00" d="M684.66,496.17v-12.42h2.25l0.23,2.63v9.8H684.66z M692.3,496.17v-8.09c0-0.75-0.2-1.33-0.59-1.73
			s-0.94-0.61-1.64-0.61c-1.95,0-2.93,1.15-2.93,3.45l-0.73-3.19h0.96c0.07-0.84,0.38-1.46,0.91-1.87s1.33-0.62,2.37-0.62
			c1.31,0,2.33,0.4,3.05,1.2s1.08,1.92,1.08,3.38v8.09H692.3z"/>
		<path fill="#170B00" d="M702.83,496.4c-1.63,0-2.86-0.54-3.7-1.61s-1.26-2.64-1.26-4.72c0-2.16,0.42-3.79,1.26-4.9
			s2.07-1.66,3.7-1.66c0.93,0,1.69,0.22,2.27,0.66s0.92,1.05,1.03,1.83h0.96l-0.73,3.54c0-1.28-0.25-2.25-0.76-2.92s-1.24-1-2.22-1
			c-1,0-1.76,0.38-2.27,1.13s-0.77,1.86-0.77,3.33c0,1.39,0.26,2.44,0.77,3.15s1.27,1.07,2.27,1.07c0.98,0,1.72-0.33,2.22-1
			s0.76-1.64,0.76-2.92l0.84,3.54h-1.08c-0.08,0.78-0.41,1.39-0.99,1.83S703.79,496.4,702.83,496.4z M706.62,496.29l-0.26-2.44
			v-15.26h2.48v17.58L706.62,496.29z"/>
		<path fill="#170B00" d="M726.84,501.56v-17.81h2.25l0.23,2.63v15.19H726.84z M732.86,496.4c-0.95,0-1.72-0.22-2.3-0.66
			s-0.91-1.05-0.99-1.83h-1.08l0.84-3.54c0,1.28,0.25,2.25,0.76,2.92s1.24,1,2.22,1c1,0,1.76-0.36,2.27-1.07s0.77-1.76,0.77-3.15
			c0-1.47-0.26-2.58-0.77-3.33s-1.27-1.13-2.27-1.13c-0.98,0-1.72,0.33-2.22,1s-0.76,1.64-0.76,2.92l-0.84-3.54h0.96
			c0.11-0.78,0.46-1.39,1.06-1.83s1.38-0.66,2.35-0.66c1.63,0,2.87,0.55,3.7,1.66s1.25,2.74,1.25,4.9c0,2.08-0.42,3.65-1.25,4.72
			S734.49,496.4,732.86,496.4z"/>
		<path fill="#170B00" d="M745.97,496.4c-1.72,0-3.05-0.56-4.01-1.69s-1.43-2.71-1.43-4.76c0-2.05,0.48-3.64,1.43-4.76
			s2.29-1.68,4.01-1.68c1.73,0,3.06,0.56,4.01,1.68s1.42,2.71,1.42,4.76c0,2.05-0.47,3.63-1.42,4.76S747.7,496.4,745.97,496.4z
			 M745.97,494.18c0.91,0,1.62-0.37,2.12-1.1s0.74-1.77,0.74-3.12c0-1.35-0.25-2.39-0.74-3.12s-1.2-1.1-2.12-1.1
			s-1.62,0.37-2.12,1.1s-0.74,1.77-0.74,3.12c0,1.34,0.25,2.38,0.74,3.12S745.05,494.18,745.97,494.18z"/>
		<path fill="#170B00" d="M755.23,496.17l-1.41-12.42h2.34l0.94,10.55h0.21l1.46-10.55h2.27l-1.04,2.55h-0.16l-1.45,9.87H755.23z
			 M761.44,496.17l-1.45-9.87h-0.19l-1.02-2.55h2.27l1.46,10.55h0.21l1.05-10.55h2.46l-1.76,12.42H761.44z"/>
		<path fill="#170B00" d="M775.29,496.4c-2.12,0-3.75-0.56-4.9-1.67s-1.73-2.71-1.73-4.8c0-2.03,0.49-3.61,1.46-4.73
			s2.36-1.69,4.14-1.69c1.68,0,2.98,0.51,3.9,1.52s1.38,2.49,1.38,4.43c0,0.57-0.02,1.1-0.07,1.59h-8.72v-1.9h6.54
			c0-1.12-0.27-1.97-0.8-2.57s-1.27-0.9-2.2-0.9c-1.05,0-1.87,0.36-2.46,1.08s-0.87,1.73-0.87,3.05c0,1.44,0.4,2.53,1.2,3.28
			s1.94,1.13,3.42,1.13c0.52,0,1.02-0.03,1.52-0.09s1.01-0.14,1.52-0.24l0.3,2.18c-0.73,0.14-1.41,0.23-2.02,0.27
			S775.76,496.4,775.29,496.4z"/>
		<path fill="#170B00" d="M782.06,496.17v-2.04h8.3v2.04H782.06z M782.53,485.79v-2.04h4.15l0.23,2.04H782.53z M784.83,496.17
			v-12.42h2.02l0.47,3.56v8.86H784.83z M787.31,490.82l-0.73-3.89h0.96c0.14-2.28,1.28-3.42,3.42-3.42c1.28,0,2.21,0.37,2.79,1.1
			s0.87,1.92,0.87,3.56h-2.46c0-0.91-0.13-1.56-0.4-1.96s-0.71-0.6-1.31-0.6c-1.05,0-1.84,0.45-2.36,1.35
			S787.31,489.16,787.31,490.82z"/>
		<path fill="#170B00" d="M795.98,488.6v-2.04h11.48v2.04H795.98z M799.9,496.17V484.8c0-4.3,1.96-6.45,5.88-6.45
			c0.89,0,1.75,0.08,2.58,0.23l-0.26,2.16c-0.49-0.06-0.93-0.11-1.3-0.13s-0.74-0.04-1.09-0.04c-2.22,0-3.33,1.37-3.33,4.1v11.48
			H799.9z"/>
		<path fill="#170B00" d="M815.06,496.4c-1.3,0-2.31-0.39-3.03-1.17s-1.07-1.87-1.07-3.29v-8.2h2.48v8.2c0,0.71,0.2,1.26,0.61,1.65
			s0.98,0.58,1.71,0.58c0.91,0,1.59-0.29,2.05-0.86s0.69-1.54,0.69-2.89l0.63,3.35h-0.82c-0.2,0.84-0.58,1.49-1.15,1.95
			S815.9,496.4,815.06,496.4z M818.51,492.65v-8.91h2.48v8.2L818.51,492.65z M818.72,496.29l-0.21-2.98v-2.18h2.48v2.79l1.71,0.26
			v1.99L818.72,496.29z"/>
		<path fill="#170B00" d="M824.46,480.63v-2.04h3.87v2.04H824.46z M832.2,496.4c-1.44,0-2.48-0.39-3.12-1.17s-0.96-2.03-0.96-3.75
			v-12.89h2.48v12.77c0,0.66,0.06,1.19,0.19,1.61s0.37,0.72,0.73,0.91s0.9,0.29,1.61,0.29c0.65,0,1.48-0.15,2.48-0.45l0.28,2.18
			c-0.63,0.17-1.24,0.3-1.82,0.38S832.87,496.4,832.2,496.4z"/>
		<path fill="#170B00" d="M838.52,480.63v-2.04h3.87v2.04H838.52z M846.26,496.4c-1.44,0-2.48-0.39-3.12-1.17s-0.96-2.03-0.96-3.75
			v-12.89h2.48v12.77c0,0.66,0.06,1.19,0.19,1.61s0.37,0.72,0.73,0.91s0.9,0.29,1.61,0.29c0.65,0,1.48-0.15,2.48-0.45l0.28,2.18
			c-0.63,0.17-1.24,0.3-1.82,0.38S846.93,496.4,846.26,496.4z"/>
		<path fill="#170B00" d="M303.8,517.4v-2.04h11.48v2.04H303.8z M307.71,524.97V513.6c0-4.3,1.96-6.45,5.88-6.45
			c0.89,0,1.75,0.08,2.58,0.23l-0.26,2.16c-0.49-0.06-0.93-0.11-1.3-0.13s-0.74-0.04-1.09-0.04c-2.22,0-3.33,1.37-3.33,4.1v11.48
			H307.71z"/>
		<path fill="#170B00" d="M322.88,525.2c-1.3,0-2.31-0.39-3.03-1.17s-1.07-1.87-1.07-3.29v-8.2h2.48v8.2c0,0.71,0.2,1.26,0.61,1.65
			s0.98,0.58,1.71,0.58c0.91,0,1.59-0.29,2.05-0.86s0.69-1.54,0.69-2.89l0.63,3.35h-0.82c-0.2,0.84-0.58,1.49-1.15,1.95
			S323.71,525.2,322.88,525.2z M326.32,521.45v-8.91h2.48v8.2L326.32,521.45z M326.53,525.08l-0.21-2.98v-2.18h2.48v2.79l1.71,0.26
			v1.99L326.53,525.08z"/>
		<path fill="#170B00" d="M333.09,524.97v-12.42h2.25l0.23,2.63v9.8H333.09z M340.73,524.97v-8.09c0-0.75-0.2-1.33-0.59-1.73
			s-0.94-0.61-1.64-0.61c-1.95,0-2.93,1.15-2.93,3.45l-0.73-3.19h0.96c0.07-0.84,0.38-1.46,0.91-1.87s1.33-0.62,2.37-0.62
			c1.31,0,2.33,0.4,3.05,1.2s1.08,1.92,1.08,3.38v8.09H340.73z"/>
		<path fill="#170B00" d="M353.41,525.2c-2.12,0-3.75-0.56-4.9-1.67s-1.73-2.71-1.73-4.8c0-2.03,0.54-3.61,1.63-4.73
			s2.65-1.69,4.67-1.69c1.21,0,2.25,0.22,3.11,0.67s1.48,1.08,1.85,1.9l-1.91,1.44c-0.35-0.57-0.8-1.01-1.35-1.32
			s-1.14-0.47-1.79-0.47c-1.17,0-2.08,0.35-2.73,1.06s-0.97,1.71-0.97,3.02c0,1.41,0.38,2.49,1.14,3.24s1.85,1.12,3.26,1.12
			c0.58,0,1.16-0.03,1.73-0.08s1.14-0.13,1.69-0.22l0.28,2.18c-0.64,0.14-1.3,0.23-1.99,0.28S354.06,525.2,353.41,525.2z"/>
		<path fill="#170B00" d="M360.07,514.58v-2.04h11.25v2.04H360.07z M363.19,519.11V508.8h2.48v10.31H363.19z M368.53,525.2
			c-1.88,0-3.24-0.39-4.08-1.17s-1.26-2.03-1.26-3.75v-2.11h2.48v1.99c0,0.98,0.24,1.7,0.72,2.14s1.27,0.67,2.37,0.67
			c0.39,0,0.8-0.02,1.24-0.06s0.94-0.1,1.5-0.17l0.28,2.18c-0.55,0.09-1.08,0.16-1.6,0.21S369.12,525.2,368.53,525.2z"/>
		<path fill="#170B00" d="M375.19,524.97v-2.04h4.97v2.04H375.19z M375.89,514.58v-2.04h6.52v2.04H375.89z M381.08,510.58
			c-0.48,0-0.88-0.17-1.22-0.51s-0.51-0.75-0.51-1.22c0-0.48,0.17-0.89,0.51-1.23s0.75-0.5,1.22-0.5c0.48,0,0.89,0.17,1.23,0.5
			s0.5,0.75,0.5,1.23c0,0.48-0.17,0.88-0.5,1.22S381.57,510.58,381.08,510.58z M379.92,524.97v-11.72h2.48v11.72H379.92z
			 M382.17,524.97v-2.04h4.05v2.04H382.17z"/>
		<path fill="#170B00" d="M394.41,525.2c-1.72,0-3.05-0.56-4.01-1.69s-1.43-2.71-1.43-4.76c0-2.05,0.48-3.64,1.43-4.76
			s2.29-1.68,4.01-1.68c1.73,0,3.06,0.56,4.01,1.68s1.42,2.71,1.42,4.76c0,2.05-0.47,3.63-1.42,4.76S396.13,525.2,394.41,525.2z
			 M394.41,522.98c0.91,0,1.62-0.37,2.12-1.1s0.74-1.77,0.74-3.12c0-1.35-0.25-2.39-0.74-3.12s-1.2-1.1-2.12-1.1
			s-1.62,0.37-2.12,1.1s-0.74,1.77-0.74,3.12c0,1.34,0.25,2.38,0.74,3.12S393.49,522.98,394.41,522.98z"/>
		<path fill="#170B00" d="M403.41,524.97v-12.42h2.25l0.23,2.63v9.8H403.41z M411.05,524.97v-8.09c0-0.75-0.2-1.33-0.59-1.73
			s-0.94-0.61-1.64-0.61c-1.95,0-2.93,1.15-2.93,3.45l-0.73-3.19h0.96c0.07-0.84,0.38-1.46,0.91-1.87s1.33-0.62,2.37-0.62
			c1.31,0,2.33,0.4,3.05,1.2s1.08,1.92,1.08,3.38v8.09H411.05z"/>
		<path fill="#170B00" d="M420.7,525.2c-1.3,0-2.3-0.31-3.01-0.94s-1.07-1.51-1.07-2.65c0-1.31,0.49-2.32,1.47-3.02
			s2.37-1.05,4.15-1.05c0.74,0,1.4,0.04,1.99,0.13s1.1,0.22,1.55,0.4l-0.52,1.69c-0.52-0.12-1.04-0.19-1.54-0.21
			s-1.01-0.03-1.54-0.03c-2.16,0-3.23,0.66-3.23,1.97c0,0.55,0.19,0.97,0.56,1.27s0.9,0.45,1.58,0.45c0.77,0,1.42-0.13,1.94-0.4
			s0.91-0.61,1.17-1.02s0.39-0.84,0.39-1.28v-1.36l0.73,3.19h-0.98l0.4-0.38c0,0.72-0.17,1.32-0.5,1.8s-0.8,0.84-1.4,1.08
			S421.52,525.2,420.7,525.2z M425.09,525.08l-0.16-3.68l-0.33-1.03v-3.21c0-0.83-0.29-1.44-0.87-1.82s-1.45-0.6-2.6-0.63
			l-2.98-0.08l0.23-2.2l2.51,0.04c2.05,0.03,3.58,0.47,4.58,1.33s1.49,2.1,1.49,3.74v5.18l2.11,0.26v1.99L425.09,525.08z"/>
		<path fill="#170B00" d="M430.71,509.43v-2.04h3.87v2.04H430.71z M438.45,525.2c-1.44,0-2.48-0.39-3.12-1.17s-0.96-2.03-0.96-3.75
			v-12.89h2.48v12.77c0,0.66,0.06,1.19,0.19,1.61s0.37,0.72,0.73,0.91s0.9,0.29,1.61,0.29c0.65,0,1.48-0.15,2.48-0.45l0.28,2.18
			c-0.63,0.17-1.24,0.3-1.82,0.38S439.12,525.2,438.45,525.2z"/>
		<path fill="#170B00" d="M445.5,524.97v-2.04h4.97v2.04H445.5z M446.2,514.58v-2.04h6.52v2.04H446.2z M451.39,510.58
			c-0.48,0-0.88-0.17-1.22-0.51s-0.51-0.75-0.51-1.22c0-0.48,0.17-0.89,0.51-1.23s0.75-0.5,1.22-0.5c0.48,0,0.89,0.17,1.23,0.5
			s0.5,0.75,0.5,1.23c0,0.48-0.17,0.88-0.5,1.22S451.88,510.58,451.39,510.58z M450.23,524.97v-11.72h2.48v11.72H450.23z
			 M452.48,524.97v-2.04h4.05v2.04H452.48z"/>
		<path fill="#170B00" d="M458.51,514.58v-2.04h11.25v2.04H458.51z M461.63,519.11V508.8h2.48v10.31H461.63z M466.97,525.2
			c-1.88,0-3.24-0.39-4.08-1.17s-1.26-2.03-1.26-3.75v-2.11h2.48v1.99c0,0.98,0.24,1.7,0.72,2.14s1.27,0.67,2.37,0.67
			c0.39,0,0.8-0.02,1.24-0.06s0.94-0.1,1.5-0.17l0.28,2.18c-0.55,0.09-1.08,0.16-1.6,0.21S467.55,525.2,466.97,525.2z"/>
		<path fill="#170B00" d="M477.34,524.97l-4.95-12.42h2.58l4.05,10.55h0.38v1.88H477.34z M472.63,530.59l-0.12-2.23l1.95-0.23
			c0.82-0.1,1.52-0.32,2.1-0.67s1.08-0.85,1.49-1.53s0.78-1.56,1.09-2.65l3.09-10.73h2.58l-3.59,11.32
			c-0.47,1.48-0.99,2.68-1.58,3.59s-1.27,1.59-2.06,2.04s-1.74,0.74-2.85,0.87L472.63,530.59z"/>
		<path fill="#170B00" d="M490.64,530.08l0.94-8.09h2.72l-1.41,8.09H490.64z"/>
		<path fill="#170B00" d="M522.16,525.2c-2.12,0-3.75-0.56-4.9-1.67s-1.73-2.71-1.73-4.8c0-2.03,0.49-3.61,1.46-4.73
			s2.36-1.69,4.14-1.69c1.68,0,2.98,0.51,3.9,1.52s1.38,2.49,1.38,4.43c0,0.57-0.02,1.1-0.07,1.59h-8.72v-1.9h6.54
			c0-1.12-0.27-1.97-0.8-2.57s-1.27-0.9-2.2-0.9c-1.05,0-1.87,0.36-2.46,1.08s-0.87,1.73-0.87,3.05c0,1.44,0.4,2.53,1.2,3.28
			s1.94,1.13,3.42,1.13c0.52,0,1.02-0.03,1.52-0.09s1.01-0.14,1.52-0.24l0.3,2.18c-0.73,0.14-1.41,0.23-2.02,0.27
			S522.63,525.2,522.16,525.2z"/>
		<path fill="#170B00" d="M529.97,524.97v-12.42h2.25l0.23,2.63v9.8H529.97z M537.61,524.97v-8.09c0-0.75-0.2-1.33-0.59-1.73
			s-0.94-0.61-1.64-0.61c-1.95,0-2.93,1.15-2.93,3.45l-0.73-3.19h0.96c0.07-0.84,0.38-1.46,0.91-1.87s1.33-0.62,2.37-0.62
			c1.31,0,2.33,0.4,3.05,1.2s1.08,1.92,1.08,3.38v8.09H537.61z"/>
		<path fill="#170B00" d="M548.13,525.2c-0.94,0-1.74-0.03-2.41-0.08s-1.28-0.14-1.83-0.27l0.28-2.25c0.82,0.13,1.54,0.22,2.17,0.28
			s1.22,0.09,1.79,0.09c1.26,0,2.17-0.12,2.74-0.37s0.85-0.64,0.85-1.18c0-0.38-0.1-0.65-0.3-0.84s-0.51-0.33-0.92-0.43l-2.86-0.73
			c-1.23-0.31-2.13-0.7-2.7-1.16s-0.86-1.16-0.86-2.1c0-1.36,0.52-2.34,1.56-2.95s2.72-0.91,5.04-0.91c0.6,0,1.16,0.02,1.68,0.05
			s1.05,0.1,1.6,0.18l-0.26,2.16c-0.63-0.06-1.19-0.11-1.68-0.13s-0.96-0.04-1.42-0.04c-1.39,0-2.4,0.12-3.02,0.36
			s-0.94,0.63-0.94,1.17c0,0.36,0.13,0.62,0.39,0.78s0.65,0.31,1.18,0.44l2.3,0.56c1.3,0.31,2.26,0.73,2.87,1.25
			s0.91,1.29,0.91,2.29c0,1.34-0.49,2.31-1.46,2.91S550.29,525.2,548.13,525.2z"/>
		<path fill="#170B00" d="M561.94,525.2c-1.3,0-2.31-0.39-3.03-1.17s-1.07-1.87-1.07-3.29v-8.2h2.48v8.2c0,0.71,0.2,1.26,0.61,1.65
			s0.98,0.58,1.71,0.58c0.91,0,1.59-0.29,2.05-0.86s0.69-1.54,0.69-2.89l0.63,3.35h-0.82c-0.2,0.84-0.58,1.49-1.15,1.95
			S562.77,525.2,561.94,525.2z M565.38,521.45v-8.91h2.48v8.2L565.38,521.45z M565.59,525.08l-0.21-2.98v-2.18h2.48v2.79l1.71,0.26
			v1.99L565.59,525.08z"/>
		<path fill="#170B00" d="M571.13,524.97v-2.04h8.3v2.04H571.13z M571.59,514.58v-2.04h4.15l0.23,2.04H571.59z M573.89,524.97
			v-12.42h2.02l0.47,3.56v8.86H573.89z M576.38,519.62l-0.73-3.89h0.96c0.14-2.28,1.28-3.42,3.42-3.42c1.28,0,2.21,0.37,2.79,1.1
			s0.87,1.92,0.87,3.56h-2.46c0-0.91-0.13-1.56-0.4-1.96s-0.71-0.6-1.31-0.6c-1.05,0-1.84,0.45-2.36,1.35
			S576.38,517.96,576.38,519.62z"/>
		<path fill="#170B00" d="M586.13,524.97v-2.04h4.97v2.04H586.13z M586.83,514.58v-2.04h6.52v2.04H586.83z M592.02,510.58
			c-0.48,0-0.88-0.17-1.22-0.51s-0.51-0.75-0.51-1.22c0-0.48,0.17-0.89,0.51-1.23s0.75-0.5,1.22-0.5c0.48,0,0.89,0.17,1.23,0.5
			s0.5,0.75,0.5,1.23c0,0.48-0.17,0.88-0.5,1.22S592.5,510.58,592.02,510.58z M590.86,524.97v-11.72h2.48v11.72H590.86z
			 M593.11,524.97v-2.04h4.05v2.04H593.11z"/>
		<path fill="#170B00" d="M600.28,524.97v-12.42h2.25l0.23,2.63v9.8H600.28z M607.92,524.97v-8.09c0-0.75-0.2-1.33-0.59-1.73
			s-0.94-0.61-1.64-0.61c-1.95,0-2.93,1.15-2.93,3.45l-0.73-3.19H603c0.07-0.84,0.38-1.46,0.91-1.87s1.33-0.62,2.37-0.62
			c1.31,0,2.33,0.4,3.05,1.2s1.08,1.92,1.08,3.38v8.09H607.92z"/>
		<path fill="#170B00" d="M618.46,525.2c-1.63,0-2.86-0.54-3.7-1.61s-1.26-2.64-1.26-4.72c0-2.16,0.42-3.79,1.26-4.9
			s2.07-1.66,3.7-1.66c0.97,0,1.75,0.22,2.36,0.66s0.95,1.05,1.05,1.83h0.96l-0.84,3.54c0-1.28-0.25-2.25-0.76-2.92s-1.24-1-2.22-1
			c-1,0-1.76,0.38-2.27,1.13s-0.77,1.86-0.77,3.33c0,1.39,0.26,2.44,0.77,3.15s1.27,1.07,2.27,1.07c0.98,0,1.72-0.33,2.22-1
			s0.76-1.64,0.76-2.92l0.84,3.54h-1.08c-0.08,0.78-0.41,1.39-0.99,1.83S619.41,525.2,618.46,525.2z M614.51,530.57l-0.12-2.27
			l3.98-0.12c1.26-0.04,2.17-0.39,2.74-1.04s0.86-1.62,0.87-2.89v-9.07l0.23-2.63h2.25v11.32c0,2.21-0.5,3.84-1.51,4.9
			s-2.61,1.62-4.82,1.69L614.51,530.57z"/>
		<path fill="#170B00" d="M646.09,524.97l-4.95-12.42h2.58l4.05,10.55h0.38v1.88H646.09z M641.38,530.59l-0.12-2.23l1.95-0.23
			c0.82-0.1,1.52-0.32,2.1-0.67s1.08-0.85,1.49-1.53s0.78-1.56,1.09-2.65l3.09-10.73h2.58l-3.59,11.32
			c-0.47,1.48-0.99,2.68-1.58,3.59s-1.27,1.59-2.06,2.04s-1.74,0.74-2.85,0.87L641.38,530.59z"/>
		<path fill="#170B00" d="M661.59,525.2c-1.72,0-3.05-0.56-4.01-1.69s-1.43-2.71-1.43-4.76c0-2.05,0.48-3.64,1.43-4.76
			s2.29-1.68,4.01-1.68c1.73,0,3.06,0.56,4.01,1.68s1.42,2.71,1.42,4.76c0,2.05-0.47,3.63-1.42,4.76S663.32,525.2,661.59,525.2z
			 M661.59,522.98c0.91,0,1.62-0.37,2.12-1.1s0.74-1.77,0.74-3.12c0-1.35-0.25-2.39-0.74-3.12s-1.2-1.1-2.12-1.1
			s-1.62,0.37-2.12,1.1s-0.74,1.77-0.74,3.12c0,1.34,0.25,2.38,0.74,3.12S660.68,522.98,661.59,522.98z"/>
		<path fill="#170B00" d="M674.44,525.2c-1.3,0-2.31-0.39-3.03-1.17s-1.07-1.87-1.07-3.29v-8.2h2.48v8.2c0,0.71,0.2,1.26,0.61,1.65
			s0.98,0.58,1.71,0.58c0.91,0,1.59-0.29,2.05-0.86s0.69-1.54,0.69-2.89l0.63,3.35h-0.82c-0.2,0.84-0.58,1.49-1.15,1.95
			S675.27,525.2,674.44,525.2z M677.88,521.45v-8.91h2.48v8.2L677.88,521.45z M678.09,525.08l-0.21-2.98v-2.18h2.48v2.79l1.71,0.26
			v1.99L678.09,525.08z"/>
		<path fill="#170B00" d="M688.77,525.2c-1.63,0-2.86-0.54-3.7-1.61s-1.26-2.64-1.26-4.72c0-2.16,0.42-3.79,1.26-4.9
			s2.07-1.66,3.7-1.66c0.97,0,1.75,0.22,2.36,0.66s0.95,1.05,1.05,1.83h0.96l-0.84,3.54c0-1.28-0.25-2.25-0.76-2.92s-1.24-1-2.22-1
			c-1,0-1.76,0.38-2.27,1.13s-0.77,1.86-0.77,3.33c0,1.39,0.26,2.44,0.77,3.15s1.27,1.07,2.27,1.07c0.98,0,1.72-0.33,2.22-1
			s0.76-1.64,0.76-2.92l0.84,3.54h-1.08c-0.08,0.78-0.41,1.39-0.99,1.83S689.72,525.2,688.77,525.2z M684.82,530.57l-0.12-2.27
			l3.98-0.12c1.26-0.04,2.17-0.39,2.74-1.04s0.86-1.62,0.87-2.89v-9.07l0.23-2.63h2.25v11.32c0,2.21-0.5,3.84-1.51,4.9
			s-2.61,1.62-4.82,1.69L684.82,530.57z"/>
		<path fill="#170B00" d="M704.98,525.2c-2.12,0-3.75-0.56-4.9-1.67s-1.73-2.71-1.73-4.8c0-2.03,0.49-3.61,1.46-4.73
			s2.36-1.69,4.14-1.69c1.68,0,2.98,0.51,3.9,1.52s1.38,2.49,1.38,4.43c0,0.57-0.02,1.1-0.07,1.59h-8.72v-1.9h6.54
			c0-1.12-0.27-1.97-0.8-2.57s-1.27-0.9-2.2-0.9c-1.05,0-1.87,0.36-2.46,1.08s-0.87,1.73-0.87,3.05c0,1.44,0.4,2.53,1.2,3.28
			s1.94,1.13,3.42,1.13c0.52,0,1.02-0.03,1.52-0.09s1.01-0.14,1.52-0.24l0.3,2.18c-0.73,0.14-1.41,0.23-2.02,0.27
			S705.45,525.2,704.98,525.2z"/>
		<path fill="#170B00" d="M711.63,514.58v-2.04h11.25v2.04H711.63z M714.75,519.11V508.8h2.48v10.31H714.75z M720.09,525.2
			c-1.88,0-3.24-0.39-4.08-1.17s-1.26-2.03-1.26-3.75v-2.11h2.48v1.99c0,0.98,0.24,1.7,0.72,2.14s1.27,0.67,2.37,0.67
			c0.39,0,0.8-0.02,1.24-0.06s0.94-0.1,1.5-0.17l0.28,2.18c-0.55,0.09-1.08,0.16-1.6,0.21S720.68,525.2,720.09,525.2z"/>
		<path fill="#170B00" d="M739.76,514.58v-2.04h11.25v2.04H739.76z M742.88,519.11V508.8h2.48v10.31H742.88z M748.22,525.2
			c-1.88,0-3.24-0.39-4.08-1.17s-1.26-2.03-1.26-3.75v-2.11h2.48v1.99c0,0.98,0.24,1.7,0.72,2.14s1.27,0.67,2.37,0.67
			c0.39,0,0.8-0.02,1.24-0.06s0.94-0.1,1.5-0.17l0.28,2.18c-0.55,0.09-1.08,0.16-1.6,0.21S748.8,525.2,748.22,525.2z"/>
		<path fill="#170B00" d="M754.97,524.97v-17.58h2.48v17.58H754.97z M762.61,524.97v-8.09c0-0.79-0.2-1.4-0.59-1.82
			s-0.94-0.64-1.64-0.64c-1.95,0-2.93,1.19-2.93,3.56l-0.73-3.19h0.96c0.07-0.84,0.38-1.46,0.91-1.87s1.33-0.62,2.37-0.62
			c1.31,0,2.33,0.4,3.05,1.2s1.08,1.92,1.08,3.38v8.09H762.61z"/>
		<path fill="#170B00" d="M775.29,525.2c-2.12,0-3.75-0.56-4.9-1.67s-1.73-2.71-1.73-4.8c0-2.03,0.49-3.61,1.46-4.73
			s2.36-1.69,4.14-1.69c1.68,0,2.98,0.51,3.9,1.52s1.38,2.49,1.38,4.43c0,0.57-0.02,1.1-0.07,1.59h-8.72v-1.9h6.54
			c0-1.12-0.27-1.97-0.8-2.57s-1.27-0.9-2.2-0.9c-1.05,0-1.87,0.36-2.46,1.08s-0.87,1.73-0.87,3.05c0,1.44,0.4,2.53,1.2,3.28
			s1.94,1.13,3.42,1.13c0.52,0,1.02-0.03,1.52-0.09s1.01-0.14,1.52-0.24l0.3,2.18c-0.73,0.14-1.41,0.23-2.02,0.27
			S775.76,525.2,775.29,525.2z"/>
		<path fill="#170B00" d="M797.1,524.97v-17.58h2.48v17.37L797.1,524.97z M800.43,525.2c-0.56,0-1.12-0.02-1.66-0.06
			s-1.1-0.1-1.66-0.17l0.96-2.27c0.41,0.2,0.87,0.31,1.37,0.35s1,0.05,1.49,0.05c1.49,0,2.65-0.45,3.46-1.35s1.22-2.17,1.22-3.81
			c0-1.13-0.25-1.99-0.74-2.6s-1.2-0.91-2.12-0.91c-2.11,0-3.16,1.19-3.16,3.56l-0.73-3.19h0.96c0.12-1.66,1.13-2.48,3.05-2.48
			c1.66,0,2.94,0.49,3.84,1.46s1.36,2.36,1.36,4.16c0,2.3-0.67,4.09-2,5.36S802.86,525.2,800.43,525.2z"/>
		<path fill="#170B00" d="M817.48,525.2c-2.12,0-3.75-0.56-4.9-1.67s-1.73-2.71-1.73-4.8c0-2.03,0.49-3.61,1.46-4.73
			s2.36-1.69,4.14-1.69c1.68,0,2.98,0.51,3.9,1.52s1.38,2.49,1.38,4.43c0,0.57-0.02,1.1-0.07,1.59h-8.72v-1.9h6.54
			c0-1.12-0.27-1.97-0.8-2.57s-1.27-0.9-2.2-0.9c-1.05,0-1.87,0.36-2.46,1.08s-0.87,1.73-0.87,3.05c0,1.44,0.4,2.53,1.2,3.28
			s1.94,1.13,3.42,1.13c0.52,0,1.02-0.03,1.52-0.09s1.01-0.14,1.52-0.24l0.3,2.18c-0.73,0.14-1.41,0.23-2.02,0.27
			S817.95,525.2,817.48,525.2z"/>
		<path fill="#170B00" d="M829.38,525.2c-0.94,0-1.74-0.03-2.41-0.08s-1.28-0.14-1.83-0.27l0.28-2.25c0.82,0.13,1.54,0.22,2.17,0.28
			s1.22,0.09,1.79,0.09c1.26,0,2.17-0.12,2.74-0.37s0.85-0.64,0.85-1.18c0-0.38-0.1-0.65-0.3-0.84s-0.51-0.33-0.92-0.43l-2.86-0.73
			c-1.23-0.31-2.13-0.7-2.7-1.16s-0.86-1.16-0.86-2.1c0-1.36,0.52-2.34,1.56-2.95s2.72-0.91,5.04-0.91c0.6,0,1.16,0.02,1.68,0.05
			s1.05,0.1,1.6,0.18l-0.26,2.16c-0.63-0.06-1.19-0.11-1.68-0.13s-0.96-0.04-1.42-0.04c-1.39,0-2.4,0.12-3.02,0.36
			s-0.94,0.63-0.94,1.17c0,0.36,0.13,0.62,0.39,0.78s0.65,0.31,1.18,0.44l2.3,0.56c1.3,0.31,2.26,0.73,2.87,1.25
			s0.91,1.29,0.91,2.29c0,1.34-0.49,2.31-1.46,2.91S831.54,525.2,829.38,525.2z"/>
		<path fill="#170B00" d="M838.2,514.58v-2.04h11.25v2.04H838.2z M841.31,519.11V508.8h2.48v10.31H841.31z M846.66,525.2
			c-1.88,0-3.24-0.39-4.08-1.17s-1.26-2.03-1.26-3.75v-2.11h2.48v1.99c0,0.98,0.24,1.7,0.72,2.14s1.27,0.67,2.37,0.67
			c0.39,0,0.8-0.02,1.24-0.06s0.94-0.1,1.5-0.17l0.28,2.18c-0.55,0.09-1.08,0.16-1.6,0.21S847.24,525.2,846.66,525.2z"/>
	</g>
</g>
<g>
	<g>
		<path fill="#E74100" d="M386.94,560.57v-2.04h8.3v2.04H386.94z M387.41,550.19v-2.04h4.15l0.23,2.04H387.41z M389.7,560.57v-12.42
			h2.02l0.47,3.56v8.86H389.7z M392.19,555.22l-0.73-3.89h0.96c0.14-2.28,1.28-3.42,3.42-3.42c1.28,0,2.21,0.37,2.79,1.1
			s0.87,1.92,0.87,3.56h-2.46c0-0.91-0.13-1.56-0.4-1.96s-0.71-0.6-1.31-0.6c-1.05,0-1.84,0.45-2.36,1.35
			S392.19,553.56,392.19,555.22z"/>
		<path fill="#E74100" d="M407.09,560.8c-1.72,0-3.05-0.56-4.01-1.69s-1.43-2.71-1.43-4.76c0-2.05,0.48-3.64,1.43-4.76
			s2.29-1.68,4.01-1.68c1.73,0,3.06,0.56,4.01,1.68s1.42,2.71,1.42,4.76c0,2.05-0.47,3.63-1.42,4.76S408.82,560.8,407.09,560.8z
			 M407.09,558.58c0.91,0,1.62-0.37,2.12-1.1s0.74-1.77,0.74-3.12c0-1.35-0.25-2.39-0.74-3.12s-1.2-1.1-2.12-1.1
			s-1.62,0.37-2.12,1.1s-0.74,1.77-0.74,3.12c0,1.34,0.25,2.38,0.74,3.12S406.18,558.58,407.09,558.58z"/>
		<path fill="#E74100" d="M421.16,560.8c-1.72,0-3.05-0.56-4.01-1.69s-1.43-2.71-1.43-4.76c0-2.05,0.48-3.64,1.43-4.76
			s2.29-1.68,4.01-1.68c1.73,0,3.06,0.56,4.01,1.68s1.42,2.71,1.42,4.76c0,2.05-0.47,3.63-1.42,4.76S422.88,560.8,421.16,560.8z
			 M421.16,558.58c0.91,0,1.62-0.37,2.12-1.1s0.74-1.77,0.74-3.12c0-1.35-0.25-2.39-0.74-3.12s-1.2-1.1-2.12-1.1
			s-1.62,0.37-2.12,1.1s-0.74,1.77-0.74,3.12c0,1.34,0.25,2.38,0.74,3.12S420.24,558.58,421.16,558.58z"/>
		<path fill="#E74100" d="M429.5,560.57v-12.42h2.2l0.28,2.63v9.8H429.5z M434.16,560.57v-9.73c0-0.7-0.33-1.05-0.98-1.05
			c-0.8,0-1.2,0.56-1.2,1.69l-0.73-1.78h0.8c0.09-1.19,0.8-1.78,2.13-1.78c0.65,0,1.16,0.22,1.53,0.67s0.56,1.12,0.56,2.03v9.96
			H434.16z M438.45,560.57v-9.49c0-0.86-0.32-1.29-0.96-1.29c-0.81,0-1.22,0.56-1.22,1.69l-0.84-1.78h0.96
			c0.04-0.48,0.23-0.9,0.58-1.25s0.85-0.53,1.51-0.53c0.86,0,1.48,0.23,1.88,0.69s0.59,1.21,0.59,2.24v9.73H438.45z"/>
		<path fill="#E74100" d="M462.39,560.8c-1.63,0-2.86-0.54-3.7-1.61s-1.26-2.64-1.26-4.72c0-2.16,0.42-3.79,1.26-4.9
			s2.07-1.66,3.7-1.66c0.93,0,1.69,0.22,2.27,0.66s0.92,1.05,1.03,1.83h0.96l-0.73,3.54c0-1.28-0.25-2.25-0.76-2.92s-1.24-1-2.22-1
			c-1,0-1.76,0.38-2.27,1.13s-0.77,1.86-0.77,3.33c0,1.39,0.26,2.44,0.77,3.15s1.27,1.07,2.27,1.07c0.98,0,1.72-0.33,2.22-1
			s0.76-1.64,0.76-2.92l0.84,3.54h-1.08c-0.08,0.78-0.41,1.39-0.99,1.83S463.35,560.8,462.39,560.8z M466.18,560.69l-0.26-2.44
			v-15.26h2.48v17.58L466.18,560.69z"/>
		<path fill="#E74100" d="M478.6,560.8c-2.12,0-3.75-0.56-4.9-1.67s-1.73-2.71-1.73-4.8c0-2.03,0.49-3.61,1.46-4.73
			s2.36-1.69,4.14-1.69c1.68,0,2.98,0.51,3.9,1.52s1.38,2.49,1.38,4.43c0,0.57-0.02,1.1-0.07,1.59h-8.72v-1.9h6.54
			c0-1.12-0.27-1.97-0.8-2.57s-1.27-0.9-2.2-0.9c-1.05,0-1.87,0.36-2.46,1.08s-0.87,1.73-0.87,3.05c0,1.44,0.4,2.53,1.2,3.28
			s1.94,1.13,3.42,1.13c0.52,0,1.02-0.03,1.52-0.09s1.01-0.14,1.52-0.24l0.3,2.18c-0.73,0.14-1.41,0.23-2.02,0.27
			S479.07,560.8,478.6,560.8z"/>
		<path fill="#E74100" d="M492.66,560.8c-2.12,0-3.75-0.56-4.9-1.67s-1.73-2.71-1.73-4.8c0-2.03,0.54-3.61,1.63-4.73
			s2.65-1.69,4.67-1.69c1.21,0,2.25,0.22,3.11,0.67s1.48,1.08,1.85,1.9l-1.91,1.44c-0.35-0.57-0.8-1.01-1.35-1.32
			s-1.14-0.47-1.79-0.47c-1.17,0-2.08,0.35-2.73,1.06s-0.97,1.71-0.97,3.02c0,1.41,0.38,2.49,1.14,3.24s1.85,1.12,3.26,1.12
			c0.58,0,1.16-0.03,1.73-0.08s1.14-0.13,1.69-0.22l0.28,2.18c-0.64,0.14-1.3,0.23-1.99,0.28S493.31,560.8,492.66,560.8z"/>
		<path fill="#E74100" d="M499.44,560.57v-2.04h8.3v2.04H499.44z M499.91,550.19v-2.04h4.15l0.23,2.04H499.91z M502.2,560.57v-12.42
			h2.02l0.47,3.56v8.86H502.2z M504.69,555.22l-0.73-3.89h0.96c0.14-2.28,1.28-3.42,3.42-3.42c1.28,0,2.21,0.37,2.79,1.1
			s0.87,1.92,0.87,3.56h-2.46c0-0.91-0.13-1.56-0.4-1.96s-0.71-0.6-1.31-0.6c-1.05,0-1.84,0.45-2.36,1.35
			S504.69,553.56,504.69,555.22z"/>
		<path fill="#E74100" d="M517.77,560.8c-1.3,0-2.3-0.31-3.01-0.94s-1.07-1.51-1.07-2.65c0-1.31,0.49-2.32,1.47-3.02
			s2.37-1.05,4.15-1.05c0.74,0,1.4,0.04,1.99,0.13s1.1,0.22,1.55,0.4l-0.52,1.69c-0.52-0.12-1.04-0.19-1.54-0.21
			s-1.01-0.03-1.54-0.03c-2.16,0-3.23,0.66-3.23,1.97c0,0.55,0.19,0.97,0.56,1.27s0.9,0.45,1.58,0.45c0.77,0,1.42-0.13,1.94-0.4
			s0.91-0.61,1.17-1.02s0.39-0.84,0.39-1.28v-1.36l0.73,3.19h-0.98l0.4-0.38c0,0.72-0.17,1.32-0.5,1.8s-0.8,0.84-1.4,1.08
			S518.59,560.8,517.77,560.8z M522.15,560.69l-0.16-3.68l-0.33-1.03v-3.21c0-0.83-0.29-1.44-0.87-1.82s-1.45-0.6-2.6-0.63
			l-2.98-0.08l0.23-2.2l2.51,0.04c2.05,0.03,3.58,0.47,4.58,1.33s1.49,2.1,1.49,3.74v5.18l2.11,0.26v1.99L522.15,560.69z"/>
		<path fill="#E74100" d="M527.45,550.19v-2.04h11.25v2.04H527.45z M530.56,554.71V544.4h2.48v10.31H530.56z M535.91,560.8
			c-1.88,0-3.24-0.39-4.08-1.17s-1.26-2.03-1.26-3.75v-2.11h2.48v1.99c0,0.98,0.24,1.7,0.72,2.14s1.27,0.67,2.37,0.67
			c0.39,0,0.8-0.02,1.24-0.06s0.94-0.1,1.5-0.17l0.28,2.18c-0.55,0.09-1.08,0.16-1.6,0.21S536.49,560.8,535.91,560.8z"/>
		<path fill="#E74100" d="M542.56,560.57v-2.04h4.97v2.04H542.56z M543.27,550.19v-2.04h6.52v2.04H543.27z M548.46,546.18
			c-0.48,0-0.88-0.17-1.22-0.51s-0.51-0.75-0.51-1.22c0-0.48,0.17-0.89,0.51-1.23s0.75-0.5,1.22-0.5c0.48,0,0.89,0.17,1.23,0.5
			s0.5,0.75,0.5,1.23c0,0.48-0.17,0.88-0.5,1.22S548.94,546.18,548.46,546.18z M547.3,560.57v-11.72h2.48v11.72H547.3z
			 M549.55,560.57v-2.04h4.05v2.04H549.55z"/>
		<path fill="#E74100" d="M561.78,560.8c-1.72,0-3.05-0.56-4.01-1.69s-1.43-2.71-1.43-4.76c0-2.05,0.48-3.64,1.43-4.76
			s2.29-1.68,4.01-1.68c1.73,0,3.06,0.56,4.01,1.68s1.42,2.71,1.42,4.76c0,2.05-0.47,3.63-1.42,4.76S563.51,560.8,561.78,560.8z
			 M561.78,558.58c0.91,0,1.62-0.37,2.12-1.1s0.74-1.77,0.74-3.12c0-1.35-0.25-2.39-0.74-3.12s-1.2-1.1-2.12-1.1
			s-1.62,0.37-2.12,1.1s-0.74,1.77-0.74,3.12c0,1.34,0.25,2.38,0.74,3.12S560.87,558.58,561.78,558.58z"/>
		<path fill="#E74100" d="M570.78,560.57v-12.42h2.25l0.23,2.63v9.8H570.78z M578.42,560.57v-8.09c0-0.75-0.2-1.33-0.59-1.73
			s-0.94-0.61-1.64-0.61c-1.95,0-2.93,1.15-2.93,3.45l-0.73-3.19h0.96c0.07-0.84,0.38-1.46,0.91-1.87s1.33-0.62,2.37-0.62
			c1.31,0,2.33,0.4,3.05,1.2s1.08,1.92,1.08,3.38v8.09H578.42z"/>
		<path fill="#E74100" d="M602.14,560.8c-1.3,0-2.3-0.31-3.01-0.94s-1.07-1.51-1.07-2.65c0-1.31,0.49-2.32,1.47-3.02
			s2.37-1.05,4.15-1.05c0.74,0,1.4,0.04,1.99,0.13s1.1,0.22,1.55,0.4l-0.52,1.69c-0.52-0.12-1.04-0.19-1.54-0.21
			s-1.01-0.03-1.54-0.03c-2.16,0-3.23,0.66-3.23,1.97c0,0.55,0.19,0.97,0.56,1.27s0.9,0.45,1.58,0.45c0.77,0,1.42-0.13,1.94-0.4
			s0.91-0.61,1.17-1.02s0.39-0.84,0.39-1.28v-1.36l0.73,3.19h-0.98l0.4-0.38c0,0.72-0.17,1.32-0.5,1.8s-0.8,0.84-1.4,1.08
			S602.96,560.8,602.14,560.8z M606.52,560.69l-0.16-3.68l-0.33-1.03v-3.21c0-0.83-0.29-1.44-0.87-1.82s-1.45-0.6-2.6-0.63
			l-2.98-0.08l0.23-2.2l2.51,0.04c2.05,0.03,3.58,0.47,4.58,1.33s1.49,2.1,1.49,3.74v5.18l2.11,0.26v1.99L606.52,560.69z"/>
		<path fill="#E74100" d="M612.97,560.57v-12.42h2.25l0.23,2.63v9.8H612.97z M620.61,560.57v-8.09c0-0.75-0.2-1.33-0.59-1.73
			s-0.94-0.61-1.64-0.61c-1.95,0-2.93,1.15-2.93,3.45l-0.73-3.19h0.96c0.07-0.84,0.38-1.46,0.91-1.87s1.33-0.62,2.37-0.62
			c1.31,0,2.33,0.4,3.05,1.2s1.08,1.92,1.08,3.38v8.09H620.61z"/>
		<path fill="#E74100" d="M631.14,560.8c-1.63,0-2.86-0.54-3.7-1.61s-1.26-2.64-1.26-4.72c0-2.16,0.42-3.79,1.26-4.9
			s2.07-1.66,3.7-1.66c0.93,0,1.69,0.22,2.27,0.66s0.92,1.05,1.03,1.83h0.96l-0.73,3.54c0-1.28-0.25-2.25-0.76-2.92s-1.24-1-2.22-1
			c-1,0-1.76,0.38-2.27,1.13s-0.77,1.86-0.77,3.33c0,1.39,0.26,2.44,0.77,3.15s1.27,1.07,2.27,1.07c0.98,0,1.72-0.33,2.22-1
			s0.76-1.64,0.76-2.92l0.84,3.54h-1.08c-0.08,0.78-0.41,1.39-0.99,1.83S632.1,560.8,631.14,560.8z M634.93,560.69l-0.26-2.44
			v-15.26h2.48v17.58L634.93,560.69z"/>
		<path fill="#E74100" d="M654.34,545.03v-2.04h3.87v2.04H654.34z M662.07,560.8c-1.44,0-2.48-0.39-3.12-1.17s-0.96-2.03-0.96-3.75
			v-12.89h2.48v12.77c0,0.66,0.06,1.19,0.19,1.61s0.37,0.72,0.73,0.91s0.9,0.29,1.61,0.29c0.65,0,1.48-0.15,2.48-0.45l0.28,2.18
			c-0.63,0.17-1.24,0.3-1.82,0.38S662.74,560.8,662.07,560.8z"/>
		<path fill="#E74100" d="M669.13,560.57v-2.04h4.97v2.04H669.13z M669.83,550.19v-2.04h6.52v2.04H669.83z M675.02,546.18
			c-0.48,0-0.88-0.17-1.22-0.51s-0.51-0.75-0.51-1.22c0-0.48,0.17-0.89,0.51-1.23s0.75-0.5,1.22-0.5c0.48,0,0.89,0.17,1.23,0.5
			s0.5,0.75,0.5,1.23c0,0.48-0.17,0.88-0.5,1.22S675.5,546.18,675.02,546.18z M673.86,560.57v-11.72h2.48v11.72H673.86z
			 M676.11,560.57v-2.04h4.05v2.04H676.11z"/>
		<path fill="#E74100" d="M687.39,560.8c-1.63,0-2.86-0.54-3.7-1.61s-1.26-2.64-1.26-4.72c0-2.16,0.42-3.79,1.26-4.9
			s2.07-1.66,3.7-1.66c0.97,0,1.75,0.22,2.36,0.66s0.95,1.05,1.05,1.83h0.96l-0.84,3.54c0-1.28-0.25-2.25-0.76-2.92s-1.24-1-2.22-1
			c-1,0-1.76,0.38-2.27,1.13s-0.77,1.86-0.77,3.33c0,1.39,0.26,2.44,0.77,3.15s1.27,1.07,2.27,1.07c0.98,0,1.72-0.33,2.22-1
			s0.76-1.64,0.76-2.92l0.84,3.54h-1.08c-0.08,0.78-0.41,1.39-0.99,1.83S688.35,560.8,687.39,560.8z M683.45,566.17l-0.12-2.27
			l3.98-0.12c1.26-0.04,2.17-0.39,2.74-1.04s0.86-1.62,0.87-2.89v-9.07l0.23-2.63h2.25v11.32c0,2.21-0.5,3.84-1.51,4.9
			s-2.61,1.62-4.82,1.69L683.45,566.17z"/>
		<path fill="#E74100" d="M697.34,560.57v-17.58h2.48v17.58H697.34z M704.98,560.57v-8.09c0-0.79-0.2-1.4-0.59-1.82
			s-0.94-0.64-1.64-0.64c-1.95,0-2.93,1.19-2.93,3.56l-0.73-3.19h0.96c0.07-0.84,0.38-1.46,0.91-1.87s1.33-0.62,2.37-0.62
			c1.31,0,2.33,0.4,3.05,1.2s1.08,1.92,1.08,3.38v8.09H704.98z"/>
		<path fill="#E74100" d="M710.26,550.19v-2.04h11.25v2.04H710.26z M713.38,554.71V544.4h2.48v10.31H713.38z M718.72,560.8
			c-1.88,0-3.24-0.39-4.08-1.17s-1.26-2.03-1.26-3.75v-2.11h2.48v1.99c0,0.98,0.24,1.7,0.72,2.14s1.27,0.67,2.37,0.67
			c0.39,0,0.8-0.02,1.24-0.06s0.94-0.1,1.5-0.17l0.28,2.18c-0.55,0.09-1.08,0.16-1.6,0.21S719.3,560.8,718.72,560.8z"/>
		<path fill="#E74100" d="M725.38,560.57v-2.04h4.97v2.04H725.38z M726.08,550.19v-2.04h6.52v2.04H726.08z M731.27,546.18
			c-0.48,0-0.88-0.17-1.22-0.51s-0.51-0.75-0.51-1.22c0-0.48,0.17-0.89,0.51-1.23s0.75-0.5,1.22-0.5c0.48,0,0.89,0.17,1.23,0.5
			s0.5,0.75,0.5,1.23c0,0.48-0.17,0.88-0.5,1.22S731.75,546.18,731.27,546.18z M730.11,560.57v-11.72h2.48v11.72H730.11z
			 M732.36,560.57v-2.04h4.05v2.04H732.36z"/>
		<path fill="#E74100" d="M739.53,560.57v-12.42h2.25l0.23,2.63v9.8H739.53z M747.17,560.57v-8.09c0-0.75-0.2-1.33-0.59-1.73
			s-0.94-0.61-1.64-0.61c-1.95,0-2.93,1.15-2.93,3.45l-0.73-3.19h0.96c0.07-0.84,0.38-1.46,0.91-1.87s1.33-0.62,2.37-0.62
			c1.31,0,2.33,0.4,3.05,1.2s1.08,1.92,1.08,3.38v8.09H747.17z"/>
		<path fill="#E74100" d="M757.71,560.8c-1.63,0-2.86-0.54-3.7-1.61s-1.26-2.64-1.26-4.72c0-2.16,0.42-3.79,1.26-4.9
			s2.07-1.66,3.7-1.66c0.97,0,1.75,0.22,2.36,0.66s0.95,1.05,1.05,1.83h0.96l-0.84,3.54c0-1.28-0.25-2.25-0.76-2.92s-1.24-1-2.22-1
			c-1,0-1.76,0.38-2.27,1.13s-0.77,1.86-0.77,3.33c0,1.39,0.26,2.44,0.77,3.15s1.27,1.07,2.27,1.07c0.98,0,1.72-0.33,2.22-1
			s0.76-1.64,0.76-2.92l0.84,3.54H761c-0.08,0.78-0.41,1.39-0.99,1.83S758.66,560.8,757.71,560.8z M753.76,566.17l-0.12-2.27
			l3.98-0.12c1.26-0.04,2.17-0.39,2.74-1.04s0.86-1.62,0.87-2.89v-9.07l0.23-2.63h2.25v11.32c0,2.21-0.5,3.84-1.51,4.9
			s-2.61,1.62-4.82,1.69L753.76,566.17z"/>
	</g>
</g>
<g>
	<g>
		<path fill="#8B1300" d="M482.8,590v-2.04h11.48V590H482.8z M486.71,597.57V586.2c0-4.3,1.96-6.45,5.88-6.45
			c0.89,0,1.75,0.08,2.58,0.23l-0.26,2.16c-0.49-0.06-0.93-0.11-1.3-0.13s-0.74-0.04-1.09-0.04c-2.22,0-3.33,1.37-3.33,4.1v11.48
			H486.71z"/>
		<path fill="#8B1300" d="M501.27,597.8c-1.3,0-2.3-0.31-3.01-0.94s-1.07-1.51-1.07-2.65c0-1.31,0.49-2.32,1.47-3.02
			s2.37-1.05,4.15-1.05c0.74,0,1.4,0.04,1.99,0.13s1.1,0.22,1.55,0.4l-0.52,1.69c-0.52-0.12-1.04-0.19-1.54-0.21
			s-1.01-0.03-1.54-0.03c-2.16,0-3.23,0.66-3.23,1.97c0,0.55,0.19,0.97,0.56,1.27s0.9,0.45,1.58,0.45c0.77,0,1.42-0.13,1.94-0.4
			s0.91-0.61,1.17-1.02s0.39-0.84,0.39-1.28v-1.36l0.73,3.19h-0.98l0.4-0.38c0,0.72-0.17,1.32-0.5,1.8s-0.8,0.84-1.4,1.08
			S502.09,597.8,501.27,597.8z M505.65,597.69l-0.16-3.68l-0.33-1.03v-3.21c0-0.83-0.29-1.44-0.87-1.82s-1.45-0.6-2.6-0.63
			l-2.98-0.08l0.23-2.2l2.51,0.04c2.05,0.03,3.58,0.47,4.58,1.33s1.49,2.1,1.49,3.74v5.18l2.11,0.26v1.99L505.65,597.69z"/>
		<path fill="#8B1300" d="M516.2,597.8c-0.94,0-1.74-0.03-2.41-0.08s-1.28-0.14-1.83-0.27l0.28-2.25c0.82,0.13,1.54,0.22,2.17,0.28
			s1.22,0.09,1.79,0.09c1.26,0,2.17-0.12,2.74-0.37s0.85-0.64,0.85-1.18c0-0.38-0.1-0.65-0.3-0.84s-0.51-0.33-0.92-0.43l-2.86-0.73
			c-1.23-0.31-2.13-0.7-2.7-1.16s-0.86-1.16-0.86-2.1c0-1.36,0.52-2.34,1.56-2.95s2.72-0.91,5.04-0.91c0.6,0,1.16,0.02,1.68,0.05
			s1.05,0.1,1.6,0.18l-0.26,2.16c-0.63-0.06-1.19-0.11-1.68-0.13s-0.96-0.04-1.42-0.04c-1.39,0-2.4,0.12-3.02,0.36
			s-0.94,0.63-0.94,1.17c0,0.36,0.13,0.62,0.39,0.78s0.65,0.31,1.18,0.44l2.3,0.56c1.3,0.31,2.26,0.73,2.87,1.25
			s0.91,1.29,0.91,2.29c0,1.34-0.49,2.31-1.46,2.91S518.35,597.8,516.2,597.8z"/>
		<path fill="#8B1300" d="M525.01,587.19v-2.04h11.25v2.04H525.01z M528.13,591.71V581.4h2.48v10.31H528.13z M533.47,597.8
			c-1.88,0-3.24-0.39-4.08-1.17s-1.26-2.03-1.26-3.75v-2.11h2.48v1.99c0,0.98,0.24,1.7,0.72,2.14s1.27,0.67,2.37,0.67
			c0.39,0,0.8-0.02,1.24-0.06s0.94-0.1,1.5-0.17l0.28,2.18c-0.55,0.09-1.08,0.16-1.6,0.21S534.05,597.8,533.47,597.8z"/>
		<path fill="#8B1300" d="M554.28,602.96v-17.81h2.25l0.23,2.63v15.19H554.28z M560.29,597.8c-0.95,0-1.72-0.22-2.3-0.66
			s-0.91-1.05-0.99-1.83h-1.08l0.84-3.54c0,1.28,0.25,2.25,0.76,2.92s1.24,1,2.22,1c1,0,1.76-0.36,2.27-1.07s0.77-1.76,0.77-3.15
			c0-1.47-0.26-2.58-0.77-3.33s-1.27-1.13-2.27-1.13c-0.98,0-1.72,0.33-2.22,1s-0.76,1.64-0.76,2.92l-0.84-3.54h0.96
			c0.11-0.78,0.46-1.39,1.06-1.83s1.38-0.66,2.35-0.66c1.63,0,2.87,0.55,3.7,1.66s1.25,2.74,1.25,4.9c0,2.08-0.42,3.65-1.25,4.72
			S561.93,597.8,560.29,597.8z"/>
		<path fill="#8B1300" d="M567.31,597.57v-2.04h8.3v2.04H567.31z M567.78,587.19v-2.04h4.15l0.23,2.04H567.78z M570.08,597.57
			v-12.42h2.02l0.47,3.56v8.86H570.08z M572.56,592.22l-0.73-3.89h0.96c0.14-2.28,1.28-3.42,3.42-3.42c1.28,0,2.21,0.37,2.79,1.1
			s0.87,1.92,0.87,3.56h-2.46c0-0.91-0.13-1.56-0.4-1.96s-0.71-0.6-1.31-0.6c-1.05,0-1.84,0.45-2.36,1.35
			S572.56,590.56,572.56,592.22z"/>
		<path fill="#8B1300" d="M587.47,597.8c-1.72,0-3.05-0.56-4.01-1.69s-1.43-2.71-1.43-4.76c0-2.05,0.48-3.64,1.43-4.76
			s2.29-1.68,4.01-1.68c1.73,0,3.06,0.56,4.01,1.68s1.42,2.71,1.42,4.76c0,2.05-0.47,3.63-1.42,4.76S589.2,597.8,587.47,597.8z
			 M587.47,595.58c0.91,0,1.62-0.37,2.12-1.1s0.74-1.77,0.74-3.12c0-1.35-0.25-2.39-0.74-3.12s-1.2-1.1-2.12-1.1
			s-1.62,0.37-2.12,1.1s-0.74,1.77-0.74,3.12c0,1.34,0.25,2.38,0.74,3.12S586.55,595.58,587.47,595.58z"/>
		<path fill="#8B1300" d="M600.58,597.8c-1.63,0-2.86-0.54-3.7-1.61s-1.26-2.64-1.26-4.72c0-2.16,0.42-3.79,1.26-4.9
			s2.07-1.66,3.7-1.66c0.93,0,1.69,0.22,2.27,0.66s0.92,1.05,1.03,1.83h0.96l-0.73,3.54c0-1.28-0.25-2.25-0.76-2.92s-1.24-1-2.22-1
			c-1,0-1.76,0.38-2.27,1.13s-0.77,1.86-0.77,3.33c0,1.39,0.26,2.44,0.77,3.15s1.27,1.07,2.27,1.07c0.98,0,1.72-0.33,2.22-1
			s0.76-1.64,0.76-2.92l0.84,3.54h-1.08c-0.08,0.78-0.41,1.39-0.99,1.83S601.54,597.8,600.58,597.8z M604.37,597.69l-0.26-2.44
			v-15.26h2.48v17.58L604.37,597.69z"/>
		<path fill="#8B1300" d="M614.38,597.8c-1.3,0-2.31-0.39-3.03-1.17s-1.07-1.87-1.07-3.29v-8.2h2.48v8.2c0,0.71,0.2,1.26,0.61,1.65
			s0.98,0.58,1.71,0.58c0.91,0,1.59-0.29,2.05-0.86s0.69-1.54,0.69-2.89l0.63,3.35h-0.82c-0.2,0.84-0.58,1.49-1.15,1.95
			S615.21,597.8,614.38,597.8z M617.82,594.05v-8.91h2.48v8.2L617.82,594.05z M618.03,597.69l-0.21-2.98v-2.18h2.48v2.79l1.71,0.26
			v1.99L618.03,597.69z"/>
		<path fill="#8B1300" d="M630.85,597.8c-2.12,0-3.75-0.56-4.9-1.67s-1.73-2.71-1.73-4.8c0-2.03,0.54-3.61,1.63-4.73
			s2.65-1.69,4.67-1.69c1.21,0,2.25,0.22,3.11,0.67s1.48,1.08,1.85,1.9l-1.91,1.44c-0.35-0.57-0.8-1.01-1.35-1.32
			s-1.14-0.47-1.79-0.47c-1.17,0-2.08,0.35-2.73,1.06s-0.97,1.71-0.97,3.02c0,1.41,0.38,2.49,1.14,3.24s1.85,1.12,3.26,1.12
			c0.58,0,1.16-0.03,1.73-0.08s1.14-0.13,1.69-0.22l0.28,2.18c-0.64,0.14-1.3,0.23-1.99,0.28S631.5,597.8,630.85,597.8z"/>
		<path fill="#8B1300" d="M637.51,587.19v-2.04h11.25v2.04H637.51z M640.63,591.71V581.4h2.48v10.31H640.63z M645.97,597.8
			c-1.88,0-3.24-0.39-4.08-1.17s-1.26-2.03-1.26-3.75v-2.11h2.48v1.99c0,0.98,0.24,1.7,0.72,2.14s1.27,0.67,2.37,0.67
			c0.39,0,0.8-0.02,1.24-0.06s0.94-0.1,1.5-0.17l0.28,2.18c-0.55,0.09-1.08,0.16-1.6,0.21S646.55,597.8,645.97,597.8z"/>
	</g>
</g>
<circle fill="#E74700" cx="287.5" cy="429.5" r="10.5"/>
<circle fill="#E74700" cx="365.5" cy="556.5" r="8.5"/>
<circle fill="#E74700" cx="467.5" cy="588.5" r="9.5"/>
</svg>
