<svg xmlns="http://www.w3.org/2000/svg" fill="none" viewBox="0 0 32 32" id="Et-Ethiopia--Streamline-Flagpack" height="24" width="24">
  <desc>
    ET Ethiopia Streamline Icon: https://streamlinehq.com
  </desc>
  <path fill="#feca00" fill-rule="evenodd" d="M0 4v24h32V4H0Z" clip-rule="evenodd"></path>
  <mask id="a" width="32" height="24" x="0" y="4" maskUnits="userSpaceOnUse" style="mask-type:luminance">
    <path fill="#ffffff" fill-rule="evenodd" d="M0 4v24h32V4H0Z" clip-rule="evenodd"></path>
  </mask>
  <g mask="url(#a)">
    <path fill="#5eaa22" fill-rule="evenodd" d="M0 4v8h32V4H0Z" clip-rule="evenodd"></path>
    <path fill="#e31d1c" fill-rule="evenodd" d="M0 20v8h32v-8H0Z" clip-rule="evenodd"></path>
    <path fill="#2B77B8" fill-rule="evenodd" d="M16 22a6 6 0 1 0 0-12 6 6 0 0 0 0 12Z" clip-rule="evenodd"></path>
    <path stroke="#feca00" stroke-width="1.5" d="m16 18-2.762.927.86-2.309-1.874-2.236h2.6L16 12l1.175 2.382h2.658l-1.931 2.236.685 2.309L16 18Z" clip-rule="evenodd"></path>
    <path stroke="#2B77B8" d="m15.696 16.035-2.085 4.36m1.757-4.915h-4m4.754 1.357 3.909 1.805m-3.064-2.768 2.83-3.098"></path>
  </g>
</svg>