<?xml version="1.0" encoding="utf-8"?>
<!-- Generator: Adobe Illustrator 24.0.2, SVG Export Plug-In . SVG Version: 6.00 Build 0)  -->
<svg version="1.0" id="Layer_1" xmlns="http://www.w3.org/2000/svg" xmlns:xlink="http://www.w3.org/1999/xlink" x="0px" y="0px"
	 viewBox="0 0 1366 768" enable-background="new 0 0 1366 768" xml:space="preserve">
<polygon fill="#FFF145" points="176.92,413.35 118.59,434.59 99.41,493.63 65.35,445.93 4.63,450.06 41.91,399.34 23.56,342.85 
	80.66,359.2 130.04,320.16 128.05,380.99 "/>
<polygon fill="#FFF145" points="459.96,413.33 401.63,434.57 382.45,493.61 348.39,445.91 287.68,450.04 324.96,399.32 
	306.61,342.83 363.71,359.18 413.09,320.14 411.1,380.97 "/>
<polygon fill="#FFF145" points="759.37,413.09 701.04,434.33 681.86,493.37 647.8,445.67 587.08,449.79 624.36,399.07 
	606.02,342.58 663.12,358.93 712.49,319.9 710.5,380.72 "/>
<polygon fill="#FFF145" points="1074.53,413.25 1016.2,434.49 997.02,493.53 962.96,445.83 902.24,449.95 939.52,399.23 
	921.18,342.74 978.28,359.09 1027.66,320.06 1025.67,380.88 "/>
<polygon fill="#FFF145" points="1366.06,413.3 1307.73,434.54 1288.55,493.58 1254.49,445.88 1193.77,450 1231.05,399.28 
	1212.7,342.79 1269.8,359.14 1319.18,320.11 1317.19,380.93 "/>
</svg>
