<?xml version="1.0" encoding="utf-8"?>
<!-- Generator: Adobe Illustrator 24.0.2, SVG Export Plug-In . SVG Version: 6.00 Build 0)  -->
<svg version="1.0" id="Layer_1" xmlns="http://www.w3.org/2000/svg" xmlns:xlink="http://www.w3.org/1999/xlink" x="0px" y="0px"
	 viewBox="0 0 1366 768" enable-background="new 0 0 1366 768" xml:space="preserve">
<path fill="#F7F7F7" stroke="#1793FF" stroke-miterlimit="10" d="M117.37,31.35L771.09,30c54.47-0.11,98.75,33.67,98.9,75.46
	l0.41,118.49c0.08,23.86-14.51,46.36-39.39,60.69L472.1,491.51c-17.01,9.81-37.7,15.13-58.98,15.17l-294.08,0.61
	c-54.47,0.11-98.75-33.67-98.9-75.46L19,107.21C18.85,65.43,62.89,31.46,117.37,31.35z"/>
<g>
	<path fill="#F7F7F7" d="M582.93,756.11c-30.92-0.16-59.3-11.13-77.88-30.11c-13.07-13.34-19.84-29.24-19.58-45.96l1.85-118.25
		c0.37-23.46,15.33-45.77,40.02-59.66l363.27-204.49c16.97-9.55,37.06-14.6,58.11-14.6l294.31,1.53
		c30.92,0.16,59.3,11.13,77.88,30.11c13.07,13.34,19.84,29.24,19.58,45.96l-5.09,324.6c-0.31,19.88-10.65,38.54-29.12,52.53
		c-18.5,14.01-43,21.73-68.99,21.73L582.93,756.11z"/>
	<path fill="#FF4700" d="M948.72,282.55v1l0.66,0l293.65,1.52c30.78,0.16,59.04,11.08,77.53,29.96
		c12.97,13.25,19.69,29.02,19.43,45.6l-5.09,324.6c-0.31,19.73-10.58,38.24-28.92,52.14c-18.41,13.95-42.8,21.63-68.69,21.63
		l-0.68,0l-653.68-3.39c-30.78-0.16-59.04-11.08-77.53-29.96c-12.97-13.25-19.69-29.02-19.43-45.6l1.85-118.25
		c0.18-11.47,3.89-22.93,10.74-33.14c6.87-10.24,16.9-19.27,29.03-26.09l363.27-204.49c16.89-9.51,36.9-14.53,57.86-14.53V282.55
		 M948.72,282.55c-20.98,0-41.43,5.13-58.35,14.66L527.09,501.69c-24.99,14.06-39.9,36.32-40.27,60.09l-1.85,118.25
		c-0.66,41.94,43.28,76.29,97.96,76.57l653.68,3.39c0.23,0,0.45,0,0.68,0c53.96,0,97.96-33.3,98.61-74.75l5.09-324.6
		c0.66-41.94-43.28-76.29-97.96-76.57l-293.65-1.52C949.16,282.55,948.94,282.55,948.72,282.55L948.72,282.55z"/>
</g>
<g>
	<g>
		<path fill="#001145" d="M130.26,96.9c15.55,33.72,26.3,56.69,29.94,66.11h0.19c2.11-5.45,12.86-27.39,31.48-66.11h10.17
			l-36.28,73.62h-11.52L120.09,96.9H130.26z"/>
		<path fill="#001145" d="M222.97,134.59c0.19,18.99,12.67,30.77,31.1,30.77c18.04,0,24.19-7.8,27.64-13.84h9.79
			c-4.03,9.72-14.2,20.76-37.81,20.76c-29.18,0-40.5-19.29-40.5-37.99c0-21.06,13.63-39.17,41.65-39.17
			c29.56,0,38.97,19.58,38.97,33.43c0,2.06,0,4.12-0.19,6.04H222.97z M283.82,128.12c-0.19-14.58-10.56-26.06-29.37-26.06
			c-19.77,0-28.79,10.6-30.9,26.06H283.82z"/>
		<path fill="#001145" d="M317.22,150.2c3.26,9.57,12.09,15.31,27.26,15.31c17.08,0,23.99-6.04,23.99-14.28
			c0-8.39-4.61-12.52-26.11-16.49c-24.76-4.56-30.9-10.31-30.9-20.03c0-10.16,9.98-19.58,31.67-19.58s32.06,10.16,33.59,20.61h-9.6
			c-1.73-6.18-8.06-13.84-24.38-13.84c-16.7,0-21.5,6.33-21.5,12.22c0,6.77,4.61,10.16,23.61,13.69
			c27.07,5.01,33.78,11.78,33.78,22.82c0,13.4-14.2,21.65-34.36,21.65c-21.88,0-34.17-8.83-36.86-22.09H317.22z"/>
		<path fill="#001145" d="M412.04,159.63v40.35h-9.6v-84.96c0-6.04,0-12.52-0.19-18.11h9.41c0.38,2.8,0.38,7.21,0.38,13.25
			c5.95-8.83,16.51-15.02,33.78-15.02c22.65,0,38.39,14.58,38.39,36.66c0,26.5-18.43,40.49-41.65,40.49
			C425.67,172.29,416.84,166.55,412.04,159.63z M474.05,132.09c0-17.08-10.75-29.89-29.75-29.89c-23.23,0-32.82,11.19-32.82,31.22
			c0,19.73,7.49,31.95,31.48,31.95C462.91,165.37,474.05,152.41,474.05,132.09z"/>
		<path fill="#001145" d="M510.32,134.59c0.19,18.99,12.67,30.77,31.1,30.77c18.04,0,24.19-7.8,27.64-13.84h9.79
			c-4.03,9.72-14.2,20.76-37.81,20.76c-29.18,0-40.5-19.29-40.5-37.99c0-21.06,13.63-39.17,41.65-39.17
			c29.56,0,38.97,19.58,38.97,33.43c0,2.06,0,4.12-0.19,6.04H510.32z M571.17,128.12c-0.19-14.58-10.56-26.06-29.37-26.06
			c-19.77,0-28.79,10.6-30.9,26.06H571.17z"/>
		<path fill="#001145" d="M604.57,116.92c0-12.37-0.19-17.67-0.19-20.03h9.41c0.19,2.36,0.38,7.07,0.38,16.49
			c5.57-11.04,17.85-17.67,33.4-18.26v7.95c-19.96,1.03-33.4,11.63-33.4,29.16v38.28h-9.6V116.92z"/>
	</g>
</g>
<g>
	<g>
		<path fill="#FF5D00" d="M658.13,466.85c2.11-11.93,13.24-23.56,37.05-23.56c24.19,0,35.32,11.93,35.32,24.29
			c0,11.93-9.41,18.26-17.66,20.32v0.29c13.44,3.09,23.42,11.04,23.42,25.18c0,16.34-13.44,30.33-41.46,30.33
			c-25.72,0-38.58-12.81-40.89-25.77h9.98c3.07,9.87,13.24,18.7,31.67,18.7c21.69,0,30.14-11.19,30.14-22.97
			c0-15.46-13.25-21.65-31.86-21.65h-7.49v-6.77h5.95c19.2,0,27.83-6.18,27.83-17.67c0-10.16-9.21-17.23-25.34-17.23
			c-16.7,0-23.99,6.77-27.07,16.49H658.13z"/>
		<path fill="#FF5D00" d="M840.49,492.77c0,22.23-7.49,50.95-41.27,50.95c-32.82,0-41.08-26.36-41.08-50.21
			c0-23.71,8.83-50.21,41.65-50.21C832.81,443.29,840.49,469.8,840.49,492.77z M768.89,493.65c0,18.85,5.18,43,30.33,43
			c25.72,0,30.71-23.12,30.71-43.88c0-18.55-4.99-42.41-29.95-42.41C773.88,450.36,768.89,472.16,768.89,493.65z"/>
		<path fill="#FF5D00" d="M920.53,470.68c0,15.02-9.98,27.68-31.29,27.68c-19.96,0-30.14-11.93-30.14-27.39
			c0-14.58,10.17-27.68,30.52-27.68C909.2,443.29,920.53,454.34,920.53,470.68z M868.7,470.68c0,11.93,7.29,20.76,21.31,20.76
			c13.25,0,20.92-8.39,20.92-20.76c0-12.22-7.68-20.47-21.5-20.47C876.96,450.21,868.7,457.72,868.7,470.68z M885.4,541.95
			l85.23-96.89h10.56l-85.04,96.89H885.4z M1007.48,516.18c0,14.87-9.79,27.68-31.29,27.68c-20.35,0-30.14-12.66-30.14-27.39
			c0-14.58,9.98-27.68,30.52-27.68C996.54,488.79,1007.48,499.84,1007.48,516.18z M955.66,516.18c0,11.78,7.29,20.76,21.31,20.76
			c13.25,0,20.92-8.39,20.92-20.76c0-12.07-7.68-20.47-21.5-20.47C964.29,495.71,955.66,503.81,955.66,516.18z"/>
		<path fill="#FF5D00" d="M1106.72,504.99c0,20.47-14.78,38.73-43.38,38.73c-25.91,0-42.04-16.34-42.04-38.58
			c0-21.06,15.16-38.58,43-38.58C1089.83,466.56,1106.72,481.87,1106.72,504.99z M1031.47,505.14c0,17.52,12.29,31.66,32.63,31.66
			c20.73,0,32.44-13.11,32.44-31.66c0-17.38-11.52-31.66-32.82-31.66C1041.84,473.48,1031.47,487.47,1031.47,505.14z"/>
		<path fill="#FF5D00" d="M1142.61,475.25v66.7h-9.6v-66.7h-16.51v-6.92h16.51v-10.16c0-12.66,3.65-26.21,25.15-26.21
			c2.88,0,6.33,0.15,8.64,1.03v6.92c-2.69-0.74-6.53-1.03-9.21-1.03c-10.75,0-14.97,5.45-14.97,18.11v11.34h38.58v-10.16
			c0-12.66,4.03-26.21,25.15-26.21c2.88,0,6.33,0.15,8.64,1.03v6.92c-2.69-0.74-6.53-1.03-9.21-1.03
			c-10.75,0-14.97,5.45-14.97,18.11v11.34h20.35v6.92h-20.35v66.7h-9.6v-66.7H1142.61z"/>
	</g>
</g>
<g>
	<g>
		<path d="M557.39,660.46v-40.02h-9.9v-4.15h9.9v-6.27c0-7.42,2.76-15.55,15.66-15.55c1.73,0,4.26,0.26,5.64,0.62v4.24
			c-1.73-0.35-4.49-0.53-6.22-0.53c-6.8,0-9.33,3.71-9.33,11.4v6.1h12.55v4.15h-12.55v40.02H557.39z"/>
		<path d="M624.3,652.06c0,3.89,0.46,6.98,0.81,8.39h-5.53c-0.46-1.06-0.81-3-1.04-6.8c-1.96,3.27-7.03,7.86-18.89,7.86
			c-13.36,0-19.12-6.63-19.12-13.25c0-9.72,9.79-14.14,27.07-14.14c4.84,0,8.64,0,10.94,0v-4.51c0-4.42-1.73-10.34-14.86-10.34
			c-11.63,0-13.36,4.68-14.63,8.3h-5.76c0.69-4.86,4.61-12.37,20.5-12.37c13.13,0,20.5,4.24,20.5,13.96V652.06z M618.66,637.93
			c-2.19,0-7.49,0-11.29,0c-12.78,0-20.73,2.56-20.73,10.16c0,5.57,5.18,9.37,13.24,9.37c16.47,0,18.77-8.39,18.77-17.93V637.93z"/>
		<path d="M643.3,648.27c1.96,5.74,7.26,9.19,16.35,9.19c10.25,0,14.4-3.62,14.4-8.57c0-5.04-2.76-7.51-15.66-9.9
			c-14.86-2.74-18.54-6.18-18.54-12.02c0-6.1,5.99-11.75,19-11.75s19.23,6.1,20.16,12.37h-5.76c-1.04-3.71-4.84-8.3-14.63-8.3
			c-10.02,0-12.9,3.8-12.9,7.33c0,4.06,2.76,6.1,14.17,8.22c16.24,3,20.27,7.07,20.27,13.69c0,8.04-8.52,12.99-20.62,12.99
			c-13.13,0-20.5-5.3-22.11-13.25H643.3z"/>
		<path d="M685.8,616.28h10.71V602.5h5.76v13.78h13.71v4.15h-13.71v28.71c0,4.95,1.38,7.77,6.91,7.77c1.73,0,4.15-0.09,5.99-0.53
			v3.89c-1.96,0.62-4.72,0.79-7.14,0.79c-7.37,0-11.52-2.83-11.52-9.89v-30.75H685.8V616.28z"/>
		<path d="M763.42,653.92v24.21h-5.76v-50.98c0-3.62,0-7.51-0.12-10.87h5.64c0.23,1.68,0.23,4.33,0.23,7.95
			c3.57-5.3,9.9-9.01,20.27-9.01c13.59,0,23.03,8.75,23.03,22c0,15.9-11.06,24.3-24.99,24.3
			C771.6,661.52,766.3,658.07,763.42,653.92z M800.63,637.4c0-10.25-6.45-17.93-17.85-17.93c-13.94,0-19.69,6.71-19.69,18.73
			c0,11.84,4.49,19.17,18.89,19.17C793.95,657.37,800.63,649.59,800.63,637.4z"/>
		<path d="M821.13,628.3c0-7.42-0.12-10.6-0.12-12.01h5.64c0.12,1.41,0.23,4.24,0.23,9.89c3.34-6.63,10.71-10.6,20.04-10.96v4.77
			c-11.98,0.62-20.04,6.98-20.04,17.49v22.97h-5.76V628.3z"/>
		<path d="M905.08,638.28c0,12.28-8.87,23.24-26.03,23.24c-15.55,0-25.22-9.81-25.22-23.15c0-12.63,9.1-23.15,25.8-23.15
			C894.95,615.22,905.08,624.41,905.08,638.28z M859.94,638.37c0,10.51,7.37,19,19.58,19c12.44,0,19.46-7.86,19.46-19
			c0-10.43-6.91-19-19.69-19C866.16,619.38,859.94,627.77,859.94,638.37z"/>
		<path d="M963.82,595.35v52.39c0,4.24,0,8.3,0.12,12.72h-5.53c-0.23-1.06-0.35-5.21-0.35-7.42c-2.88,5.39-9.33,8.48-19.35,8.48
			c-14.97,0-23.96-9.37-23.96-22.62c0-13.61,9.79-23.68,25.45-23.68c11.52,0,16.12,3.8,17.85,6.63v-26.5H963.82z M920.86,638.72
			c0,12.1,8.18,18.64,18.08,18.64c15.2,0,19.35-8.04,19.35-20.06c0-11.4-3.57-17.93-18.31-17.93
			C928.58,619.38,920.86,626.36,920.86,638.72z"/>
		<path d="M1025.78,647.56c0,4.33,0.12,11.22,0.12,12.9h-5.53c-0.23-1.15-0.34-4.06-0.34-7.69c-2.42,5.21-8.29,8.75-18.54,8.75
			c-8.29,0-18.89-2.47-18.89-15.99v-29.24h5.64v28.18c0,6.45,2.65,12.72,14.05,12.72c12.9,0,17.74-5.57,17.74-18.2v-22.71h5.76
			V647.56z"/>
		<path d="M1087.05,647.47c-2.76,7.77-9.44,14.05-22.34,14.05c-14.4,0-24.65-8.22-24.65-22.97c0-12.1,8.41-23.32,25.34-23.32
			c14.63,0,20.62,7.95,21.65,14.14h-5.87c-1.73-5.12-6.1-9.98-15.89-9.98c-12.21,0-19.12,7.95-19.12,19c0,10.51,6.45,19,18.54,19
			c8.41,0,13.48-3.27,16.47-9.9H1087.05z"/>
		<path d="M1091.77,616.28h10.71V602.5h5.76v13.78h13.71v4.15h-13.71v28.71c0,4.95,1.38,7.77,6.91,7.77c1.73,0,4.15-0.09,5.99-0.53
			v3.89c-1.96,0.62-4.72,0.79-7.14,0.79c-7.37,0-11.52-2.83-11.52-9.89v-30.75h-10.71V616.28z"/>
		<path d="M1133.69,648.27c1.96,5.74,7.26,9.19,16.35,9.19c10.25,0,14.4-3.62,14.4-8.57c0-5.04-2.76-7.51-15.66-9.9
			c-14.86-2.74-18.54-6.18-18.54-12.02c0-6.1,5.99-11.75,19-11.75c13.01,0,19.23,6.1,20.16,12.37h-5.76
			c-1.04-3.71-4.84-8.3-14.63-8.3c-10.02,0-12.9,3.8-12.9,7.33c0,4.06,2.76,6.1,14.17,8.22c16.24,3,20.27,7.07,20.27,13.69
			c0,8.04-8.52,12.99-20.62,12.99c-13.13,0-20.5-5.3-22.11-13.25H1133.69z"/>
	</g>
</g>
<ellipse fill="#F37600" stroke="#F37600" stroke-miterlimit="10" cx="1230.23" cy="548.01" rx="98.95" ry="69.25"/>
<g>
	<g>
		<path fill="#FCFFFF" d="M1173.87,540.98c-2.05,0-3.8-0.04-5.26-0.13c-1.46-0.08-2.79-0.22-4-0.41l0.61-3.44
			c1.79,0.19,3.37,0.33,4.75,0.43c1.37,0.1,2.67,0.14,3.9,0.14c2.75,0,4.74-0.19,5.97-0.56c1.24-0.38,1.85-0.98,1.85-1.8
			c0-0.57-0.22-1-0.65-1.28s-1.1-0.5-2.01-0.65l-6.24-1.11c-2.68-0.48-4.64-1.07-5.9-1.77c-1.25-0.7-1.88-1.77-1.88-3.21
			c0-2.08,1.14-3.58,3.42-4.51c2.28-0.93,5.95-1.4,11.01-1.4c1.31,0,2.54,0.03,3.67,0.08c1.13,0.05,2.3,0.15,3.49,0.28l-0.56,3.29
			c-1.38-0.1-2.6-0.16-3.66-0.2s-2.09-0.05-3.09-0.05c-3.04,0-5.24,0.18-6.6,0.55c-1.37,0.36-2.05,0.96-2.05,1.78
			c0,0.55,0.28,0.95,0.84,1.19c0.56,0.25,1.42,0.47,2.58,0.67l5.01,0.86c2.85,0.48,4.93,1.12,6.25,1.92
			c1.32,0.8,1.98,1.96,1.98,3.49c0,2.04-1.07,3.52-3.2,4.45S1178.58,540.98,1173.87,540.98z"/>
		<path fill="#FCFFFF" d="M1202.68,540.98c-2.83,0-5.02-0.48-6.57-1.43c-1.55-0.95-2.33-2.3-2.33-4.05c0-2,1.07-3.54,3.21-4.62
			c2.14-1.07,5.16-1.61,9.07-1.61c1.62,0,3.06,0.07,4.34,0.21c1.27,0.14,2.4,0.34,3.39,0.62l-1.13,2.58
			c-1.14-0.18-2.26-0.28-3.35-0.31c-1.09-0.03-2.21-0.04-3.35-0.04c-4.71,0-7.06,1-7.06,3.01c0,0.83,0.41,1.48,1.22,1.93
			c0.81,0.45,1.96,0.68,3.44,0.68c1.69,0,3.1-0.2,4.23-0.61c1.13-0.41,1.98-0.92,2.54-1.56c0.56-0.63,0.84-1.28,0.84-1.95v-2.08
			l1.59,4.87h-2.15l0.87-0.57c0,1.1-0.36,2.01-1.09,2.75c-0.73,0.73-1.74,1.28-3.06,1.65
			C1206.02,540.79,1204.47,540.98,1202.68,540.98z M1212.24,540.8l-0.36-5.62l-0.72-1.58v-4.91c0-1.26-0.63-2.19-1.91-2.78
			s-3.16-0.91-5.67-0.96l-6.5-0.13l0.51-3.37l5.47,0.05c4.49,0.05,7.81,0.73,9.99,2.03c2.17,1.31,3.26,3.21,3.26,5.72v7.91l4.6,0.39
			v3.04L1212.24,540.8z"/>
		<path fill="#FCFFFF" d="M1233.76,540.62l-9.69-18.98h5.78l7.29,15.75h0.46l7.29-15.75h5.78l-9.69,18.98H1233.76z"/>
		<path fill="#FCFFFF" d="M1270.67,540.98c-4.62,0-8.19-0.85-10.71-2.55c-2.52-1.7-3.77-4.14-3.77-7.33c0-3.1,1.07-5.51,3.2-7.23
			c2.13-1.72,5.14-2.58,9.03-2.58c3.67,0,6.5,0.78,8.51,2.33c2,1.55,3,3.81,3,6.77c0,0.87-0.05,1.68-0.15,2.43h-19.03v-2.9h14.27
			c0-1.71-0.58-3.02-1.74-3.93c-1.16-0.91-2.76-1.37-4.81-1.37c-2.3,0-4.09,0.55-5.36,1.65c-1.27,1.1-1.91,2.65-1.91,4.65
			c0,2.2,0.87,3.87,2.62,5.01s4.23,1.72,7.46,1.72c1.13,0,2.23-0.04,3.33-0.13c1.09-0.09,2.2-0.21,3.33-0.37l0.67,3.33
			c-1.6,0.21-3.07,0.35-4.4,0.41S1271.69,540.98,1270.67,540.98z"/>
	</g>
</g>
<g>
	<g>
		<path fill="#96A200" d="M130.42,201.44h7.68v11.43h-7.68V201.44z M130.42,229.36h7.68v58.9h-7.68V229.36z"/>
		<path fill="#96A200" d="M163.28,244.2c0-5.18,0-10.13-0.15-14.84h7.52c0.31,1.88,0.46,9.54,0.31,11.19
			c3.38-6.01,9.67-12.6,25.49-12.6c13.67,0,25.8,5.89,25.8,22.15v38.17h-7.68v-37.22c0-10.48-5.68-17.32-19.04-17.32
			c-18.27,0-24.57,11.66-24.57,24.5v30.04h-7.68V244.2z"/>
		<path fill="#96A200" d="M247.43,244.2c0-5.18,0-10.13-0.15-14.84h7.52c0.31,1.88,0.46,9.54,0.31,11.19
			c3.38-6.01,9.67-12.6,25.49-12.6c13.67,0,25.8,5.89,25.8,22.15v38.17h-7.68v-37.22c0-10.48-5.68-17.32-19.04-17.32
			c-18.27,0-24.57,11.66-24.57,24.5v30.04h-7.68V244.2z"/>
		<path fill="#96A200" d="M393.77,258.69c0,16.37-11.82,30.98-34.71,30.98c-20.73,0-33.63-13.08-33.63-30.86
			c0-16.84,12.13-30.86,34.4-30.86C380.26,227.94,393.77,240.2,393.77,258.69z M333.57,258.81c0,14.02,9.83,25.33,26.11,25.33
			c16.58,0,25.95-10.48,25.95-25.33c0-13.9-9.21-25.33-26.26-25.33C341.87,233.48,333.57,244.67,333.57,258.81z"/>
		<path fill="#96A200" d="M410.81,229.36c12.44,26.98,21.04,45.35,23.96,52.89h0.15c1.69-4.36,10.29-21.91,25.18-52.89h8.14
			l-29.02,58.9h-9.21l-27.33-58.9H410.81z"/>
		<path fill="#96A200" d="M535.97,277.07c0,5.18,0.61,9.31,1.07,11.19h-7.37c-0.61-1.41-1.07-4.01-1.38-9.07
			c-2.61,4.36-9.37,10.48-25.18,10.48c-17.81,0-25.49-8.83-25.49-17.67c0-12.96,13.05-18.85,36.09-18.85c6.45,0,11.52,0,14.59,0
			v-6.01c0-5.89-2.3-13.78-19.81-13.78c-15.51,0-17.81,6.24-19.5,11.07h-7.68c0.92-6.48,6.14-16.49,27.33-16.49
			c17.51,0,27.33,5.65,27.33,18.61V277.07z M528.44,258.22c-2.92,0-9.98,0-15.05,0c-17.05,0-27.64,3.42-27.64,13.55
			c0,7.42,6.91,12.49,17.66,12.49c21.96,0,25.03-11.19,25.03-23.91V258.22z"/>
		<path fill="#96A200" d="M549.79,229.36h14.28v-18.38h7.68v18.38h18.27v5.54h-18.27v38.28c0,6.6,1.84,10.37,9.21,10.37
			c2.3,0,5.53-0.12,7.99-0.71v5.18c-2.61,0.82-6.3,1.06-9.52,1.06c-9.83,0-15.36-3.77-15.36-13.19V234.9h-14.28V229.36z"/>
		<path fill="#96A200" d="M605.68,201.44h7.68v11.43h-7.68V201.44z M605.68,229.36h7.68v58.9h-7.68V229.36z"/>
		<path fill="#96A200" d="M700.74,258.69c0,16.37-11.82,30.98-34.71,30.98c-20.73,0-33.63-13.08-33.63-30.86
			c0-16.84,12.13-30.86,34.4-30.86C687.22,227.94,700.74,240.2,700.74,258.69z M640.54,258.81c0,14.02,9.83,25.33,26.11,25.33
			c16.58,0,25.95-10.48,25.95-25.33c0-13.9-9.21-25.33-26.26-25.33C648.83,233.48,640.54,244.67,640.54,258.81z"/>
		<path fill="#96A200" d="M719.78,244.2c0-5.18,0-10.13-0.15-14.84h7.52c0.31,1.88,0.46,9.54,0.31,11.19
			c3.38-6.01,9.67-12.6,25.49-12.6c13.67,0,25.8,5.89,25.8,22.15v38.17h-7.68v-37.22c0-10.48-5.68-17.32-19.04-17.32
			c-18.27,0-24.57,11.66-24.57,24.5v30.04h-7.68V244.2z"/>
	</g>
</g>
<g>
	<g>
		<path d="M141.49,391.12c-3.84,2.18-9.98,3.95-19.12,3.95c-17.2,0-29.1-8.95-29.1-23.44c0-14.37,12.36-25.97,32.71-25.97
			c15.36,0,27.87,7.54,27.87,20.38c0,10.72-7.29,17.14-16.2,17.14c-4.3,0-7.22-1.47-6.91-5.18c-2.53,3.24-5.91,5.18-11.36,5.18
			c-5.99,0-10.75-3.36-10.75-10.31c0-9.07,6.83-16.08,15.82-16.08c6.99,0,9.21,3.24,9.83,5.3l1.46-4.71h3.69l-4.76,17.14
			c-1.23,4.42,0.54,5.77,3.53,5.77c6.76,0,11.44-5.48,11.44-14.02c0-10.78-9.6-17.73-23.96-17.73c-17.35,0-28.03,9.95-28.1,23.09
			c-0.08,11.78,9.67,20.44,25.03,20.44c6.22,0,12.44-1,17.58-3.59L141.49,391.12z M112.69,372.57c0,5.07,2.76,7.72,7.29,7.72
			c5.53,0,9.67-2.71,11.82-10.13c2-6.77-0.54-10.54-7.45-10.54C116.99,359.61,112.69,365.62,112.69,372.57z"/>
		<path d="M193.85,376.22c-1.84,5.18-6.3,9.36-14.9,9.36c-9.6,0-16.43-5.48-16.43-15.31c0-8.07,5.6-15.55,16.89-15.55
			c9.75,0,13.74,5.3,14.44,9.42h-3.92c-1.15-3.42-4.07-6.66-10.6-6.66c-8.14,0-12.75,5.3-12.75,12.66c0,7.01,4.3,12.66,12.36,12.66
			c5.6,0,8.98-2.18,10.98-6.6H193.85z"/>
		<path d="M233.85,370.09c0,8.19-5.91,15.49-17.35,15.49c-10.37,0-16.82-6.54-16.82-15.43c0-8.42,6.07-15.43,17.2-15.43
			C227.1,354.72,233.85,360.85,233.85,370.09z M203.75,370.15c0,7.01,4.91,12.66,13.05,12.66c8.29,0,12.98-5.24,12.98-12.66
			c0-6.95-4.61-12.66-13.13-12.66C207.9,357.49,203.75,363.08,203.75,370.15z"/>
		<path d="M247.21,380.52v16.14h-3.84v-33.98c0-2.41,0-5.01-0.08-7.24h3.76c0.15,1.12,0.15,2.89,0.15,5.3
			c2.38-3.53,6.6-6.01,13.51-6.01c9.06,0,15.36,5.83,15.36,14.67c0,10.6-7.37,16.2-16.66,16.2
			C252.66,385.58,249.13,383.29,247.21,380.52z M272.01,369.5c0-6.83-4.3-11.96-11.9-11.96c-9.29,0-13.13,4.48-13.13,12.49
			c0,7.89,2.99,12.78,12.59,12.78C267.56,382.81,272.01,377.63,272.01,369.5z"/>
		<path d="M284.68,355.43c7.75,16.85,11.13,23.8,12.44,26.98h0.08c1.54-3.59,4.61-10.43,12.05-26.98h3.99l-14.44,31.16
			c-4.07,8.72-6.83,10.66-13.74,10.66c-1.38,0-2.3-0.06-3.53-0.18v-2.94c1.15,0.12,2.23,0.18,3.46,0.18c5.53,0,7.29-2.06,10.14-8.13
			l-14.67-30.75H284.68z"/>
		<path d="M320.61,363.44c0-4.95-0.08-7.07-0.08-8.01h3.76c0.08,0.94,0.15,2.83,0.15,6.6c2.23-4.42,7.14-7.07,13.36-7.3v3.18
			c-7.99,0.41-13.36,4.65-13.36,11.66v15.31h-3.84V363.44z"/>
		<path d="M345.49,341.47h3.84v5.71h-3.84V341.47z M345.49,355.43h3.84v29.45h-3.84V355.43z"/>
		<path d="M391.25,382.87c0,9.42-5.45,14.37-16.58,14.37c-9.98,0-14.13-4.3-15.05-8.78h3.92c1.38,4.06,5.76,6.01,11.29,6.01
			c9.98,0,12.75-4.95,12.75-12.43v-3.06c-2.07,3.83-5.84,5.89-12.82,5.89c-8.98,0-15.89-5.6-15.89-14.72
			c0-9.9,7.37-15.43,16.43-15.43c7.83,0,11.21,2.83,12.29,5.18c0.08-1.71,0.15-3.77,0.23-4.48h3.61c0,1.06-0.15,5.71-0.15,8.54
			V382.87z M362.92,370.03c0,7.01,4.84,12.07,12.21,12.07c9.6,0,12.52-4.89,12.52-12.55c0-7.77-3.07-12.07-12.29-12.07
			C366.53,357.49,362.92,363.32,362.92,370.03z"/>
		<path d="M407.68,341.47v18.91c2.15-3.06,5.91-5.65,12.67-5.65c5.45,0,12.98,2.12,12.98,11.43v18.73h-3.84v-18.14
			c0-5.83-3.46-9.13-9.83-9.13c-7.6,0-11.98,3.59-11.98,10.84v16.43h-3.84v-43.41H407.68z"/>
		<path d="M440.16,355.43h7.14v-9.19h3.84v9.19h9.14v2.77h-9.14v19.14c0,3.3,0.92,5.18,4.61,5.18c1.15,0,2.76-0.06,3.99-0.35v2.59
			c-1.31,0.41-3.15,0.53-4.76,0.53c-4.91,0-7.68-1.89-7.68-6.6v-20.5h-7.14V355.43z"/>
	</g>
</g>
<g>
	<g>
		<path d="M191.63,466.68v-0.18c0-4.83,5.37-10.84,15.43-16.84c8.75-5.24,10.98-6.83,10.98-11.72c0-4.24-3.07-7.89-10.37-7.89
			c-6.91,0-10.52,2.53-11.82,8.19h-3.92c1-6.48,6.3-11.01,15.74-11.01c10.21,0,14.59,5.36,14.59,10.54c0,6.01-3.3,8.01-12.67,13.9
			c-7.45,4.65-11.98,8.36-13.51,12.13h28.26l-0.69,2.89H191.63z"/>
		<path d="M263.96,447.01c0,8.89-2.99,20.38-16.51,20.38c-13.13,0-16.43-10.54-16.43-20.08c0-9.48,3.53-20.08,16.66-20.08
			C260.89,427.22,263.96,437.82,263.96,447.01z M235.32,447.36c0,7.54,2.07,17.2,12.13,17.2c10.29,0,12.29-9.25,12.29-17.55
			c0-7.42-2-16.96-11.98-16.96C237.32,430.05,235.32,438.76,235.32,447.36z"/>
		<path d="M271.79,466.68v-0.18c0-4.83,5.37-10.84,15.43-16.84c8.75-5.24,10.98-6.83,10.98-11.72c0-4.24-3.07-7.89-10.37-7.89
			c-6.91,0-10.52,2.53-11.82,8.19h-3.92c1-6.48,6.3-11.01,15.74-11.01c10.21,0,14.59,5.36,14.59,10.54c0,6.01-3.3,8.01-12.67,13.9
			c-7.45,4.65-11.98,8.36-13.51,12.13h28.26l-0.69,2.89H271.79z"/>
		<path d="M341.58,430.81h-21.73c-0.54,3.83-2.07,11.13-2.69,13.55c2.3-2.24,5.91-3.83,11.59-3.83c8.75,0,14.97,4.54,14.97,12.84
			c0,7.6-5.07,14.02-16.35,14.02c-8.37,0-14.36-3.77-15.82-10.13h4.07c1.31,4.12,5.22,7.3,11.98,7.3c7.99,0,11.98-4.3,11.98-11.01
			c0-5.65-3.22-10.13-11.06-10.13c-7.06,0-9.98,2.24-12.21,5.89l-3.84-0.83c1.61-5.18,3.38-15.96,4.07-20.56h25.57L341.58,430.81z"
			/>
	</g>
</g>
</svg>
