<?xml version="1.0" encoding="utf-8"?>
<!-- Generator: Adobe Illustrator 24.0.2, SVG Export Plug-In . SVG Version: 6.00 Build 0)  -->
<svg version="1.0" id="Layer_1" xmlns="http://www.w3.org/2000/svg" xmlns:xlink="http://www.w3.org/1999/xlink" x="0px" y="0px"
	 viewBox="0 0 1366 768" enable-background="new 0 0 1366 768" xml:space="preserve">
<rect x="985.5" y="12.5" fill="#735E29" stroke="#001D1B" stroke-miterlimit="10" width="338" height="744"/>
<g>
	<g>
		<path fill="#735E29" stroke="#FFFFFF" stroke-miterlimit="10" d="M1236.39,689.57v-0.19c0.01-2.06,0.98-3.71,2.66-6.2
			c1.11-1.63,1.39-2.29,1.39-3.82c0-1.7-0.28-2.46-1.29-2.46c-0.98,0-1.34,0.77-1.34,1.99v0.61h-1.25v-0.66
			c0-1.47,0.44-3.09,2.66-3.09c2.11,0,2.59,1.56,2.59,3.54c0,2.13-0.56,2.94-1.63,4.48c-1.33,1.94-2.19,3.42-2.29,4.61h4.23
			l-0.19,1.17H1236.39z"/>
		<path fill="#735E29" stroke="#FFFFFF" stroke-miterlimit="10" d="M1250.78,679.19v7.09c0,2.39-0.95,3.46-2.84,3.46
			c-1.73,0-2.75-1.04-2.75-3.43v-7.05c0-2.62,1.25-3.5,2.84-3.5C1249.57,675.75,1250.78,676.62,1250.78,679.19z M1246.52,679.15
			v7.22c0,1.44,0.45,2.11,1.47,2.11c0.91,0,1.44-0.51,1.44-2.16v-7.18c0-1.58-0.58-2.14-1.46-2.14
			C1247.11,677.01,1246.52,677.48,1246.52,679.15z"/>
		<path fill="#735E29" stroke="#FFFFFF" stroke-miterlimit="10" d="M1259.7,689.44c0,2.11-0.24,3.9-2.82,3.9
			c-2.15,0-2.56-1.47-2.56-2.62v-0.06h1.35v0.07c0,0.58,0.22,1.46,1.28,1.46c1.15,0,1.41-0.85,1.41-2.43v-1.42
			c-0.29,0.76-0.86,1.14-1.81,1.14c-1.55,0-2.23-1.11-2.23-3.24v-4.34c0-1.97,0.88-3.15,2.44-3.15c1.09,0,1.59,0.57,1.74,1.09
			c0-0.3,0.05-0.69,0.08-0.92h1.16c-0.02,0.57-0.04,1.55-0.04,2.84V689.44z M1255.68,681.97v4.16c0,1.44,0.38,2.14,1.21,2.14
			c1.29,0,1.49-1.33,1.49-2.8v-3.15c0-1.3-0.14-2.33-1.34-2.33C1256.07,679.99,1255.68,680.72,1255.68,681.97z"/>
		<path fill="#735E29" stroke="#FFFFFF" stroke-miterlimit="10" d="M1263.81,682.55c0-1.7,0.01-2.72-0.02-3.63h1.28
			c0.02,0.3,0.05,0.9,0.05,1.65c0.39-1.28,1.3-1.76,2.22-1.79v1.65c-1.34,0.01-2.19,0.88-2.19,2.74v6.39h-1.33V682.55z"/>
	</g>
</g>
<rect x="52.5" y="12.5" fill="#735E29" stroke="#001D1B" stroke-miterlimit="10" width="338" height="744"/>
<path fill="none" stroke="#FFFFFF" stroke-width="4" stroke-miterlimit="10" d="M1223.37,330l-165.86,0.47
	c-9.06,0.03-16.99-6.06-19.34-14.81c-3.32-12.4-0.75-25.65,7.33-35.15c9.2-10.81,24.36-15.41,39-12l239-1.11"/>
<path fill="none" stroke="#FFFFFF" stroke-width="4" stroke-miterlimit="10" d="M1052,425l170.19,0.81
	c5.22,0.02,10.07,2.95,12.28,7.68c6.69,14.3,4.79,31.04-4.98,42.36c-9.28,10.74-24.47,15.22-39.09,11.7l-204.9,1.18"/>
<line fill="none" stroke="#FFFFFF" stroke-width="4" stroke-miterlimit="10" x1="1130.06" y1="330" x2="1130.06" y2="425.37"/>
<polyline fill="#735E29" stroke="#FFFFFF" stroke-miterlimit="10" points="985.5,12.5 1003.5,25.5 1036.75,12.5 1063.5,25.5 
	1085.44,12.5 1111.5,25.5 1145.21,12.5 1165.5,25.5 1198.08,12.5 1223.5,25.5 1249.8,12.5 1276.5,25.5 1300.38,12.5 1317.5,25.5 
	1323.5,12.5 "/>
<line fill="none" stroke="#FFFFFF" stroke-width="4" stroke-miterlimit="10" x1="985.5" y1="78.11" x2="1323.5" y2="78.12"/>
<g>
	<g>
		<path stroke="#FFFFFF" stroke-miterlimit="10" d="M91.29,742.73v-0.06c0.01-0.69,1.09-1.24,2.95-2.07
			c1.23-0.54,1.55-0.76,1.55-1.27c0-0.57-0.31-0.82-1.44-0.82c-1.09,0-1.49,0.26-1.49,0.66v0.2h-1.39v-0.22
			c0-0.49,0.49-1.03,2.96-1.03c2.34,0,2.88,0.52,2.88,1.18c0,0.71-0.62,0.98-1.81,1.5c-1.48,0.65-2.43,1.14-2.55,1.54h4.7
			l-0.21,0.39H91.29z"/>
		<path stroke="#FFFFFF" stroke-miterlimit="10" d="M107.29,739.26v2.36c0,0.8-1.06,1.16-3.16,1.16c-1.92,0-3.06-0.35-3.06-1.14
			v-2.35c0-0.88,1.39-1.17,3.15-1.17C105.94,738.12,107.29,738.41,107.29,739.26z M102.55,739.25v2.41c0,0.48,0.5,0.7,1.64,0.7
			c1.01,0,1.6-0.17,1.6-0.72v-2.39c0-0.53-0.65-0.71-1.62-0.71C103.21,738.54,102.55,738.7,102.55,739.25z"/>
		<path stroke="#FFFFFF" stroke-miterlimit="10" d="M112.39,742.73v-4.02c-0.42,0.07-1.38,0.15-1.8,0.17v-0.36
			c0.85-0.06,1.83-0.24,2.22-0.37h1.07v4.58H112.39z"/>
		<path stroke="#FFFFFF" stroke-miterlimit="10" d="M123.9,738.17v0.33c-1.92,1.14-3.4,2.54-4.03,4.22h-1.52
			c0.5-1.45,2.06-3.03,4.01-4.15h-4.6v-0.4H123.9z"/>
		<path stroke="#FFFFFF" stroke-miterlimit="10" d="M126.95,742.94l3.45-4.89h1.23l-3.44,4.89H126.95z"/>
		<path stroke="#FFFFFF" stroke-miterlimit="10" d="M134.86,742.73v-0.06c0.01-0.69,1.09-1.24,2.95-2.07
			c1.23-0.54,1.55-0.76,1.55-1.27c0-0.57-0.31-0.82-1.44-0.82c-1.09,0-1.49,0.26-1.49,0.66v0.2h-1.39v-0.22
			c0-0.49,0.49-1.03,2.96-1.03c2.34,0,2.88,0.52,2.88,1.18c0,0.71-0.62,0.98-1.81,1.5c-1.48,0.65-2.43,1.14-2.55,1.54h4.7
			l-0.21,0.39H134.86z"/>
		<path stroke="#FFFFFF" stroke-miterlimit="10" d="M150.86,739.26v2.36c0,0.8-1.06,1.16-3.16,1.16c-1.92,0-3.06-0.35-3.06-1.14
			v-2.35c0-0.88,1.39-1.17,3.15-1.17C149.52,738.12,150.86,738.41,150.86,739.26z M146.13,739.25v2.41c0,0.48,0.5,0.7,1.64,0.7
			c1.01,0,1.6-0.17,1.6-0.72v-2.39c0-0.53-0.65-0.71-1.62-0.71C146.79,738.54,146.13,738.7,146.13,739.25z"/>
		<path stroke="#FFFFFF" stroke-miterlimit="10" d="M155.96,742.73v-4.02c-0.42,0.07-1.38,0.15-1.8,0.17v-0.36
			c0.85-0.06,1.83-0.24,2.22-0.37h1.07v4.58H155.96z"/>
		<path stroke="#FFFFFF" stroke-miterlimit="10" d="M163.47,741.76v0.04c0,0.42,0.54,0.61,1.43,0.61c1.22,0,1.59-0.22,1.59-0.99
			v-0.87c-0.32,0.22-0.88,0.37-2.04,0.37c-1.95,0-2.59-0.44-2.59-1.05v-0.67c0-0.66,0.98-1.07,3.07-1.07c1.94,0,3.02,0.34,3.02,1.09
			v2.09c0,0.91-0.33,1.48-3.07,1.48c-2.28,0-2.88-0.47-2.88-1v-0.02H163.47z M163.34,739.15v0.7c0,0.32,0.21,0.66,1.47,0.66
			c1.36,0,1.67-0.37,1.67-0.85v-0.51c0-0.44-0.44-0.67-1.56-0.67C163.9,738.5,163.34,738.68,163.34,739.15z"/>
	</g>
</g>
<g>
	<g>
		<path stroke="#FFFFFF" stroke-miterlimit="10" d="M67.21,737.2v1.53c0,0.96,0.19,1.98,1.14,1.98c0.9,0,1.08-0.72,1.08-1.64v-0.08
			h1.13v0.07c0,1.08-0.26,2.65-2.21,2.65c-1.8,0-2.26-1.2-2.26-3.06v-3.5c0-1.42,0.51-2.86,2.29-2.86c1.72,0,2.2,1.3,2.2,2.86
			c0,0.49,0,1.54,0,2.06H67.21z M69.46,736.25v-1.19c0-0.85-0.12-1.78-1.1-1.78c-0.93,0-1.14,0.78-1.14,1.79v1.18H69.46z"/>
		<path stroke="#FFFFFF" stroke-miterlimit="10" d="M74.16,732.43c0.71,1.91,1.05,2.82,1.21,3.33h0.02c0.21-0.63,0.68-1.7,1.27-3.33
			h1.19l-1.83,4.26l1.85,4.87h-1.24c-0.74-2.02-1.11-3.2-1.27-3.7h-0.02c-0.19,0.54-0.65,1.84-1.3,3.7h-1.21l1.86-4.73l-1.8-4.4
			H74.16z"/>
	</g>
</g>
<g>
	<g>
		<path stroke="#FFFFFF" stroke-miterlimit="10" d="M772.62,707.56v-3.25h1.53v3.25H772.62z"/>
	</g>
</g>
<g>
	<g>
		<path fill="#735E29" stroke="#FFFFFF" stroke-miterlimit="10" d="M1178.63,682.49c0-2.13,0-2.69-0.02-3.23h1.27
			c0.03,0.24,0.06,0.6,0.06,1.09c0.32-0.82,0.96-1.26,1.95-1.26c1.13,0,2.08,0.64,2.08,2.58v8.24h-1.33v-7.97
			c0-1.05-0.35-1.61-1.17-1.61c-0.92,0-1.5,0.45-1.5,2.6v6.98h-1.33V682.49z"/>
		<path fill="#735E29" stroke="#FFFFFF" stroke-miterlimit="10" d="M1189.09,684.82v1.78c0,1.12,0.22,2.3,1.32,2.3
			c1.05,0,1.26-0.84,1.26-1.92v-0.1h1.31v0.08c0,1.26-0.3,3.09-2.57,3.09c-2.1,0-2.63-1.41-2.63-3.57v-4.08
			c0-1.65,0.59-3.33,2.67-3.33c2,0,2.57,1.52,2.57,3.34c0,0.57,0,1.79,0,2.4H1189.09z M1191.71,683.72v-1.39
			c0-0.99-0.14-2.08-1.28-2.08c-1.08,0-1.33,0.91-1.33,2.09v1.38H1191.71z"/>
		<path fill="#735E29" stroke="#FFFFFF" stroke-miterlimit="10" d="M1195.64,679.26h1.24v-2.63h1.32v2.63h1.54v1.19h-1.54v7.35
			c0,0.56,0.1,1.11,0.78,1.11c0.2,0,0.53-0.02,0.69-0.06v1.04c-0.31,0.12-0.77,0.15-1.12,0.15c-0.96,0-1.67-0.43-1.67-2v-7.6h-1.24
			V679.26z"/>
		<path fill="#735E29" stroke="#FFFFFF" stroke-miterlimit="10" d="M1208.51,679.26c0.82,5.5,1.09,7.41,1.2,8.82h0.02
			c0.15-1.4,0.44-3.07,1.44-8.82h1.37c0.96,5.81,1.26,7.46,1.38,8.8h0.02c0.11-1.18,0.27-2.53,1.23-8.8h1.35l-1.91,10.65h-1.43
			c-0.59-3.62-1.17-6.86-1.37-8.52h-0.02c-0.13,1.58-0.68,4.44-1.43,8.52h-1.45l-1.82-10.65H1208.51z"/>
		<path fill="#735E29" stroke="#FFFFFF" stroke-miterlimit="10" d="M1219.84,679.26h1.33v10.65h-1.33V679.26z M1219.84,675.26h1.33
			v2.13h-1.33V675.26z"/>
		<path fill="#735E29" stroke="#FFFFFF" stroke-miterlimit="10" d="M1230.36,689.77c0,2.11-0.24,3.9-2.82,3.9
			c-2.14,0-2.56-1.47-2.56-2.62V691h1.35v0.07c0,0.58,0.22,1.46,1.28,1.46c1.15,0,1.41-0.85,1.41-2.43v-1.42
			c-0.29,0.76-0.85,1.14-1.81,1.14c-1.55,0-2.23-1.11-2.23-3.24v-4.34c0-1.98,0.88-3.15,2.44-3.15c1.09,0,1.59,0.57,1.74,1.09
			c0-0.29,0.05-0.69,0.08-0.92h1.16c-0.02,0.57-0.04,1.55-0.04,2.84V689.77z M1226.34,682.3v4.16c0,1.44,0.38,2.14,1.21,2.14
			c1.29,0,1.49-1.33,1.49-2.8v-3.15c0-1.3-0.14-2.33-1.34-2.33C1226.73,680.32,1226.34,681.05,1226.34,682.3z"/>
	</g>
</g>
<g>
	<g>
		<path fill="none" stroke="#FFFFFF" stroke-miterlimit="10" d="M1059.41,461.14v7.71h-2.29V449.7c0-2.5,0-4.11-0.04-5.27h2.18
			c0.05,0.39,0.1,1.09,0.1,1.99c0.44-1.23,1.41-2.27,3.29-2.27c2.49,0,3.7,1.66,3.7,5.27v7.8c0,4.01-1.6,5.75-3.95,5.75
			C1060.54,462.97,1059.78,462,1059.41,461.14z M1064.05,457.28v-7.82c0-2.34-0.86-3.21-2.07-3.21c-2.08,0-2.59,1.81-2.59,4.24v5.89
			c0,2.18,0.29,4.47,2.42,4.47C1063.4,460.86,1064.05,459.57,1064.05,457.28z"/>
		<path fill="none" stroke="#FFFFFF" stroke-miterlimit="10" d="M1074.61,453.97v3.06c0,1.91,0.37,3.95,2.27,3.95
			c1.8,0,2.15-1.44,2.15-3.29v-0.17h2.25v0.14c0,2.16-0.51,5.3-4.41,5.3c-3.61,0-4.51-2.41-4.51-6.12v-7c0-2.83,1.01-5.71,4.57-5.71
			c3.43,0,4.4,2.61,4.4,5.72c0,0.98,0,3.07,0,4.11H1074.61z M1079.11,452.08v-2.38c0-1.7-0.25-3.56-2.2-3.56
			c-1.86,0-2.28,1.57-2.28,3.59v2.36H1079.11z"/>
		<path fill="none" stroke="#FFFFFF" stroke-miterlimit="10" d="M1087.69,449.97c0-3.65,0-4.62-0.04-5.54h2.18
			c0.05,0.41,0.1,1.02,0.1,1.86c0.54-1.4,1.65-2.15,3.34-2.15c1.95,0,3.56,1.09,3.56,4.42v14.12h-2.29v-13.67
			c0-1.79-0.6-2.76-2-2.76c-1.58,0-2.56,0.78-2.56,4.46v11.97h-2.29V449.97z"/>
		<path fill="none" stroke="#FFFFFF" stroke-miterlimit="10" d="M1112.04,459.66c0,1.27,0.02,2.52,0.07,3.02h-2.14
			c-0.09-0.46-0.17-1.2-0.18-1.52c-0.58,1.41-1.74,1.81-2.98,1.81c-2.61,0-3.65-2.29-3.65-5.12v-0.32c0-4.04,2.45-5.57,5.69-5.57
			c0.28,0,0.52,0,0.88,0v-3.02c0-1.71-0.31-2.81-1.82-2.81c-1.5,0-1.92,1.14-1.92,2.64v0.53h-2.26v-0.5c0-2.53,1-4.65,4.26-4.65
			c3.1,0,4.04,2,4.04,4.63V459.66z M1109.79,453.82c-0.24,0-0.7,0-0.96,0c-2.17,0-3.43,0.92-3.43,3.64v0.31
			c0,1.71,0.51,3.12,2.01,3.12c1.79,0,2.38-1.46,2.38-4.26V453.82z"/>
		<path fill="none" stroke="#FFFFFF" stroke-miterlimit="10" d="M1117.27,444.43h2.13v-4.51h2.26v4.51h2.64v2.04h-2.64v12.61
			c0,0.96,0.18,1.91,1.34,1.91c0.35,0,0.91-0.04,1.18-0.11v1.79c-0.53,0.21-1.32,0.26-1.92,0.26c-1.65,0-2.87-0.73-2.87-3.43v-13.03
			h-2.13V444.43z"/>
	</g>
</g>
<g>
	<g>
		<path fill="none" stroke="#FFFFFF" stroke-miterlimit="10" d="M1138.42,437.79h2.29v8.57c0.49-1.14,1.49-2,3.26-2
			c2.6,0,3.68,2.12,3.68,5.24v7.22c0,3.63-0.79,6.33-4.08,6.33c-1.7,0-2.6-0.85-3.03-2.02c-0.01,0.75-0.03,1.22-0.1,1.78h-2.07
			c0.05-0.98,0.04-2.62,0.04-4.86V437.79z M1145.34,457.2v-7.25c0-2.19-0.54-3.47-2.12-3.47c-2.22,0-2.54,2.16-2.54,4.78v5.5
			c0,2.94,0.7,4.28,2.43,4.28C1144.58,461.03,1145.34,459.83,1145.34,457.2z"/>
		<path fill="none" stroke="#FFFFFF" stroke-miterlimit="10" d="M1163.15,458.07c0,2.29,0,3.99,0.04,4.84h-2.18
			c-0.05-0.33-0.1-1.26-0.1-1.94c-0.54,1.67-1.67,2.23-3.25,2.23c-1.45,0-3.53-0.53-3.53-4.64v-13.9h2.29v13.3
			c0,2.28,0.61,3.15,2.02,3.15c1.3,0,2.42-0.78,2.42-4.53v-11.92h2.29V458.07z"/>
		<path fill="none" stroke="#FFFFFF" stroke-miterlimit="10" d="M1168.37,444.65h2.13v-4.51h2.26v4.51h2.64v2.04h-2.64v12.61
			c0,0.96,0.18,1.91,1.34,1.91c0.35,0,0.91-0.04,1.18-0.11v1.79c-0.53,0.21-1.32,0.26-1.92,0.26c-1.65,0-2.86-0.73-2.86-3.43v-13.02
			h-2.13V444.65z"/>
		<path fill="none" stroke="#FFFFFF" stroke-miterlimit="10" d="M1179.03,444.65h2.13v-4.51h2.26v4.51h2.64v2.04h-2.64v12.61
			c0,0.96,0.18,1.91,1.34,1.91c0.35,0,0.91-0.04,1.18-0.11v1.79c-0.53,0.21-1.32,0.26-1.92,0.26c-1.65,0-2.87-0.73-2.87-3.43v-13.02
			h-2.13V444.65z"/>
		<path fill="none" stroke="#FFFFFF" stroke-miterlimit="10" d="M1193.24,454.19v3.06c0,1.91,0.37,3.95,2.27,3.95
			c1.8,0,2.15-1.44,2.15-3.29v-0.16h2.25v0.14c0,2.16-0.51,5.3-4.41,5.3c-3.61,0-4.51-2.41-4.51-6.12v-7c0-2.83,1.01-5.71,4.57-5.71
			c3.43,0,4.4,2.61,4.4,5.72c0,0.98,0,3.08,0,4.11H1193.24z M1197.74,452.29v-2.38c0-1.71-0.25-3.56-2.2-3.56
			c-1.86,0-2.28,1.57-2.28,3.59v2.36H1197.74z"/>
		<path fill="none" stroke="#FFFFFF" stroke-miterlimit="10" d="M1206.32,450.87c0-2.92,0.01-4.66-0.04-6.22h2.19
			c0.04,0.51,0.08,1.54,0.08,2.83c0.66-2.2,2.23-3.02,3.8-3.07v2.83c-2.3,0.02-3.75,1.51-3.75,4.7v10.96h-2.29V450.87z"/>
	</g>
</g>
<rect x="139" y="457" fill="none" width="178" height="286"/>
<text transform="matrix(1 0 0 1 191.8604 464.1001)"><tspan x="0" y="0" stroke="#FFFFFF" stroke-miterlimit="10" font-family="'MyriadPro-Regular'" font-size="10px" letter-spacing="1">nutrition facts</tspan><tspan x="5.78" y="36" stroke="#FFFFFF" stroke-miterlimit="10" font-family="'MyriadPro-Regular'" font-size="10px" letter-spacing="1">energy --0.2</tspan><tspan x="4.18" y="66" stroke="#FFFFFF" stroke-miterlimit="10" font-family="'MyriadPro-Regular'" font-size="10px" letter-spacing="1">total fat--0.5</tspan><tspan x="-8" y="90" stroke="#FFFFFF" stroke-miterlimit="10" font-family="'MyriadPro-Regular'" font-size="10px" letter-spacing="1">satruated fat--0.9</tspan><tspan x="3.37" y="114" stroke="#FFFFFF" stroke-miterlimit="10" font-family="'MyriadPro-Regular'" font-size="10px" letter-spacing="1">trans fat--0.7</tspan><tspan x="0.86" y="132" stroke="#FFFFFF" stroke-miterlimit="10" font-family="'MyriadPro-Regular'" font-size="10px" letter-spacing="1">cholesterol--0</tspan><tspan x="6.27" y="150" stroke="#FFFFFF" stroke-miterlimit="10" font-family="'MyriadPro-Regular'" font-size="10px" letter-spacing="1">sodium--0.2</tspan><tspan x="-13.3" y="168" stroke="#FFFFFF" stroke-miterlimit="10" font-family="'MyriadPro-Regular'" font-size="10px" letter-spacing="1">total carbydrat--0.3</tspan><tspan x="-2.71" y="192" stroke="#FFFFFF" stroke-miterlimit="10" font-family="'MyriadPro-Regular'" font-size="10px" letter-spacing="1">crude fiber--0.1</tspan><tspan x="6.08" y="216" stroke="#FFFFFF" stroke-miterlimit="10" font-family="'MyriadPro-Regular'" font-size="10px" letter-spacing="1">protein--0.2</tspan><tspan x="14.58" y="240" stroke="#FFFFFF" stroke-miterlimit="10" font-family="'MyriadPro-Regular'" font-size="10px" letter-spacing="1">iron--0.1</tspan><tspan x="0.53" y="258" stroke="#FFFFFF" stroke-miterlimit="10" font-family="'MyriadPro-Regular'" font-size="10px" letter-spacing="1">vitamin A--0.7</tspan></text>
<g>
	<g>
		<path stroke="#FFFFFF" stroke-miterlimit="10" d="M97.67,335.9c0-1.74,0.03-3.56,0.06-4.55h-0.01c-0.24,1.56-1,5.75-1.52,8.55
			h-0.88c-0.4-2.4-1.19-6.9-1.41-8.56h-0.03c0.03,1.08,0.08,3.21,0.08,4.81v3.75h-0.84v-9.36h1.32c0.55,2.86,1.22,6.47,1.34,7.63
			h0.01c0.15-1.13,0.91-4.94,1.45-7.63h1.3v9.36h-0.87V335.9z"/>
		<path stroke="#FFFFFF" stroke-miterlimit="10" d="M104.49,338.73c0,0.49,0.01,0.98,0.03,1.17h-0.83
			c-0.04-0.18-0.07-0.47-0.07-0.59c-0.22,0.55-0.67,0.7-1.16,0.7c-1.02,0-1.42-0.89-1.42-1.99v-0.13c0-1.57,0.95-2.17,2.22-2.17
			c0.11,0,0.2,0,0.34,0v-1.18c0-0.66-0.12-1.09-0.71-1.09c-0.58,0-0.75,0.44-0.75,1.03v0.21h-0.88v-0.2c0-0.98,0.39-1.81,1.66-1.81
			c1.21,0,1.57,0.78,1.57,1.8V338.73z M103.61,336.46c-0.09,0-0.27,0-0.37,0c-0.84,0-1.34,0.36-1.34,1.42V338
			c0,0.67,0.2,1.21,0.78,1.21c0.7,0,0.92-0.57,0.92-1.66V336.46z"/>
		<path stroke="#FFFFFF" stroke-miterlimit="10" d="M107.23,334.96c0-1.42,0-1.8-0.01-2.16h0.85c0.02,0.16,0.04,0.4,0.04,0.73
			c0.21-0.55,0.64-0.84,1.3-0.84c0.76,0,1.39,0.42,1.39,1.72v5.49h-0.89v-5.32c0-0.7-0.23-1.08-0.78-1.08c-0.62,0-1,0.3-1,1.74v4.66
			h-0.89V334.96z"/>
		<path stroke="#FFFFFF" stroke-miterlimit="10" d="M113.62,339.9v-6.31h-0.76v-0.79h0.76v-1.07c0-0.84,0.31-1.66,1.4-1.66
			c0.16,0,0.35,0.01,0.46,0.05v0.83c-0.12-0.02-0.21-0.03-0.33-0.03c-0.52,0-0.63,0.36-0.63,0.91v0.98h0.92v0.79h-0.92v6.31H113.62z
			"/>
		<path stroke="#FFFFFF" stroke-miterlimit="10" d="M120.6,338.73c0,0.49,0.01,0.98,0.03,1.17h-0.83c-0.04-0.18-0.07-0.47-0.07-0.59
			c-0.22,0.55-0.67,0.7-1.16,0.7c-1.02,0-1.42-0.89-1.42-1.99v-0.13c0-1.57,0.95-2.17,2.22-2.17c0.11,0,0.2,0,0.34,0v-1.18
			c0-0.66-0.12-1.09-0.71-1.09c-0.58,0-0.75,0.44-0.75,1.03v0.21h-0.88v-0.2c0-0.98,0.39-1.81,1.66-1.81c1.21,0,1.57,0.78,1.57,1.8
			V338.73z M119.72,336.46c-0.09,0-0.27,0-0.37,0c-0.84,0-1.34,0.36-1.34,1.42V338c0,0.67,0.2,1.21,0.78,1.21
			c0.7,0,0.92-0.57,0.92-1.66V336.46z"/>
		<path stroke="#FFFFFF" stroke-miterlimit="10" d="M126.53,337.69v0.1c0,1.21-0.31,2.23-1.72,2.23c-1.33,0-1.67-0.93-1.67-2.36
			v-2.83c0-1.21,0.45-2.13,1.74-2.13c1.38,0,1.65,1.02,1.65,1.98v0.29h-0.89v-0.23c0-0.67-0.11-1.27-0.79-1.27
			c-0.58,0-0.82,0.44-0.82,1.33v3.04c0,0.68,0.13,1.41,0.8,1.41c0.59,0,0.8-0.38,0.8-1.36v-0.2H126.53z"/>
		<path stroke="#FFFFFF" stroke-miterlimit="10" d="M128.2,332.8h0.83v-1.75h0.88v1.75h1.03v0.79h-1.03v4.91
			c0,0.37,0.07,0.74,0.52,0.74c0.13,0,0.35-0.01,0.46-0.04v0.7c-0.21,0.08-0.51,0.1-0.75,0.1c-0.64,0-1.12-0.28-1.12-1.33v-5.07
			h-0.83V332.8z"/>
		<path stroke="#FFFFFF" stroke-miterlimit="10" d="M136.57,338.02c0,0.89,0,1.55,0.01,1.88h-0.85c-0.02-0.13-0.04-0.49-0.04-0.75
			c-0.21,0.65-0.65,0.87-1.26,0.87c-0.56,0-1.38-0.21-1.38-1.81v-5.41h0.89v5.18c0,0.89,0.24,1.23,0.79,1.23
			c0.51,0,0.94-0.3,0.94-1.76v-4.64h0.89V338.02z"/>
		<path stroke="#FFFFFF" stroke-miterlimit="10" d="M139.31,335.22c0-1.14,0-1.81-0.01-2.42h0.85c0.01,0.2,0.03,0.6,0.03,1.1
			c0.26-0.85,0.87-1.18,1.48-1.19v1.1c-0.89,0.01-1.46,0.59-1.46,1.83v4.27h-0.89V335.22z"/>
		<path stroke="#FFFFFF" stroke-miterlimit="10" d="M144.46,336.52v1.19c0,0.74,0.14,1.54,0.88,1.54c0.7,0,0.84-0.56,0.84-1.28
			v-0.06h0.88v0.05c0,0.84-0.2,2.06-1.72,2.06c-1.4,0-1.76-0.94-1.76-2.38v-2.72c0-1.1,0.39-2.22,1.78-2.22
			c1.33,0,1.71,1.01,1.71,2.23c0,0.38,0,1.2,0,1.6H144.46z M146.21,335.78v-0.93c0-0.66-0.1-1.39-0.86-1.39
			c-0.72,0-0.89,0.61-0.89,1.4v0.92H146.21z"/>
		<path stroke="#FFFFFF" stroke-miterlimit="10" d="M152.93,330.13v7.98c0,0.79,0,1.4,0.01,1.8h-0.85c-0.02-0.12-0.04-0.52-0.04-0.7
			c-0.17,0.43-0.5,0.82-1.23,0.82c-1.18,0-1.49-0.93-1.49-2.29v-2.94c0-1.26,0.5-2.1,1.59-2.1c0.64,0,0.97,0.27,1.11,0.54v-3.1
			H152.93z M150.24,334.84v2.9c0,0.96,0.24,1.45,0.83,1.45c0.78,0,0.97-0.76,0.97-1.78v-2.37c0-0.78-0.08-1.54-0.94-1.54
			C150.49,333.51,150.24,334.02,150.24,334.84z"/>
	</g>
</g>
<g>
	<g>
		<path stroke="#FFFFFF" stroke-miterlimit="10" d="M160.97,353.85h-2.11v3.77h2.39l-0.12,0.82h-3.15v-9.36h3.12v0.82h-2.23v3.12
			h2.11V353.85z"/>
		<path stroke="#FFFFFF" stroke-miterlimit="10" d="M162.73,351.34h0.83v-1.75h0.88v1.75h1.03v0.79h-1.03v4.91
			c0,0.37,0.07,0.74,0.52,0.74c0.14,0,0.35-0.01,0.46-0.04v0.7c-0.21,0.08-0.51,0.1-0.75,0.1c-0.64,0-1.11-0.28-1.11-1.33v-5.07
			h-0.83V351.34z"/>
		<path stroke="#FFFFFF" stroke-miterlimit="10" d="M168.48,348.67v3.32c0.17-0.41,0.59-0.76,1.3-0.76c1.06,0,1.37,0.79,1.37,1.82
			v5.39h-0.89v-5.17c0-0.61-0.08-1.22-0.78-1.22c-0.81,0-0.99,0.63-0.99,1.72v4.67h-0.89v-9.77H168.48z"/>
		<path stroke="#FFFFFF" stroke-miterlimit="10" d="M173.89,351.34h0.89v7.1h-0.89V351.34z M173.89,348.67h0.89v1.42h-0.89V348.67z"
			/>
		<path stroke="#FFFFFF" stroke-miterlimit="10" d="M180.91,353.32v3.03c0,1.55-0.72,2.21-1.81,2.21c-1.1,0-1.78-0.65-1.78-2.16
			v-3.09c0-1.33,0.69-2.07,1.82-2.07C180.31,351.23,180.91,352.01,180.91,353.32z M178.22,353.3v3.12c0,0.82,0.28,1.34,0.9,1.34
			c0.57,0,0.9-0.39,0.9-1.35v-3.12c0-0.74-0.25-1.27-0.89-1.27C178.49,352.03,178.22,352.49,178.22,353.3z"/>
		<path stroke="#FFFFFF" stroke-miterlimit="10" d="M184.34,357.85v3h-0.89v-7.45c0-0.97,0-1.6-0.01-2.05h0.85
			c0.02,0.15,0.04,0.43,0.04,0.77c0.17-0.48,0.55-0.88,1.28-0.88c0.97,0,1.44,0.65,1.44,2.05v3.04c0,1.56-0.62,2.24-1.54,2.24
			C184.77,358.56,184.48,358.18,184.34,357.85z M186.14,356.34v-3.04c0-0.91-0.34-1.25-0.81-1.25c-0.81,0-1.01,0.7-1.01,1.65v2.29
			c0,0.85,0.11,1.74,0.94,1.74C185.89,357.74,186.14,357.23,186.14,356.34z"/>
		<path stroke="#FFFFFF" stroke-miterlimit="10" d="M192.75,357.27c0,0.49,0.01,0.98,0.03,1.17h-0.83
			c-0.04-0.18-0.07-0.47-0.07-0.59c-0.23,0.55-0.68,0.7-1.16,0.7c-1.02,0-1.42-0.89-1.42-1.99v-0.13c0-1.57,0.95-2.17,2.22-2.17
			c0.11,0,0.2,0,0.34,0v-1.18c0-0.66-0.12-1.09-0.71-1.09c-0.58,0-0.75,0.44-0.75,1.03v0.21h-0.88v-0.2c0-0.98,0.39-1.81,1.66-1.81
			c1.21,0,1.57,0.78,1.57,1.8V357.27z M191.88,355c-0.09,0-0.27,0-0.37,0c-0.84,0-1.33,0.36-1.33,1.42v0.12
			c0,0.67,0.2,1.21,0.78,1.21c0.7,0,0.92-0.57,0.92-1.66V355z"/>
		<path stroke="#FFFFFF" stroke-miterlimit="10" d="M195.5,353.5c0-1.42,0-1.8-0.01-2.16h0.85c0.02,0.16,0.04,0.4,0.04,0.73
			c0.21-0.55,0.64-0.84,1.3-0.84c0.76,0,1.39,0.42,1.39,1.72v5.49h-0.89v-5.32c0-0.7-0.23-1.08-0.78-1.08c-0.62,0-1,0.3-1,1.74v4.66
			h-0.89V353.5z"/>
		<path stroke="#FFFFFF" stroke-miterlimit="10" d="M148.45,369.27c0,0.49,0.01,0.98,0.03,1.17h-0.83
			c-0.04-0.18-0.07-0.47-0.07-0.59c-0.23,0.55-0.68,0.7-1.16,0.7c-1.02,0-1.42-0.89-1.42-1.99v-0.13c0-1.57,0.95-2.17,2.22-2.17
			c0.11,0,0.2,0,0.34,0v-1.18c0-0.66-0.12-1.09-0.71-1.09c-0.58,0-0.75,0.44-0.75,1.03v0.21h-0.88v-0.2c0-0.98,0.39-1.81,1.66-1.81
			c1.21,0,1.57,0.78,1.57,1.8V369.27z M147.57,367c-0.09,0-0.27,0-0.37,0c-0.84,0-1.33,0.36-1.33,1.42v0.12
			c0,0.67,0.2,1.21,0.78,1.21c0.7,0,0.92-0.57,0.92-1.66V367z"/>
		<path stroke="#FFFFFF" stroke-miterlimit="10" d="M154.59,360.67v7.98c0,0.79,0,1.4,0.01,1.8h-0.85c-0.02-0.12-0.04-0.52-0.04-0.7
			c-0.17,0.43-0.5,0.82-1.23,0.82c-1.18,0-1.49-0.93-1.49-2.29v-2.94c0-1.26,0.5-2.1,1.59-2.1c0.64,0,0.97,0.27,1.11,0.54v-3.1
			H154.59z M151.89,365.38v2.9c0,0.96,0.24,1.45,0.83,1.45c0.78,0,0.97-0.76,0.97-1.78v-2.37c0-0.78-0.08-1.54-0.94-1.54
			C152.15,364.05,151.89,364.56,151.89,365.38z"/>
		<path stroke="#FFFFFF" stroke-miterlimit="10" d="M160.7,360.67v7.98c0,0.79,0,1.4,0.01,1.8h-0.85c-0.02-0.12-0.04-0.52-0.04-0.7
			c-0.17,0.43-0.5,0.82-1.23,0.82c-1.18,0-1.49-0.93-1.49-2.29v-2.94c0-1.26,0.5-2.1,1.59-2.1c0.64,0,0.97,0.27,1.11,0.54v-3.1
			H160.7z M158.01,365.38v2.9c0,0.96,0.24,1.45,0.83,1.45c0.78,0,0.97-0.76,0.97-1.78v-2.37c0-0.78-0.08-1.54-0.94-1.54
			C158.26,364.05,158.01,364.56,158.01,365.38z"/>
		<path stroke="#FFFFFF" stroke-miterlimit="10" d="M163.43,363.34h0.89v7.1h-0.89V363.34z M163.44,360.67h0.89v1.42h-0.89V360.67z"
			/>
		<path stroke="#FFFFFF" stroke-miterlimit="10" d="M167.55,368.36v0.31c0,0.75,0.31,1.11,0.83,1.11c0.58,0,0.8-0.36,0.8-1.06
			c0-0.74-0.22-1.07-1.02-1.6c-0.95-0.63-1.38-1.12-1.38-2.1c0-1.01,0.47-1.79,1.62-1.79c1.24,0,1.59,0.81,1.59,1.83v0.33h-0.87
			v-0.38c0-0.63-0.18-1.01-0.73-1.01c-0.5,0-0.71,0.35-0.71,0.94c0,0.59,0.18,0.85,0.91,1.34c1,0.66,1.5,1.15,1.5,2.32
			c0,1.27-0.56,1.96-1.75,1.96c-1.34,0-1.69-0.91-1.69-1.88v-0.32H167.55z"/>
		<path stroke="#FFFFFF" stroke-miterlimit="10" d="M172.97,368.36v0.31c0,0.75,0.31,1.11,0.83,1.11c0.58,0,0.8-0.36,0.8-1.06
			c0-0.74-0.22-1.07-1.02-1.6c-0.95-0.63-1.38-1.12-1.38-2.1c0-1.01,0.47-1.79,1.62-1.79c1.24,0,1.59,0.81,1.59,1.83v0.33h-0.87
			v-0.38c0-0.63-0.18-1.01-0.73-1.01c-0.5,0-0.71,0.35-0.71,0.94c0,0.59,0.18,0.85,0.91,1.34c1,0.66,1.5,1.15,1.5,2.32
			c0,1.27-0.56,1.96-1.75,1.96c-1.34,0-1.69-0.91-1.69-1.88v-0.32H172.97z"/>
		<path stroke="#FFFFFF" stroke-miterlimit="10" d="M184.39,369.27c0,0.49,0.01,0.98,0.03,1.17h-0.83
			c-0.04-0.18-0.07-0.47-0.07-0.59c-0.23,0.55-0.68,0.7-1.16,0.7c-1.02,0-1.42-0.89-1.42-1.99v-0.13c0-1.57,0.95-2.17,2.22-2.17
			c0.11,0,0.2,0,0.34,0v-1.18c0-0.66-0.12-1.09-0.71-1.09c-0.58,0-0.75,0.44-0.75,1.03v0.21h-0.88v-0.2c0-0.98,0.39-1.81,1.66-1.81
			c1.21,0,1.57,0.78,1.57,1.8V369.27z M183.51,367c-0.09,0-0.27,0-0.37,0c-0.84,0-1.33,0.36-1.33,1.42v0.12
			c0,0.67,0.2,1.21,0.78,1.21c0.7,0,0.92-0.57,0.92-1.66V367z"/>
		<path stroke="#FFFFFF" stroke-miterlimit="10" d="M187.14,360.67h0.89v3.33c0.19-0.44,0.58-0.78,1.27-0.78
			c1.01,0,1.43,0.82,1.43,2.04v2.81c0,1.41-0.31,2.46-1.59,2.46c-0.66,0-1.01-0.33-1.18-0.79c0,0.29-0.01,0.48-0.04,0.69h-0.8
			c0.02-0.38,0.01-1.02,0.01-1.89V360.67z M189.83,368.23v-2.82c0-0.85-0.21-1.35-0.82-1.35c-0.86,0-0.99,0.84-0.99,1.86v2.14
			c0,1.14,0.27,1.67,0.95,1.67C189.53,369.72,189.83,369.25,189.83,368.23z"/>
		<path stroke="#FFFFFF" stroke-miterlimit="10" d="M196.43,369.27c0,0.49,0.01,0.98,0.03,1.17h-0.83
			c-0.04-0.18-0.07-0.47-0.07-0.59c-0.23,0.55-0.68,0.7-1.16,0.7c-1.02,0-1.42-0.89-1.42-1.99v-0.13c0-1.57,0.95-2.17,2.22-2.17
			c0.11,0,0.2,0,0.34,0v-1.18c0-0.66-0.12-1.09-0.71-1.09c-0.58,0-0.75,0.44-0.75,1.03v0.21h-0.88v-0.2c0-0.98,0.39-1.81,1.66-1.81
			c1.21,0,1.57,0.78,1.57,1.8V369.27z M195.55,367c-0.09,0-0.27,0-0.37,0c-0.84,0-1.33,0.36-1.33,1.42v0.12
			c0,0.67,0.2,1.21,0.78,1.21c0.7,0,0.92-0.57,0.92-1.66V367z"/>
		<path stroke="#FFFFFF" stroke-miterlimit="10" d="M199.18,360.67h0.89v3.33c0.19-0.44,0.58-0.78,1.27-0.78
			c1.01,0,1.43,0.82,1.43,2.04v2.81c0,1.41-0.31,2.46-1.59,2.46c-0.66,0-1.01-0.33-1.18-0.79c0,0.29-0.01,0.48-0.04,0.69h-0.8
			c0.02-0.38,0.01-1.02,0.01-1.89V360.67z M201.87,368.23v-2.82c0-0.85-0.21-1.35-0.82-1.35c-0.86,0-0.99,0.84-0.99,1.86v2.14
			c0,1.14,0.27,1.67,0.95,1.67C201.57,369.72,201.87,369.25,201.87,368.23z"/>
		<path stroke="#FFFFFF" stroke-miterlimit="10" d="M208.47,369.27c0,0.49,0.01,0.98,0.03,1.17h-0.83
			c-0.04-0.18-0.07-0.47-0.07-0.59c-0.23,0.55-0.68,0.7-1.16,0.7c-1.02,0-1.42-0.89-1.42-1.99v-0.13c0-1.57,0.95-2.17,2.22-2.17
			c0.11,0,0.2,0,0.34,0v-1.18c0-0.66-0.12-1.09-0.71-1.09c-0.58,0-0.75,0.44-0.75,1.03v0.21h-0.88v-0.2c0-0.98,0.39-1.81,1.66-1.81
			c1.21,0,1.57,0.78,1.57,1.8V369.27z M207.59,367c-0.09,0-0.27,0-0.37,0c-0.84,0-1.33,0.36-1.33,1.42v0.12
			c0,0.67,0.2,1.21,0.78,1.21c0.7,0,0.92-0.57,0.92-1.66V367z"/>
		<path stroke="#FFFFFF" stroke-miterlimit="10" d="M210.56,371.84c0.39-1,0.67-2.23,0.7-3.29h0.82c-0.03,1.12-0.39,2.48-0.83,3.29
			H210.56z"/>
	</g>
</g>
<polyline fill="#735E29" stroke="#FFFFFF" stroke-miterlimit="10" points="52.46,12.74 70.46,25.74 103.71,12.74 130.46,25.74 
	152.4,12.74 178.46,25.74 212.17,12.74 232.46,25.74 265.04,12.74 290.46,25.74 316.76,12.74 343.46,25.74 367.34,12.74 
	384.46,25.74 390.46,12.74 "/>
</svg>
