<?xml version="1.0" encoding="utf-8"?>
<!-- Generator: Adobe Illustrator 24.0.2, SVG Export Plug-In . SVG Version: 6.00 Build 0)  -->
<svg version="1.0" id="Layer_1" xmlns="http://www.w3.org/2000/svg" xmlns:xlink="http://www.w3.org/1999/xlink" x="0px" y="0px"
	 viewBox="0 0 1366 768" enable-background="new 0 0 1366 768" xml:space="preserve">
<g>
	<rect x="16.5" y="141.5" fill="#F7F7F7" width="1337" height="323"/>
	<path fill="#F7F7F7" d="M1353,142v322H17V142H1353 M1354,141H16v324h1338V141L1354,141z"/>
</g>
<g>
	<g>
		<path fill="#5CA6FF" stroke="#737FFF" stroke-miterlimit="10" d="M372.33,229h7.17v51.12h-7.17V229z M377.18,273.3h11.57
			c3.77,0,6.7-0.98,8.77-2.94c2.07-1.96,3.11-4.72,3.11-8.28v-15.05c0-3.56-1.04-6.32-3.11-8.28c-2.07-1.96-5-2.94-8.77-2.94h-11.57
			V229h11.36c4.1,0,7.61,0.72,10.51,2.14c2.91,1.43,5.12,3.52,6.64,6.26c1.52,2.74,2.29,6.05,2.29,9.91v14.48
			c0,3.87-0.76,7.17-2.29,9.91c-1.52,2.74-3.74,4.83-6.66,6.26c-2.92,1.43-6.43,2.14-10.53,2.14h-11.32V273.3z"/>
		<path fill="#5CA6FF" stroke="#737FFF" stroke-miterlimit="10" d="M426.08,229h7.17v7.17h-7.17V229z M426.08,243.63h7.17v36.49
			h-7.17V243.63z"/>
		<path fill="#5CA6FF" stroke="#737FFF" stroke-miterlimit="10" d="M456.07,279.01c-1.89-1.16-3.32-2.85-4.31-5.08
			c-0.98-2.23-1.48-4.9-1.48-8.02v-8.05c0-3.14,0.48-5.82,1.44-8.05c0.96-2.23,2.36-3.92,4.2-5.08c1.84-1.16,4.05-1.74,6.63-1.74
			c2.16,0,4.13,0.56,5.92,1.69s3.24,2.71,4.34,4.75l-0.74,7.45c0-1.55-0.28-2.87-0.84-3.97c-0.56-1.1-1.38-1.94-2.44-2.51
			c-1.07-0.57-2.36-0.86-3.88-0.86c-2.37,0-4.2,0.74-5.5,2.21s-1.95,3.55-1.95,6.22v7.95c0,2.65,0.65,4.69,1.95,6.13
			s3.13,2.16,5.5,2.16c1.52,0,2.82-0.3,3.88-0.9c1.07-0.6,1.88-1.46,2.44-2.58s0.84-2.47,0.84-4.04l0.49,7.7
			c-0.73,1.81-1.92,3.32-3.57,4.54s-3.69,1.83-6.1,1.83C460.24,280.75,457.96,280.17,456.07,279.01z M456.21,293.42
			c-2.17-1.02-3.85-2.46-5.04-4.31l4.85-4.39c0.94,1.29,2.06,2.29,3.36,2.99s2.67,1.05,4.1,1.05c2.74,0,4.86-0.76,6.36-2.27
			c1.5-1.51,2.25-3.65,2.25-6.42v-36.46h7.17v35.4c0,3.35-0.62,6.22-1.85,8.61s-3.02,4.21-5.36,5.45c-2.34,1.24-5.17,1.86-8.47,1.86
			C460.84,294.95,458.38,294.44,456.21,293.42z"/>
		<path fill="#5CA6FF" stroke="#737FFF" stroke-miterlimit="10" d="M497.36,229h7.17v7.17h-7.17V229z M497.36,243.63h7.17v36.49
			h-7.17V243.63z"/>
		<path fill="#5CA6FF" stroke="#737FFF" stroke-miterlimit="10" d="M519.82,243.63h16.45v6.47h-16.45V243.63z M525.63,277.85
			c-1.37-1.63-2.06-4.04-2.06-7.22v-37.62h7.17v37.69c0,0.89,0.18,1.58,0.53,2.06c0.35,0.48,0.87,0.72,1.55,0.72h3.45v6.82h-4.15
			C529.17,280.29,527,279.48,525.63,277.85z"/>
		<path fill="#5CA6FF" stroke="#737FFF" stroke-miterlimit="10" d="M554.89,277.85c-2.23-1.86-3.34-4.69-3.34-8.49
			c0-3.61,1.02-6.32,3.06-8.12c2.04-1.8,5.12-2.71,9.25-2.71h10.37l0.49,5.77h-10.83c-1.88,0-3.28,0.42-4.2,1.25
			c-0.93,0.83-1.39,2.1-1.39,3.81c0,1.85,0.62,3.22,1.85,4.11c1.23,0.89,3.1,1.34,5.61,1.34c2.74,0,4.79-0.29,6.13-0.88
			c1.35-0.59,2.02-1.5,2.02-2.74l0.74,5.13c-0.63,0.98-1.41,1.79-2.34,2.43c-0.93,0.63-2,1.11-3.22,1.42
			c-1.22,0.32-2.59,0.47-4.11,0.47C560.48,280.64,557.12,279.71,554.89,277.85z M573.91,256.98c0-2.39-0.64-4.25-1.92-5.57
			c-1.28-1.32-3.09-1.99-5.43-1.99c-1.45,0-2.88,0.22-4.27,0.67c-1.39,0.45-2.63,1.07-3.71,1.86l-5.24-3.59
			c1.38-1.66,3.2-2.96,5.47-3.88c2.26-0.93,4.78-1.39,7.54-1.39c3.02,0,5.61,0.53,7.77,1.6c2.16,1.07,3.8,2.61,4.92,4.64
			c1.13,2.03,1.69,4.47,1.69,7.33v23.45h-6.82V256.98z"/>
		<path fill="#5CA6FF" stroke="#737FFF" stroke-miterlimit="10" d="M606,270.7c0,0.89,0.19,1.58,0.58,2.06
			c0.39,0.48,0.93,0.72,1.63,0.72h3.38v6.82h-4.22c-2.72,0-4.82-0.84-6.31-2.53c-1.49-1.69-2.23-4.07-2.23-7.14V229H606V270.7z"/>
	</g>
</g>
<g>
	<g>
		<path fill="#B90053" d="M699.2,229.34h7.17v51.12h-7.17V229.34z M702.68,229.34h29.36v6.82h-29.36V229.34z M702.68,251.67h25.49
			v6.82h-25.49V251.67z M702.68,273.64h29.36v6.82h-29.36V273.64z"/>
		<path fill="#B90053" d="M742.4,229.34h36.07v6.82H742.4V229.34z M756.85,233.53h7.17v46.93h-7.17V233.53z"/>
		<path fill="#B90053" d="M791.3,229.34h7.17v51.12h-7.17V229.34z M795.76,251.88h28.37v6.82h-28.37V251.88z M820.34,229.34h7.17
			v51.12h-7.17V229.34z"/>
		<path fill="#B90053" d="M854.54,280.46h-7.17v-51.12h7.17V280.46z"/>
		<path fill="#B90053" d="M881.88,278.65c-2.72-1.56-4.82-3.76-6.31-6.61s-2.23-6.15-2.23-9.9v-14.48c0-3.75,0.74-7.05,2.23-9.9
			s3.59-5.05,6.31-6.61c2.72-1.56,5.86-2.34,9.42-2.34s6.7,0.78,9.42,2.34c2.72,1.56,4.82,3.76,6.31,6.61s2.23,6.15,2.23,9.9v14.48
			c0,3.75-0.74,7.05-2.23,9.9s-3.59,5.05-6.31,6.61c-2.72,1.56-5.86,2.34-9.42,2.34S884.6,280.21,881.88,278.65z M896.88,272.5
			c1.61-0.95,2.85-2.3,3.73-4.04c0.88-1.75,1.32-3.77,1.32-6.06v-14.98c0-2.3-0.44-4.32-1.32-6.06c-0.88-1.75-2.12-3.09-3.73-4.04
			s-3.46-1.42-5.57-1.42s-3.97,0.47-5.57,1.42s-2.85,2.3-3.73,4.04c-0.88,1.75-1.32,3.77-1.32,6.06v14.98c0,2.3,0.44,4.32,1.32,6.06
			c0.88,1.75,2.12,3.09,3.73,4.04s3.46,1.42,5.57,1.42S895.27,273.45,896.88,272.5z"/>
		<path fill="#B90053" d="M928.07,229.34h7.17v51.12h-7.17V229.34z M931.76,253.81h16.35c1.55,0,2.91-0.36,4.08-1.09
			c1.17-0.73,2.08-1.76,2.72-3.09s0.97-2.87,0.97-4.61c0-1.76-0.32-3.3-0.97-4.64s-1.55-2.37-2.72-3.11s-2.53-1.11-4.08-1.11h-16.35
			v-6.82h16.1c3.05,0,5.73,0.65,8.05,1.95s4.12,3.13,5.4,5.5c1.28,2.37,1.92,5.11,1.92,8.23c0,3.12-0.64,5.85-1.92,8.21
			s-3.08,4.18-5.4,5.47c-2.32,1.29-5,1.93-8.05,1.93h-16.1V253.81z"/>
		<path fill="#B90053" d="M994.02,229.34h6.12l18.84,51.12h-7.73l-14.17-41.24l-14.17,41.24h-7.73L994.02,229.34z M983.86,262.43
			h26.89v6.82h-26.89V262.43z"/>
	</g>
</g>
<path fill="none" stroke="#00D029" stroke-width="5" stroke-miterlimit="10" d="M299,303h751c8.7-12.22,37.26-49.05,90-65
	c43.17-13.06,79.71-5.22,95-1"/>
<polygon fill="#F5D9A2" stroke="#F6FFB9" stroke-width="5" stroke-miterlimit="10" points="146.91,285.56 88.45,292.7 53.04,245.63 
	76.09,191.44 134.55,184.3 169.96,231.37 "/>
<polygon fill="#F5E5A2" stroke="#F5D6A2" stroke-width="5" stroke-miterlimit="10" points="174.8,277.68 116.15,275.92 
	88.34,224.24 119.2,174.32 177.85,176.08 205.66,227.76 "/>
<rect x="434.5" y="406.5" fill="none" stroke="#E74100" stroke-width="5" stroke-miterlimit="10" width="17" height="54"/>
<rect x="471.5" y="384.5" fill="none" stroke="#E74100" stroke-width="5" stroke-miterlimit="10" width="18" height="76"/>
<rect x="513.5" y="368.5" fill="none" stroke="#E74100" stroke-width="5" stroke-miterlimit="10" width="22" height="92"/>
<rect x="561.5" y="341.5" fill="none" stroke="#E74100" stroke-width="5" stroke-miterlimit="10" width="20" height="119"/>
<rect x="606.5" y="318.5" fill="none" stroke="#E74100" stroke-width="5" stroke-miterlimit="10" width="22" height="142"/>
<g>
	<g>
		<path d="M732.45,370.83c0,0.59,0.13,1.05,0.39,1.37s0.62,0.48,1.09,0.48h2.25v4.55h-2.81c-1.81,0-3.21-0.56-4.21-1.69
			s-1.49-2.71-1.49-4.76v-27.75h4.78V370.83z"/>
		<path d="M750.56,376.2c-1.59-0.84-2.81-2.08-3.64-3.71s-1.25-3.61-1.25-5.92v-2.74c0-2.41,0.4-4.46,1.21-6.16s1.97-3,3.5-3.89
			s3.38-1.34,5.53-1.34c2.03,0,3.77,0.51,5.2,1.52s2.54,2.48,3.29,4.41s1.14,4.23,1.14,6.91v1.59h-16.41v-3.84h11.86
			c-0.14-1.98-0.65-3.53-1.54-4.63s-2.07-1.65-3.55-1.65c-1.81,0-3.21,0.59-4.21,1.78s-1.49,2.87-1.49,5.04v3.09
			c0,2.02,0.53,3.56,1.59,4.64s2.57,1.62,4.52,1.62c0.97,0,1.93-0.2,2.88-0.59s1.8-0.94,2.55-1.64l3.14,3.14
			c-1.2,1.16-2.55,2.05-4.05,2.68s-3.01,0.95-4.52,0.95C754.08,377.46,752.16,377.04,750.56,376.2z"/>
		<path d="M791.22,352.78h4.99l-9.14,24.33h-3.61l-9.14-24.33h4.99l5.95,17.37L791.22,352.78z"/>
		<path d="M809.9,376.2c-1.59-0.84-2.81-2.08-3.64-3.71s-1.25-3.61-1.25-5.92v-2.74c0-2.41,0.4-4.46,1.21-6.16s1.97-3,3.5-3.89
			s3.38-1.34,5.53-1.34c2.03,0,3.77,0.51,5.2,1.52s2.54,2.48,3.29,4.41s1.14,4.23,1.14,6.91v1.59h-16.41v-3.84h11.86
			c-0.14-1.98-0.65-3.53-1.54-4.63s-2.07-1.65-3.55-1.65c-1.81,0-3.21,0.59-4.21,1.78s-1.49,2.87-1.49,5.04v3.09
			c0,2.02,0.53,3.56,1.59,4.64s2.57,1.62,4.52,1.62c0.97,0,1.93-0.2,2.88-0.59s1.8-0.94,2.55-1.64l3.14,3.14
			c-1.2,1.16-2.55,2.05-4.05,2.68s-3.01,0.95-4.52,0.95C813.41,377.46,811.49,377.04,809.9,376.2z"/>
		<path d="M841.02,370.83c0,0.59,0.13,1.05,0.39,1.37s0.62,0.48,1.09,0.48h2.25v4.55h-2.81c-1.81,0-3.21-0.56-4.21-1.69
			s-1.49-2.71-1.49-4.76v-27.75h4.78V370.83z"/>
		<path d="M877.41,367.57c0,1.7,0.43,3.02,1.3,3.95s2.09,1.39,3.67,1.39c1.56,0,2.77-0.41,3.63-1.24s1.29-2.01,1.29-3.54l0.33,5.09
			c-0.5,1.2-1.31,2.21-2.44,3.02s-2.51,1.22-4.15,1.22c-2.69,0-4.76-0.86-6.22-2.59s-2.19-4.16-2.19-7.3v-14.79h4.78V367.57z
			 M887.3,352.78h4.76v24.33h-4.76V352.78z"/>
		<path d="M904.12,352.78h4.78V387h-4.78V352.78z M911.06,376.37c-1.13-0.73-1.95-1.75-2.48-3.08l0.33-5.09
			c0,1.05,0.19,1.94,0.56,2.67s0.92,1.3,1.63,1.69s1.57,0.59,2.59,0.59c1.58,0,2.8-0.48,3.67-1.44s1.3-2.32,1.3-4.07v-5.27
			c0-1.78-0.43-3.16-1.3-4.15s-2.09-1.48-3.67-1.48c-1.02,0-1.88,0.19-2.59,0.56s-1.25,0.93-1.63,1.65s-0.56,1.6-0.56,2.61
			l-0.49-4.69c0.73-1.42,1.7-2.52,2.88-3.29s2.51-1.16,3.96-1.16c1.72,0,3.19,0.39,4.42,1.16s2.16,1.9,2.8,3.39s0.96,3.27,0.96,5.37
			v5.3c0,2.06-0.33,3.83-0.98,5.3s-1.62,2.59-2.88,3.36s-2.78,1.16-4.55,1.16C913.5,377.46,912.18,377.1,911.06,376.37z"/>
		<path d="M952.72,352.78h4.78v24.33h-4.78V352.78z M967.49,362.37c0-1.72-0.45-3.05-1.34-3.98s-2.14-1.41-3.75-1.41
			c-1.56,0-2.77,0.41-3.62,1.24s-1.28,1.99-1.28,3.49l-0.49-4.69c0.75-1.47,1.73-2.6,2.94-3.4s2.55-1.2,4.02-1.2
			c2.64,0,4.68,0.86,6.13,2.59s2.17,4.17,2.17,7.32v14.77h-4.78V362.37z"/>
		<path d="M988.53,376.2c-1.59-0.84-2.81-2.08-3.64-3.71s-1.25-3.61-1.25-5.92v-2.74c0-2.41,0.4-4.46,1.21-6.16s1.97-3,3.5-3.89
			s3.38-1.34,5.53-1.34c2.03,0,3.77,0.51,5.2,1.52s2.54,2.48,3.29,4.41s1.14,4.23,1.14,6.91v1.59H987.1v-3.84h11.86
			c-0.14-1.98-0.65-3.53-1.54-4.63s-2.07-1.65-3.55-1.65c-1.81,0-3.21,0.59-4.21,1.78s-1.49,2.87-1.49,5.04v3.09
			c0,2.02,0.53,3.56,1.59,4.64s2.57,1.62,4.52,1.62c0.97,0,1.93-0.2,2.88-0.59s1.8-0.94,2.55-1.64l3.14,3.14
			c-1.2,1.16-2.55,2.05-4.05,2.68s-3.01,0.95-4.52,0.95C992.04,377.46,990.12,377.04,988.53,376.2z"/>
		<path d="M1018.78,376.22c-1.5-0.83-2.64-2.04-3.43-3.62s-1.18-3.5-1.18-5.73v-3.96c0-2.2,0.39-4.09,1.18-5.66s1.93-2.77,3.43-3.59
			s3.3-1.23,5.41-1.23s3.91,0.41,5.41,1.23s2.64,2.02,3.43,3.59s1.18,3.46,1.18,5.66v4.03c0,2.22-0.39,4.11-1.18,5.68
			s-1.93,2.77-3.43,3.6s-3.3,1.24-5.41,1.24S1020.28,377.05,1018.78,376.22z M1028.08,371.35c0.91-1.05,1.37-2.52,1.37-4.41v-4.03
			c0-1.89-0.46-3.35-1.37-4.38s-2.21-1.55-3.88-1.55s-2.96,0.52-3.88,1.55s-1.37,2.49-1.37,4.38v4.03c0,1.89,0.46,3.36,1.37,4.41
			s2.21,1.57,3.88,1.57S1027.16,372.39,1028.08,371.35z"/>
		<path d="M1045.82,352.78h4.78v24.33h-4.78V352.78z M1060.59,362.37c0-1.72-0.45-3.05-1.34-3.98s-2.14-1.41-3.75-1.41
			c-1.56,0-2.77,0.41-3.62,1.24s-1.28,1.99-1.28,3.49l-0.49-4.69c0.75-1.47,1.73-2.6,2.94-3.4s2.55-1.2,4.02-1.2
			c2.64,0,4.68,0.86,6.13,2.59s2.17,4.17,2.17,7.32v14.77h-4.78V362.37z"/>
		<path d="M1082,377.04c-1.26-0.28-2.43-0.7-3.53-1.27s-2.1-1.27-3.02-2.11l2.84-3.49c1.31,1,2.62,1.75,3.91,2.25
			s2.58,0.75,3.84,0.75c1.89,0,3.31-0.29,4.25-0.88s1.42-1.46,1.42-2.64c0-0.78-0.26-1.37-0.77-1.76s-1.16-0.65-1.92-0.79
			s-1.84-0.25-3.23-0.36c-0.13,0-0.26,0-0.4-0.01s-0.27-0.02-0.4-0.04c-0.06,0-0.13,0-0.19-0.01s-0.13-0.01-0.19-0.01
			c-1.58-0.13-2.91-0.36-4.01-0.69s-2-0.96-2.73-1.89s-1.09-2.24-1.09-3.96s0.35-3.15,1.05-4.29s1.75-2,3.14-2.57
			s3.13-0.86,5.23-0.86c1.27,0,2.47,0.12,3.62,0.35s2.25,0.58,3.29,1.04s2.05,1.04,3.02,1.75l-2.88,3.49
			c-1.22-0.78-2.42-1.37-3.6-1.76s-2.33-0.59-3.46-0.59c-1.63,0-2.84,0.28-3.66,0.83s-1.22,1.39-1.22,2.5
			c0,0.66,0.23,1.15,0.69,1.48s1.04,0.55,1.75,0.66s1.7,0.2,3,0.28c0.09,0.02,0.19,0.02,0.29,0.02s0.21,0.01,0.32,0.02
			c0.05,0,0.09,0,0.14,0s0.09,0.01,0.14,0.02c1.7,0.11,3.15,0.34,4.35,0.68s2.2,1.02,3.01,2.04s1.22,2.48,1.22,4.41
			c0,1.75-0.38,3.2-1.13,4.35s-1.88,2.01-3.39,2.59s-3.4,0.87-5.68,0.87C1084.6,377.46,1083.25,377.32,1082,377.04z"/>
		<path d="M1107.13,343.03h4.78v4.78h-4.78V343.03z M1107.13,352.78h4.78v24.33h-4.78V352.78z"/>
		<path d="M1127.13,376.37c-1.26-0.77-2.21-1.9-2.87-3.39s-0.98-3.27-0.98-5.34v-5.37c0-2.09,0.32-3.88,0.96-5.37
			s1.57-2.61,2.8-3.39s2.7-1.16,4.42-1.16c1.44,0,2.75,0.38,3.95,1.13s2.16,1.8,2.89,3.16l-0.49,4.97c0-1.03-0.19-1.91-0.56-2.65
			s-0.92-1.29-1.63-1.68s-1.57-0.57-2.59-0.57c-1.58,0-2.8,0.49-3.67,1.48s-1.3,2.37-1.3,4.15v5.3c0,1.77,0.43,3.13,1.3,4.09
			s2.09,1.44,3.67,1.44c1.02,0,1.88-0.2,2.59-0.6s1.25-0.97,1.63-1.72s0.56-1.65,0.56-2.7l0.33,5.13c-0.48,1.2-1.28,2.21-2.38,3.02
			s-2.46,1.22-4.07,1.22C1129.9,377.53,1128.38,377.15,1127.13,376.37z M1127.22,385.98c-1.45-0.68-2.57-1.64-3.36-2.87l3.23-2.93
			c0.63,0.86,1.37,1.52,2.24,1.99s1.78,0.7,2.73,0.7c1.83,0,3.24-0.5,4.24-1.51s1.5-2.43,1.5-4.28v-24.3h4.78v23.6
			c0,2.23-0.41,4.15-1.23,5.74s-2.01,2.8-3.57,3.63c-1.56,0.83-3.45,1.24-5.65,1.24C1130.3,387,1128.67,386.66,1127.22,385.98z"/>
		<path d="M1154.65,352.78h4.78v24.33h-4.78V352.78z M1169.42,362.37c0-1.72-0.45-3.05-1.34-3.98s-2.14-1.41-3.75-1.41
			c-1.56,0-2.77,0.41-3.62,1.24s-1.28,1.99-1.28,3.49l-0.49-4.69c0.75-1.47,1.73-2.6,2.94-3.4s2.55-1.2,4.02-1.2
			c2.64,0,4.68,0.86,6.13,2.59s2.17,4.17,2.17,7.32v14.77h-4.78V362.37z"/>
	</g>
</g>
</svg>
