<?xml version="1.0" encoding="utf-8"?>
<!-- Generator: Adobe Illustrator 24.0.2, SVG Export Plug-In . SVG Version: 6.00 Build 0)  -->
<svg version="1.0" id="Layer_1" xmlns="http://www.w3.org/2000/svg" xmlns:xlink="http://www.w3.org/1999/xlink" x="0px" y="0px"
	 viewBox="0 0 1366 768" enable-background="new 0 0 1366 768" xml:space="preserve">
<g>
	<circle fill="#D03400" cx="567" cy="319" r="150.5"/>
	<path fill="#A22D00" d="M567,169c40.07,0,77.73,15.6,106.07,43.93C701.4,241.27,717,278.93,717,319s-15.6,77.73-43.93,106.07
		C644.73,453.4,607.07,469,567,469s-77.73-15.6-106.07-43.93S417,359.07,417,319s15.6-77.73,43.93-106.07
		C489.27,184.6,526.93,169,567,169 M567,168c-83.39,0-151,67.6-151,151s67.61,151,151,151s151-67.61,151-151S650.4,168,567,168
		L567,168z"/>
</g>
</svg>
